<mxfile host="Electron" modified="2024-04-11T07:57:34.435Z" agent="Mozilla/5.0 (Windows NT 10.0; Win64; x64) AppleWebKit/537.36 (KHTML, like Gecko) draw.io/21.2.8 Chrome/112.0.5615.165 Electron/24.2.0 Safari/537.36" etag="SRhexvBjUDwO4q2YBNTT" version="21.2.8" type="device">
  <diagram name="Page-1" id="2XWkQP5S-hDbL94sL5Vg">
    <mxGraphModel dx="2058" dy="1180" grid="1" gridSize="10" guides="1" tooltips="1" connect="1" arrows="1" fold="1" page="1" pageScale="1" pageWidth="3300" pageHeight="4681" background="#999999" math="0" shadow="0">
      <root>
        <mxCell id="0" />
        <mxCell id="1" parent="0" />
        <mxCell id="HT3JYzme7oOu0LbbBRVU-1" value="C++" style="rounded=0;whiteSpace=wrap;html=1;fillColor=#dae8fc;strokeColor=#6c8ebf;fontSize=52;" parent="1" vertex="1">
          <mxGeometry x="680" y="240" width="370" height="400" as="geometry" />
        </mxCell>
        <mxCell id="HT3JYzme7oOu0LbbBRVU-2" value="QML" style="rounded=0;whiteSpace=wrap;html=1;fillColor=#f8cecc;strokeColor=#b85450;fontSize=52;" parent="1" vertex="1">
          <mxGeometry x="1110" y="240" width="370" height="400" as="geometry" />
        </mxCell>
        <mxCell id="nVmMSN9zLrFkEYBCTrbw-1" value="C++ Sequence types to JavaScript Arrays" style="rounded=0;whiteSpace=wrap;html=1;fontSize=30;fillColor=#dae8fc;strokeColor=#6c8ebf;" vertex="1" parent="1">
          <mxGeometry x="680" y="60" width="680" height="140" as="geometry" />
        </mxCell>
        <mxCell id="nVmMSN9zLrFkEYBCTrbw-2" value="" style="shape=image;verticalLabelPosition=bottom;labelBackgroundColor=default;verticalAlign=top;aspect=fixed;imageAspect=0;image=data:image/png,iVBORw0KGgoAAAANSUhEUgAABDEAAAQrCAYAAACVRzdwAAAAAXNSR0IArs4c6QAAAARnQU1BAACxjwv8YQUAAAAJcEhZcwAADsMAAA7DAcdvqGQAAP+lSURBVHhe7P0PcFX1ve//vxDOKORWCQktCZJsUEHspQIplN4MUTnYjlJLpt4woZ3fGTzf0qmZVhy4zIBjhzLtt/AbD4x6O9EpvUd+vd+WDHy9N6jUX4vVr3g5ojRBy6kKWglBElpIgt4Dkd8B+a3PWp+199p/s/fO3iErPB8zm6y19v7s9WfvhP157/fn/Rl156LFl1UkvT1n7BIAAAAAAMDgXGN/AgAAAAAADGsEMQAAAAAAQCgQxAAAAAAAAKFAEAMAAAAAAIQCQQwAAAAAABAKBDEAAAAAAEAoEMQAAAAAAAChQBADAAAAAACEAkEMAAAAAAAQCgQxAAAAAABAKBDEAAAAAAAAoUAQAwAAAAAAhAJBDAAAAAAAEAoEMQAAAAAAQCgQxAAAAAAAAKFAEAMAAAAAAIQCQQwAAAAAABAKBDEAAAAAAEAoEMQAAAAAAAChQBADAAAAAACEAkEMAAAAAAAQCgQxAAAAAABAKBDEAAAAAAAAoUAQAwAAAAAAhAJBDAAAAAAAEAqj7ly0+LJdLrjenjN2qVhGaco/jtbkCVL/G5f09mtFO5UU/H1f1slfXdKJv9nNoVauuoZ5qp87VZUVdpOOqXnFi9pn1wAAAAAAuFKGNBOjvH6MFvyXMbp94Si7JZNRmu48dsF/Ga0pn7ebEn1+lCZM8BbHfuUapwuOwahbtUxNS4IBDAAAAAAAho8hDWKc7/EyJcaWuT8y+/wojbWL/emyHP52Wb293mL/G5+p2HkfI1u5Jk/yltq27VTjimZ7IwsDAAAAADA8DHEQwy5MGKVxdjGtchvE6L2s8+6GVC7rxD9f1IF/ujjEQ0lGsO527dpPOAgAAAAAMPwMbWHPM5fVbxezljGIAQAAAAAArhajI1On/dguF1x/f0L4oWSUJt0+Sn83Vvrf/+IHJ0apvH60bvlP1+iGC5fVc9rdqHG3XqMv3DhK/e9f1l87zRZTSHOMbvv7a3Sj89jEW9lo/3GJbLs5Uu+hy/p3f3/fGK2pftvPO8fznrkvlVEad9to3Xaf83i7b/P4S72XdbH8Grcmx/9++7I+OWcfHjDutms01Wl3S/SYR9l9KW5fplbIl75xjcad/Sx6/q7PO/t2rtm/Jzy39/hRGvVB6v3m57wm/Md5mvcfuvXSHz7SWbsVAAAAAIDhIpqJUVJSoi/NmpX2Zu4ftL/FMjHGBop1Trh5lMZOGKUJ02MFP8eVecv9to7GoJkhLJ8fpen/OFo3m/3ZzcbYm6/Rl/7xmhRDXLwZSL50rzk+u8lhHn/zP3izoqTmBU6+dK8X5Ihxnudm5/kSipXGaoUEC546z/EN57HOfuILodpj6b2snmLMiFJRqiq7CAAAAADAcBINYpw7532lP2vWF5Nuhn//YPXbQpxRtzkdfbuYXCvjsvqj5Rli9S+Ctz+9kW2QY5QbeJhgpkT97aVY+9/a9hOu0Y23eYs+k7HhBSouqzfY5leX1NsbH9gIGrfwmpTtDjjtTrrnP0qTnWPxZ1Pxa4XEFTwNzrySajvDbAAAAAAAV5m4mhh/OnxYhw//2a55zLrZXhiXbRBjlMbaHvw4t4PudPY/cH5M8IZbRLMNHGlnJsmH0/H/4J8u6cQ7scDH+Xcu6QOzb0dcJsTnr9Hkm83CZZ381SUdDbb522Ud/Wc/IJHAaXfLV8zzJLczmSgnou1GabKfYfHOZ3I3BYM4bmHT2HWJ324yVLzVwihXpOEe1c9xFrv7lHJUDgAAAAAAV1hSYc9gIKOwAQxP/NCJUSq7xfnZ63TW3e2x4Ea6LIf8XdbJFy6lnIbVP6Y4/uwoH3ymE7kEUgZsd1knDthr4Jy7H5xwgzuBYEW5GVrjX5docMcP+hRomE31Am3d3qSW7cu0eclUVXYf0+6nD6jD3g0AAAAAwHCScnYSE7h46Q8vFzyAYUSnWbX8+g5njnj1MoJ1Ma7kkIlYsMD7ma2s2vmztESDFrEMlQnukJZRseviPk8suOPVCrms3ne89ULqcm4nvUUAAAAAAIadlEEM469/LUbVSIftwLt1Hmw9jN6jl2NFP03H/vM2m+EKBjGGWmJxTxPEcAMh0etlto/SBDPEpVDX5fgBrV7RrMYVO9W8p0+VFVPV9P0Fiti7AQAAAAAYTtIGMYomEKwot/UwvOKdyfUfClv3IT9xRTVzkLGdP+QkEIw4bzNRgsEdd8iIc716e53tZuhJ0YI7Z7Rv1w41H3IWmZ0EAAAAADBMDX0Qw+HPUOJnHfjFO71shFGa8J+8znrBplfNgx9U0M3XRGcRifN55/hNpCFBsF1wGtWYUZqywJ73+4FgRIrgjjdkxNnu18soSlFPAAAAAADC4QoEMfxOuZ3944PPosU2o9kIbnDAWU5VhXOo2AwIE3S4+R9HqzwQkBh322jdbqZrtetx/vaZTrqznXjTqE6/zQtYuD4/SlOc5/KnXz35WnyQxg9WTDDBnUC2xRkz3MYxYbr51zku5zoBAAAAAHC1uSKZGEFxWQU2G2Gs05E3Cjq9as4u68QLn0WzI27+hzFa8F+825fuHaWxvXb4SwpnWmPTqE64d3S03YJ/CAQwfpU4U4oN7pg2iXUv3LoYZnsxr0u5Jk9yfjDFKgAAAABgmLoiQYzYlKbJWQX+UJNh4W+f6e1fXdLJD4LH6BzzG5f0p3++pI/SDne5rBP/fFF/+u1nNpvDd1n9Hzht/+lSyulX/YwLwy126vOHmhgFr4cBAAAAAEA4jLpz0eJ0PfFB6+25kuNBkJtyLd+0TEvVrnXrD6jDbgUAAAAAYLi44sNJMMxUzFVDbcpSpgAAAAAAXFFkYiAq0rBcm5eU2jXfMTWveFH77BoAAAAAAFcKmRiI6ti1Q+v2HFNXt90AAAAAAMAwQiYGAAAAAAAIBTIxAAAAAABAKBDEAAAAAAAAoTDkQYyqqohdAgAAAAAAyB6ZGAAAAAAAIBQIYgAAAAAAgFAgiAEAAAAAAEKBIAYAAAAAAAgFghgAAAAAACAUCGIAAAAAAIBQIIgxrE3Sw3N/pLdrf6TdVbPstlz5z9Gkh0vspkEp9PMBAAAAAJAdghjDWcltumustxiZMlP3eYtFYAMTcxdppt0CAAAAAMBwQxBjODv3jl7p9xY7Tryr571F5CFSu0BrNy1Xy/Yme1uuraumK2LvH1i5lm+ybZ12mXj78vfj7WttQy77AgAAAACkQhBjWDulx9t/otv3/0RLOw/bbciNF3zYvHKuaipK7TajVJVzFmvzpntUV203ZVC3apmWVtiVDCINy+2+7AZXqWqWmH0tIJABAAAAAINAEAOOiZpmh60MmepYtsLWhnK7sfCiwYfuY9q9bacaVzTb20417+mTzH3H3YemZQITTXOkrj3tarPbUnLO6aElJlDSp7Y9O7XO39eGl9TW7WyumKvNA2RxAAAAAADSG3XnosWX7XLB9facsUsxVVURdXZ22LWR5b5bf6SflkmvHv2JHjptNxolk9xaE++eO+WtW97je/TMW816/JypS7FSD6QJJnSc2KalnfHt4zn7mFinzVNmKGKfo6Nnv3554mVpSnA/3n2auEy7A4/NqKdVt7/nZ4L4xxk77vtu/Za+W1YWzTIw+1333st6166nUreqyQ0MePq0e8MO7RggmJCz2nvUsnKqs3BMzSte1D5va2785zj0khpbJ2jrxrmqNMtPHLUPiPHPqWvPTq3elfjen6612xerpljnCgAAAABXATIxCuiD8z3uz+qxk9yfHqfTP2OlWmav1O6q+O03jXN+9L+n3/mBhbx5gYWW6fFBiUhZrX46u0nfNftJIasARibjZulJZ78/DQQwDLPflmFQJLTuyyaAIbVtyzOAUb1AW/0gSIqgRbzp+ooblDmm1qQAhnFUu0zmh0p1443eFgAAAABAbghiFNC7/V7nNTJuovvTFZxhJNX286dtxkKs/kXw1njCC4xkct+tfgZHj149ui3W9q1WvdpfljpYcXpnYD/O48y2/v1qjG4L3KJZGEFlemB6ve4wGRnBfR494t09tlYPBk430b7Wdm+IhaNrz94iZCbEggpv7Hd+VE/X8lWBwp6bBiq2OV1rTdZFtlkc1RPckSk69Je4xwafv6PrrPuzorJ4w2cAAAAAYCQjiFFIp9/1ggHjJsayEMaVOx3ZI3rVxCKStjsd2/PBcSd5KFmk75aZBW94x0OnY0NO3j13WA+1b9MzdoaTgus/okf3N+vx4D5P79SjNu4Sn5GS4PgBPbbeqxmRPPSigLr71GkyKjYu1tI5gcKeFbbYZsoaFaYYqD/0I8ssjhtLVen86Orq9dbd4SNN2hys+fFRn7qcH5WVE7x1AAAAAEBOCGIU1Gl9aAIGY8t1s7dB95XNcDr7Z7TXDDUZe6u+XuJtn+k8xjjen6nORRZsMEQ9r8XqXQyJHj1zZGfKaV/9YTVXlJ8Zoal6yGRUdB9T8wa/qGez1m075gYUNGex1ta6D4zyi4G2bRtE7Yram1RjFwlaAAAAAEBhEMQoqFP6y3nzc4budodS2LoX50/reXeoSZmm2foUN48z6RNHtHeQiRh+MGTQGR0jVUWpW4hz3foXtS8QkOjY/6JWbzvmLtd8OZaNEZuJZKceM8NQchQNWOw/qN3ucJk+tf1xoHoaAAAAAIBsEMQosPjint7UpW6A4fwZmTlZvO2zdLeJYfSf0QfODxTB8V55JTe8opwp58Oxwzs0aYKtXTFdDe4UqVLlkmWx+hn+za2R4Ziz2G67R3Xuox3+c0Wd0Q53uMyOWDAkacgJAAAAACAXBDEK7N2e99wOs1vEc+JM3eEsu0NGzr2jV/qd7eW3aWbJRFWbB0eLeg5eXNHQfAWGwYRfrz6yhUOHhB80mXNTLLCRIFI53v3Z3VXEGiAAAAAAMIIRxCi0c6fljloYN1H3uUM9/CEjdqiJCRQUqqinww+aqGym7nO3JCjxskGyU66bbM2OoqteoLWbvAyHaOHLgjqj19vNlKZT9ZWEmhe+yPypXmZE+wc2U+OoHrM1M1LeNrR72RaHXrLbgkU/j+qNQ+bnVNWnPB8/y8POlgIAAAAAyBlBjIKLFfe829S9CAwZeb7HTD/qbLezibzSM8iinobN8DB1OH46d5nuCwQhZk5cpt2z691skMwOa687CqZMD8xYFPccKpmk+yZmmGUkT3X1c1XjVd5U5ZK7tdxNTSmsjl1tanN+1qxMnE61XHUNy7XZDSr06eCbhcmMMNPGurOPLFmmrcH9VU/XWne2E0fCFKwAAAAAgOwRxCi4WHHPO0ywIjhkxK2LUeZsn+GsnNFfCjKbyCk9fmS/l0kwdoZ+OvtHervWu7VMn6FIv53edQDPn/CfozbuOd6evVI/nV6XOstj2Duqx9xZSOx0qtH6FsvUZAMYg5qBJNHxA3pyj8n+MIGMwP42LvYCNt3tWvcERT4BAAAAIF8EMYrAy7jwvNpz2C45/KEmRiGLep57WUvfatUzPcFoRY9ePdGqxvadeiqbKU/tc7zaH//Yjv4jeubovpRTqQ6GyVposzUruvbsLVwgIZGZhWTDS9p9KL7wZpc75Wqg6GaBdOzaoXXbzLl5wQxPn9r2mBlSDthhKwAAAACAfIy6c9Hiy3a54Hp7ktP0q6oi6uykKwcAAAAAAHJDJgYAAAAAAAgFghgAAAAAACAUCGIAAAAAAIBQIIgBAAAAAABCgSAGAAAAAAAIBYIYAAAAAAAgFAhiAAAAAACAUCCIAQAAAAAAQoEgBgAAAAAACAWCGAAAAAAAIBQIYgAAAAAAgFAgiAEAAAAAAEKBIAYAAAAAAAgFghgFN0kPz/2R3q5t0sMldtOQ84/hR9pdNctuK5ThcH4AAAAAgKsRQYyRqOQ23TXWW4xMman7vMVhxAZC5i7STLsFAAAAAICBEMQYic69o1f6vcWOE+/qeW8Rg1Ku5Zua1LLdua2abrelFqldoLWblnuPdW/LtXXVAtVV2wek4bXz23jt1jZMV8TeDwAAAABXO4IYI9IpPd7+E92+/yda2nnYbsNg1K1apqUVdiWDulXLtXnlXNVUlNotRqkq58xV08blWp4mkBFp8NvZDa5S1SxZrM2bFhDIAAAAAAAHQQxcARM1zQ53yVl1LFtha0O53VhcJsDQNEfq2tOuNrstJefY6ueY4EWf2rbtVOOKZnvbqeZDfc72Ui2tT5HF4bR7aIltt2en1vntNryktm5nc8VcbR4g+wMAAAAArgaj7ly0+LJdLrjenjN2KaaqKqLOzg67NhKZeg8r9cDYHj3zVrMePzdJ9936LX23rCz6bXpHz36te+9lvWvXk5TM0sNTFuquYJv+I/rlkZ16/pzdEOXvz64m6DixTUs7T9m11GZOXKbNU2YokiGwEHuePM/P2cfuAfYR1dOq299LnUFSt6rJDSh4+rR7ww7tOG5Xi6H2HrWsnCodekmNrRO0deNcVZrlJ47aBwTYx3bt2anVuxLf+2Y4isnmOKbmFS9qn91q+OeUut10rd2+WDVDca4AAAAAMMyRiVFM42bpSafD/9NAB9+IlNWqJU1Ry5lVTXp7dr0eSGwzdoZ+OtvMNjLJbimM+25tUsv0LIMLiXI8v7z2cSVVL9BWE8DQMTWnClrk5IxOpowlTddX3KDMMbUmBTCMo9q1x8viuPFGbwsAAAAAXK0IYhRNmR6YXq87TMbC0W1ufQpzazx6xLt7bK0enOgtRk1cppYpZc5Cj1490apG28ZvZ/JXIlO+lTC1aaz+RfDWeKLH3p+Bsz8TgDD7iz/G/e6+pCN61G5LzubI8fxO74w+5vb9rXrVbOvfH3eO0VuaLAxjX2u7N8TC0bVnbxEzE6Zrrcm6MAGMhMyJtPYf1G7n2CqXzEtRxNMGK7r71Olt8FRPkFsG49Bf4vYRDAp1dJ11f1ZUDs3wGQAAAAAYrghiFFO/CQI06/HTsQDAu05n/lEbX6geG8yqmKSHp8xwl1492qyHOg/HDccw7Za6AYIy3VVWmGyMmWO9TrHZX/wxvmz3NUN3JwZagnI6vwI5fkCPrfdqRiQPvSgUM/TDH8KRZQDDdUY71pv6F+PVtLHJzkjiXGPn5j2f1PbCARsgsm4sVaXzo6ur11t3h480aXOw5sdHfepyflRWTvDWAQAAAOAqRRCjaHr0jKlhYdeCPjifIkui5DbdZYZb9O/XU6e9TUlOv+tmMETKb0s5FKUY0gcicjy/EPFnImnblkcNiuoJ+sokb2YSb0aSZWpxbksrvGKfj+1370qv9iY32GEQtAAAAACAeAQxhotx5d4QgrG1aqn9kd5OeavXHe6DC+Pdfi+T4Y7py3RfcIhKySw9Od3LCjnen7KQw4gVm4kki4BDIlPYc6PJuDim3RvM7CQ7tW6bGf5ialpIFV+eEDdMJCgasLBDUtyZSv442DocAAAAADCyEMS4mkWHfnhFQ6PBktk2WNLTmj4rZESargZ3qlNT12KZO41r3M2tkeGYs9huu0d17qON6VprioB2t2vd+he147gJEJ1Rx34z/GWHGje06eCkxdq8KdjGYYeKxJghKWa4zI5YECVpyAkAAAAAXJ0IYgwX550Or/lpphdNVewyeGvPMD1rzryhH/GT3trCou/F1+UouLHlutkuhp4dBtLV/kHCtbSOH9WOp9vVVTFVTaum242O471yEy/m3BQf3AiIVI53f3Z3FasGCAAAAACEA0GM4eLcO3ql3/lZtjBh9pEicmcnkZ556ydaGhcoSS4sWhzluinXc61eoLWbvMyIaOHLgjmqx1Z4RUNT3ja0e1kTh16y25KLfmasY2EzKuId1RuHzM+pqk95Pn52yDG9kevwFgAAAAAYYQhiDBun9PgJb/aRB2Y36cmqWZoZ18GfpPuqlml37TLdZ7cMljc7SZmmFWi2k+wd1l43AcQ51xmLEupxOOc5Mf3x1NXPVY07J6kZ8nG3lidNZXqF7P+L2szPOYu1ddV0ReKOq1yR2gXaaoabOBKHhZhpY93ZR5Ys09YGp623WaqerrV2VpPEKVgBAAAA4Go06s5Fiy/b5YLr7UlOf6+qiqizM2XC/QgxSQ/PXakHxvbombea9fg5uzlgZlWTWqaUqePENi3tjC+c6d+XVv8Rd1aQVM8blGkfUSWLtHt2bdpik0aHs79XTuwLTKM6uPOLyrhvM3Vr6plP6lY1uYU3PWYK1DxmEMlX9QJtNXUxTCbGEymKbtbe4wYqkrMtAtyaGQnTrDpMQdHNth5HkjRtAAAAAOBqQybGMPNuZ7Nuf6tVz/T0xHda+22divaBAxhZO/eOfunsJ5PI2Bl6YPpKPTnRbiiUcy9rqXOerzrnFWSCJs8c3ZcygGGYrIU2t4iEmUFk79AFMLKx/0Wt3rBTzXuOqcseo6+r+5h2b9uZNhjRsWtH3Ewmnj617XmJAAYAAAAAWGRiXLVsRoX2qzFtodBJuu/WlW7djIxZFQAAAAAADAEyMa5WJbfprrFSx5l3MhTwPKUPzmfO1AAAAAAAYKgQxLjKRaZ8S09OnKSZdt03s2SWHr7Vr89xRL8kCwMAAAAAcIUxnOQqdt+tP3KHimSUZSFRAAAAAACKbXRk6rQf2+WC6+8/b5dibrhhvD7++Kxdw5V09Mw+vfrpGE0cVyL93TiNt9sNU2Dzfx77n/p//+UNvfDvdiMAAAAAAFcQmRgAAAAAACAUqIkBAAAAAABCgSAGAAAAAAAIBYIYAAAAAAAgFAhiAAAAAACAUCCIAQAAAAAAQoEgBgAAAAAACAWCGAAAAAAAIBQIYgAAAAAAgFAYdeeixZftcsH19pyxSzFVVRF1dnbYNWQ2SQ/PXakHxkodJ1q1tPOw3V4s2ezPf0yPnnmrWY+fs5sHUrJIu2fXKmJXo/r3q7H9Zb1rVwEAAAAASIdMjOGs5DbdNdZbjEyZqfu8xeIZ6v2NWOVavqlJLZsWJAdtAAAAAAB5I4gxnJ17R6/0e4sdJ97V895i8RRzf+de1tL9P9Ht0VurXrV3AQAAAACQDYIYw9opPd7udfqLP5TEGOr9AQAAAACQPYIYuDpUL9BaM8Rje5O2NpTbjcUyQTdW2EUAAAAAQMFQ2LPAZlY5HeUpZXr16E/00Gm7MYlfHPOIHt2/0w7biBXVTKXjxDYt7Txl11KZpPuq6vTd8hmKRJ+jRx09r2ndicN6N6kAZ777iy/s+TvN0oMzFuqOsWXe3f09evXE/3DOPdOxGrP0ZG297silsGfJLD08ZaHuKiuL1pro6D+iXx5xruEABUbrVjWpaY5dUZ92b9ihHcftaiHU3qOt35iqymyCF4deUuMTR+2KJ9KwXJuXKHZc1dO1vL5G8+aUqtJ7iLqcdk867dzfnuoF2rpxriq727Vu/QFvWxxTl2OZllZkONdU++g+ptanX9S+Ql4bAAAAACgQMjEK7N2e99wO5R1TFmmmtynZxDo3eNBxYl+B6k7M0pNzV+qnU4IBDMPp7JfVq2V2k56smmS3Fc60KU3Oc9fHAhiGs3zH9JV6+9ZZdkNhmODQ286+HggEMIzI2Bn66ewfaXcRzi9XWQUwsmACGi0bF2tpILhgmOVChf/S7qNiqpo2DkW2CgAAAADkjkyMght4CtL7bv2RflqW3RSlfmZHpkwM/zHqP6JH47ISJmnmxDptnjJDOjNQJodn4P3FZ3B09OzXL0+8bPdpskG+pZ+aY3FkzkbJIRNj4jK9Pd05B5ksj9f0VOfh6ONnOvdtdu6LOPdlvJ5mOMn356qmQuras1OrdyW/NwtnutZuX6yatFkSybxMjFK1HTqmmjlTpe5jan76oPYd94+zXJHqM+rwMyQGk4lRe49aVjr7UJ/a9rRp1y6b3eGIOPc95NxXWYxsFQAAAAAYJDIxCu6UHj9xxPlZpgempMhGKFmk75o+fv97+t0AAYxcdZzZlzCs4pTePb1TS9tNoc6BAxi5cgMd7/kBDOOUnu9sVuOJHnftjrJCZGNM0sMmCON49WizHgoEMAz3/I561/uusgzZGMcP6LH1zrGtaC5yAGNwTADDBFka15shHcHjDAQwBqVcy79hAhhS27YdeiwQwDA69r+o1duOOUulmjefbAwAAAAAwwtBjGI4/a43fWjZTN3nboiZWXarOxzi1RNZ1oHIgj+EJTLlW3qyapZmlnjbi6tHr/SkDoz4x6NxE9MPqclWyW26y2R99O/XU+myOuz1jpTfNvj9XWmHXipukKX6Zs0zw16627Vrv7cpyf6/qM35UTn35rihOwAAAABwpRHEKIrDesrNRpihuyd6WzyT9PVyk4ZxRHvTDrPIw7mXtfSt/Xq1v0x3TDE1MH6kt2ud21xTC2OoghopjC3XzXYxb+PKvY702Fq1mHNKeavXHe6Dw6+rq9cuFcmNtgZGxVxt3t7kztaSfFusGvfBAAAAADC8EMQokpQFPgte0DPg3Mt6qP0nuv2tbXr0xBG92t+jDlNk0wY1dt86K/xZCgAAAACAqxpBjGI597J+aZIxxt6qr9tMiPvKvOKU6YZhFMQ5U5dipx5qb9bS/Sao0apX++XOUrJ5qGbw8LMn+s/oA3fDIJw/4w1N6WnV7eZ8Mt2ynap1qFSUqsouDhsf9anL/DTTvK7waoSkvWVZlBQAAAAAhgpBjCJ6vidYcHKW7i5SQc+ZEzNkWZw7rIfcQqNSZFzc2JZBKtO0cXYxTqwQZ8eZdwYOKgw05OTcO3ql3/lZtlAPD2ZYjJmdZJM3XGLopg8dr8nVdrHQjveq2/xMEyiJNNytpammfD3+gQ6ahnNqtLxYxwYAAAAARUIQo5hO79MzJgui/DbdN3GmW7ehkAU9XSWLtHl6vVpqm7whIyXx2RYzS2bpSXd6UqnjfCELcUh3TP+RdpuaG3Zdzr5i068e0S8zzohyWh+a4IRm6LsJz3FfXLAiMNvL7FQ1Psy0rsu0u3ZZUhHVoLp6b3pVo3LJ3UXuwB/VG4fMz1It/f4C1QX3VV2uutpCBFF69ZEbxZiqplXTYwU4nedfvsqbrjW1M9rxgjf7yNKNy7W2wWkbdy2c42u4R1u336M6uwUAAAAAhotRdy5afNkuF1xvT/IsC1VVEXV2Xj1J6jOrmtQyxaRgGEf06P6dOdXD8Nu705mmCQrMnLhID06p1R1u8CCN/v1qzGK4xcD7m2QDFT3q6C9TJOU+e/TMW816fICMk/hrE2CGjrx32K540j7W139EzxzZmXafdaua1DTHrqhPuzfs0I6CTFmaRvUCbd041yuimeSYmle8qH12zYg0eIEHM71q1rOT1N6jlpXedKmJzPO0Vi5zzjn1ufr7S6v7mHY//WJxrxEAAAAA5IhMjCJ7t/M1b7pVR1EKejrePe0V9Ww8amYoMYU4YjpM5/7otqwCGDnpf0/r3H0ecfZhtzk6evbr0SwCGMa7nc1qPOG0t+suc7w9yRkj5rGmvsczPT0Jj+/RqydanfNLH8Aw9rW2q83NXDAd/L3F75wfP6DVG15y9tlnN3i6THBg28G4AEbe9r+odduOOc9p1w3n+Zs3NLuBkM6u+H0HdezaoUbn+HYfsjUyfM7xtu15SevWE8AAAAAAMPyQiQEAAAAAAEKBTAwAAAAAABAKBDEAAAAAAEAoEMQAAAAAAAChQBADAAAAAACEAkEMAAAAAAAQCgQxAAAAAABAKBDEAAAAAAAAoUAQAwAAAAAAhAJBDAAAAAAAEAoEMQAAAAAAQCgQxAAAAAAAAKFAEAMAAAAAAIQCQQxgJKpeoK2b7lGdXQVQeJGG5dq6arpdAwAAwFAgiDGsTdLDc3+kt2t/pN1Vs+y2AilZpN3O85rnjrvNXaSZ9iEIqdp7tHXjXFWa5Wp3C4AiqZyzWC0EMgAAAIbMqDsXLb5slwuut+eMXYqpqoqos7PDro10JgixUg9ovxrbX9a7dmvWTKBhdq0i7soRPbp/p553l9PJYX9xzx3Qn+exQmMmb1FZZYVdy8Knz6nncIsu2tWCMBkYbgDjmJpXvKh9dnO8MVq+rFRLxzuLZ89r3c5zcn8jb7leLXdda5bU9sppPfa+u5gkckuJGuZcq5rxo+0WqevsBbX+4RPt67EbMEIE3itxLjmv+UUdPHReO94v6Dv4Chjk70PDcm1eUqquPTu1elfy/3kAAAAoLDIxhrNz7+iVfm+x48S7AwQwcnTuZS3d/xPdHr216lV7F4ZI/8nCBjBUruXfNwGMPu3ekC6AkcDpiCaHFC/po167mCAyf4I23zUuLoBhVI6/Vk33T9TWr12bHBjDCDTafc2X3lWqlmUlI+c1z/H3wejYtUPNh5zfgSV3azmZTwAAAEVHEGNYO6XH270gw9LOw3YbhquLJ9forwe/HXfr6ep27/v0w/jt7u2D19z7CiXScLeWVkhde/Zqx3G7sZBuuV6bZ5vgxSW1vdKnxl+cjt7WvXJebWedjlykRF8t8x6OkeSCmgOvd+OzfWp+64K6zF3jx2nzSApk5GHfEy+pTaVa+v0FBPEAAACKjCBGUU3UtLF2cUgM9f4GoXqB1m5qUsv2Jm1tKLcbR54xY83wkm5dshk1xTNdDUtKnV2168kBU9ov6uRZuxjUe8nrlKZRN9VLre966xM9ljCEoOP9c3psZ5/WPdurHQwpGfl6Lmrfm59o9bPno4GMhlvce0Iov9+HeEe1a0+fVDFXDbV2EwAAAIqCmhiFNnGZdk+ZoUg2wYSeVt3+np9hYetZpGnXcWKblnaesmsBee8v0Sw9WVuvO3KpiVEySw9PWai7ysqi3z529B/RL4/s1PPn7IY06lY1qWmOXXGHP+woTvaAK6Lrbv6hSkorNMZuudj3nM51tejTsWv0hWmVOvfnNfq38/ZOa0xZo0oq5+m66/w6F91Ou4Neu4THprZQN8x7UNepTR8f3KJP7dZ0vJoaih3LOKf9TfWx/X/qPM9fnOdJte/ae9SycmrW4/LrvjZRTc6L1vVWn1a/aQMSZSXaev84Vbrfun+SNBwlZZtclF2r5TUlmhcZ7RUddQxcS2OMIreM00NzrlWlrcvQ1XFerW3n1HnTBG2eLe0OBk78cwjWNojj1z+4FN8uKKfjtM8nf39jnOt0veqDbZ3jffL3qY7F55/jGOcc/WE6Tge645zT7kL6dnldz1z51yv1e8JwhxiZDJ101zyH4/TeY2Zf5zXZuY5LnTZe5k+vHnvfOZakbW6zOF7NFjPkyW7I4lrm8/uQxK9Hc+glNT5x1G4EAABAoZGJUQRZBRQKaKj3Z8ysatLbs+v1QCCAYUTGztBPZ5vZVCbZLVfYuEaVzfuZbggEMIwxpd/UDV/c4myvcda6dDExMFC2RmXTvhkIYBjOc/jtyoJnnca4yd4++94cMIBheFkb3rGYgMYXvvhg/P6vc25pgid1X57q/Nung29mV1iw8+wl92d3XyAY0XNR7uAX575Od0O8fccuuD8rZ49TXY5DRkxHt+V+rwPqd2SNaC2N+cFXx+d1oDffFQtgGJWRcU6bCXooi5cgV/kdp2P8aFU5nfW1zvE2JbZ1jjftcAvbxjtHP4BhOM8RuV6bvzdBy1Nc67yPswg6/uIPK3GugbslJt/Xvd4ETpw2ntGqmVOi5V9L2HbX9QlTCJv3y0Rbs8VucmW+lkY+vw9Jjn+gg6bBnJuY2hgAAKCICGIU2umdycUyTXZDdFvgFpcVEat/Ebw1nhjgK9W89zcIE5epZYrpDfTo1ROtcftqPHrE/bYzMuVberjEfXRK+1rb1eaViyheDQeTCfHFb3qBhE+f08d/jtWj6PmwTRdVoetKzX2JBTYj+g+VJrjRrU8/fCRQx+KRWLtpP9R/GOc9Oq2xXhDjYv8Jbz2jiMaYYJQ5FhNAqazQxb6n1BM95kf08YfPpgmGlGuyGzM6q5NZXseOYGct6pI+SpVW73v/EzW7X2V7HdCWZddr+S1ZdJaDtTTe+kTrArUV1r3idYArZzvPldDBrDOdVrczGl+DY92zpv6G0zFNKC46aHkep8dck+udzvMl7Q4eq9POlXK4xbVa67ZxFs9eiGvX+Au/5sRo3TjBe3TUoI6zCHou6KD7vhmjycF95n2c5rU1mTLeddhtntu5fksjCduc6/eVwDWNzL8+5ful8dlP7ONHa6lzvVMFGPL6fUhyRq+39zk/x2syBT4BAACKhiAGcjRJD0+Z4S69erRZD3Uejht68u7pnVp69IizVKa7yjJkYxw/oMfWN6txRXPRpiW87mYzlMPR95T+ejh+CMjFni1uQMKVbpaQTw/qXE8wAb3Da2cCCimGnyQac5333fPFT9MlsQdN0Wj3YOfphmmVbvCk54PXAhkiHfo07liCJuhGk7DR3ZfdN8ZRaWZdOJtqhgbPvt87HdBoQUc7O8X3Jmjt/HSzkozR8jn+NJW9euzN+JT+jvc/0Wq3oz9a824KBETKSlTvPqE37CNYg6Ojx9Tf+MQtJFo4eR5n0Fkz7KA3bspR084L/EgVpfHtIvNLZEJl3jCMTxKmKvVrTvQlDJkowHEWTTDgMrjjNHVXvKE+F/V6h5clEdyWVMPCeb88ZAMmie8XE2TZsTMW+KhPm6WS++9DaqW68Ua7CAAAgIIjiIHclNymu0zGQP9+PXXa25Tk9LtuRkik/DbN9LYMvXGNKnGzLJ5zgwGZfNqXeH+HLppCnNd9UzfcvFBjkjIuOrKqiZFTUU9/6Ml1Fbr44Rp9nDZgUSBOJ7LRdLjjEn0uOp2902r8vc0eSKPDdK7db9O9GUlMR7RmtpeuvzYxM6PsWs1zMw3Oa1eK+gWu9y/IhJMqI4FAyAQ7/KDjXOq6FabDaZcKIt/jjHI6z6bGg10L8ocqxBujr7pDI0y7DPUyehLCa4M+ziEyyOOMG9ZhBbclXdMB3y/Oe/uQ975OeV0G8fsQ1NFV0MgaAAAAUiCIgdyMK/c6AGNr1VL7I72d8lavO9wHXzljSue5QYGLvQecrkhqXqZE6iDDpx88oo/7up3neVBlX/yNvjBvi26YvNALNGRloa41QRSlqLeRij/0pMvZb8pO2PDjzUhi0/Xdb8tNnYJSrQ0Om/A7l2Yazu9NVEvK2/VeRkJAxGYtdKUMABRBnseZv9G60R36cFEnc3m9h/w4cxHIZBji48zq/eLPNpKidgcAAADCgyAGRiQ/C+JCX7rvuCO6bkKskGayDn36wRr99c+P6OMuWwej8kGVucGMLL7fzrGo53VugdFMxzuMmXT93/dq3VteB9IUYbxiGQAYen7WRa4BmREoEqxACwAAgKIgiDEUxpbrZrs4JIq5v/NnvNR3M11roKBnylu2U7VeEbYGRVJRzwTnO5yHmDoY39Zf//yUPv3UBDOKVNQz26yNJL36yBRJrSi9ot8wR2epCPK//e4w6fq20GK6W4rpOQtevDOdQR5n/hKKYQ7kih1nepGbrrVDOS7EhtNcoePM+H7xs0OynW0kb336qKBjnQAAABBEEGNIlOumDDN1FN4g9jdQAOTcO3rFDL8oW5hx9pEBVS/Q2k1NatnepK0N5XZjoVVodMrpZyOxop9JRT0XenUw7Fqc86+5WRnpnzcmr6KeAwVU0jqjk6fMz+LOilD3tRQ1L4L8TmKQP3NFpCSn2TKiAZHItamnqyzzh2Mk8KfFTDNkIDaDRYI8jzN/F/SG+9YYraV/nyFzpWxM/H1DfpwDiBbUlNrsFLyuIT7O2Psl3f5ihUa7OuKLjBZOub4614why36WIAAAAOSOIEZRHdZeN726TA/MWKT7gp3+kkm6b2KG2TvyMpj9ndaHbm2IGfpu1axYQc6SWfHPY6aCPeHNPvLA7CY9aR4bd7+zn6pl2l27TPfZLanU1c9VjRnN4ahccreWF7jzfbHfm7/1umlrdF0ga2JMWaNumPUz3eDWq0gu6jlmcr2uM3UwZm3RDWWR+GDGuIW6wZ16dWB5FfVMN0tKFvb98Zjzb6nmzS9SQMidLcSrebF12fWqczrXQZFbrtfWu+xsFIeC36z7BRXN9JZ2FpO4TuYY1c132n4vYepLvxNspi519+dudbn7MlOT2vV4/rSYTruvBQo4Ose7/GsT7JSfqeR5nIOwr+281/E2dSOSpqsdY8+zVJud84gZ+uNMybme7n7uH2ezMD5JmEVliI+z55xa/aCQ2V/wWpZdq+XL/Ol6L6j1zXx/ywZQfbPmmV/7Q39JWeAVAAAAhTHqzkWLL9vlguvtSZ46s6oqos7O4nwPNiyVLNLu2bVpvmk9okf379Tzdi2VmVVNaplSpo4T27S00/26PbNB7M/fVxIzdOS9w3bFk/axvv4jeubITj1+zq4nqFvVpKY5dkV92r1hh3YU9NvLhbphns22SPRpm871VqrE6X2dSzFV6pjJW1RWaSMsqfQ95U1/aleT+ftu08cHtwxcE6Nsjb4wrcYt6tlzMt/fjelau32xarrbtW79geJ801xWorV/P041GYb9dzmd2dUpZnOIzM8UQHCcveDO7hE3O4Szv2gnOZHz+Laz16om4k2pGdfO6fy32IBKoq63+tQ6vlRNqdo5cj/OMbaDnPr5DP85zb5XJ3agM52jq1DHmS///OxqCl0d5/Xk71MPCcn1OOu+NtF5bcy0rKejQRH/OQbaNvCxpn+NCiHSsFybl5SqbVuzHttvNwIAAKDgyMQotnMva+lbrXq1P/6Tc4fp5B/dlzGAkZdB7O/dzmY1njgS3xkx7XqS51I1j73d2c8zPT0Jj+/Rqyda1diePoBh7GttV5uXLKGuPXsLHMAwXtPHf35K5/rsToxPu/Xph4+o5/CzUoainhdPmoKeXttgl/Oi3z5jAMORY1HP3IaepHNUu/b0SRVz9VCxhuf0mNlI+rTulQtKnEmyy+mMNj/rdNLTTEfZ8WZvdBYTN/vAd/aS2t76ROt2puhwO/tbHZ35xOc//rw+StdZfd+5P/EY3eM77QYRUk956snrOAfDnOMv+tT8VuI1dfbf4ewvadpPz5AfZxJnv9HXPH1Ni6E9Tm9K1NjUv77M17IwpqthSanU3a5dBDAAAACKikwMXIVspsSnz6nncEvmgESolGv5pmVaWlGMzJbhZuAMCGCoeJllV8PvHQAAwJVHJgauPgWoQTE8ndGOp9vVJadzv/Ge4tZEAOAyw0jM0LjiZJQBAAAgEUEMXH1ymv40ZI4f0Optx9SlqWraRCADKCa/DoYOvaTVu5IzDwEAAFB4BDFw1fFqUHTrQt8IHda0/0Wt3mAyMhxFnHIVgNR16CU1PnHUrgEAAKDYCGLgKhPRdRmKeo4YJiNj/YvaR3o7UDQdu3ZoNQEMAACAIUVhTwAAAAAAEApkYgAAAAAAgFAgiAEAAAAAAEKBIAYAAAAAAAgFghgAAAAAACAUCGIAAAAAAIBQIIgBAAAAAABCgSAGAAAAAAAIBYIYAAAAAAAgFAhiAAAAAACAUCCIAQAAAAAAQoEgBgAAAAAACAWCGAAAAAAAIBQIYgAAAAAAgFAgiAEAAAAAAEKBIAYAAAAAAAgFghgAAAAAACAUCGIAAAAAAIBQIIgBAAAAAABCgSAGAAAAAAAIBYIYAAAAAAAgFAhiAAAAAACAUCCIAQAAAAAAQoEgBgAAAAAACAWCGAAAAAAAIBQIYgAAAAAAgFAgiAEAAAAAAEKBIAYAAAAAAAgFghgAAAAAACAUCGIAAAAAAIBQIIgBAAAAAABCgSAGAAAAAAAIBYIYAAAAAAAgFAhiAAAAAACAUCCIAQAAAAAAQoEgBgAAAAAACAWCGAAAAAAAIBQIYgAAAAAAgFAgiAEAAAAAAEKBIAYAAAAAAAiFUXcuWnzZLhdcb88ZuxRTVRVRZ2eHXUPoVC/Q1o1zVWlXo7rbtW79AfHKBpWrrmGe6udOVWWF3aRjal7xovbZNQAAAABA9ghiFFmkdoEavjFVNRWldovUdahdra0HtO+43TAMZH2cBDGyVreqSU1z7EoUQQwAAAAAyBdBjKIp1/JVd2vpnFhQIF6f2rbt0GP77eoVM9jjnK612xerhiBGAue6blqmpRVyrt9O5/ol/y4AAAAAAHJDTYyisB1YNzBgggA7tW5Fsxrd20417zmmLpWq5svTvYdfMWE5zhDrbtcuAhgAAAAAUBAEMYqhdp77Dbw7dGCDyWI4E8hQOKN9u17U6g071fjEUbvtCgnLcQIAAAAA4GA4ScEFhxE05zBcxLaTNyxD1dPV8P2aWI2K7j61vbA3xbCEQbbL+TgT5TGcxDnG5fU1mjenNFpbo6v7mA6+cFA70mYtpCqS2aeuQ216svWoOtLWF8m33eC5NTEmMcwGAAAAAApldGTqtB+bhZKSEs289VZ94QtfSHn7t3Pn9O///u9uo2z195+3SzE33DBeH3981q6NQNVf0j/eV6HP6Zha/+sHyr6PPE6zFn9Rt1Z8qtLqefqH5V9U5efG2vscznJlzRf1n6s/1v/9Ro/daOTZLu/jTFSm2vppqvy3br30h4+U+ZUt1/JVS/Woc4y3Vox19h3zuc+V6lbnOKeePqh/OWE3Rk3X2k33aencUudxdpPLeY6KaVp8182a+nen9C/vJL7f8m1XGNUL5mneLZ/qaOtgri8AAAAAwBcdTnLu3Dn356xZX0y6Gf79GMCNNrvg0F/ynIFiqmrmlLozgzRvCNan6PPunrNYa2u9xXg5thv0cebBDF8xx9hthq/stMcYf5w1K+9RnbsUE2kwmSXOgtvOb+O1W7ftmPN8pYomWQTk2w4AAAAAMDzF1cT40+HDOnz4z3bNY9bNdmQnUjneLuWva89OrX4iOLWpqU+xQ+v8jn6aQpu5tCvEceZs/4tat6FZq9e/6BxjcNiId5zNh8zyeE2udjcm6Wo/mDAt7Rl1OM+5er3znLvSDUPJv13+yhVpuEf1ZnrV7j51ehsBAAAAAIOUVNgzGMgggHEl9Ongm6k71h1vmtlCHJMmKOJuCcq33dCK1qCoLldd7QKtXbVcWzctV8v2JjWZTr9KdeON7iOi/OOvXHK31jZMVyRNkCNRvu3yVr1AW53zaNm+TJuXTFVl9zHtfpp6GAAAAABQKClnJzGBi5f+8DIBjDx0dNmqEMUMGFSUqsou5iTQbkiOM4WICVxscjr6G5epaeVcdwhMpV+ENJ3jB7R6Q7vauktVs2SxNm80gQLntml55uBEvu0KxARQTnqLAAAAAIACSDvF6l//+je7hJx81OdlPeQbaBgqV+I4a+/RZhO4sHUq2va85NbGWGfrY3jDSdI4fkCPrW9Wo/PY5j1O227n+J1j94MTW1dNTx2MybddPkzQxNbcMDU+Kiumqun7C6549gsAAAAAjBRpgxjI0/EPdLDbLExVfUO5u6lg/GKcudZZSNWumMeZ0nStXTnV+dmn3dt2qnH9i3ps11G3NkZHXH2MATiP3bfLabt+hxcw2PCS2pzzqJyzWA9lOo982+UlUONjuAezAAAAACBECGIU3Bm93u4V0jS1GJanG7JQPV3La1N3nhNrQnjKtfwbJghgClV+kLLOQm7tBn+ccbLtrHcf0+v7UwUtyjXZLiWK1GbIljh+VI+9cMxdrKyc4P705dsOAAAAADA8EcQogo5de7XbzXIo1dKNtv6Ce49R7nSu79HWjYu1dGWq4EGpalYmtDGBhE3LtNSdD/SYWlPOqJF7u8Edp69XH0UzOuL3XZeqTcVcPZRqP+Y43cKeCaoX6KGVi7V5+3Jv6Ed1fEAl4uzHy/CQurp63Z+ufNsBAAAAAIatUXcuWnzZLhdcb09yZ7uqKqLOzqthvobyQAAhlT61bduhx/bb1cDju8wwh5Tt+rR7ww7tiJsuNN92vlyPM1mkYbk2L0lRnPPQS2p84qhdyfA4o/uYmtulpiVTnf01x+3PFANt+IatpZFOd7vWrY+fCSTfdoVhr6uK9fwAAAAAcPUZHZk67cd2ueD6+8/bpZgbbhivjz+2M2OMaOf1r384qD+eHq3SyutU+bmxdnufug69q//+9P9XO+ImfxmnWYu/qFs/16eX/+kZbf+gXLdVlupzn/Pu7TrU7rbZkxSIyLedL9fjTHb2nX/VH//O2e90Z792mwlK7P5//qJ/PRF7D7iPOx1/fO7jWvbqx8/8ScdLb9F/rilVd/tB/csJe7/j7ImP9C8pj9EEbo7pZaf99meOJgUK8m1XGPZ1Ubde+sNHuhre8QAAAABQbGRiDBt+RkSmrIlU8m2H4iITAwAAAAAKjZoYQDFVzFVDNoVRAQAAAAADIogBFEVs9pealcvUsr3J3u5RnbsVAAAAAJArghhAkXTs2qF1e465BVcBAAAAAINHEAMooo5dL2r1+mY1rvBvL2qfvQ8AAAAAkBsKewIAAAAAgFAgEwMAAAAAAIQCQYwCM5kmAAAAAACg8AhiAAAAAACAUCCIAQAAAAAAQoEgBgAAAAAACAWCGAAAAAAAIBQIYgAAAAAAgFAgiAEAAAAAAEJh1J2LFl+2ywXX23PGLsWYKUg7Ozvs2sgz0s8vtUl6eO5KPTBW6jjRqqWdh+32XPjP0aNn3mrW4+fsZhRH7Rr9YGWNXYn5cNu39dv9dgUplTdsUeOSCq4VAAAAcAWQiYHBK7lNd431FiNTZuo+bxFDLqIZDWv0nU2/0Q+2e7fvrGrUjGp7d0B5ZaVdCmrTX0ZMp3yh7rXXIONt1UL7+GxFdMvcCudnt/o+8rYAAAAAGDoEMTB4597RK/3eYseJd/W8t4ghVF67Rt/Z/jPdvaRGpaaPbZXO+abu3rhGM+y678yuNfr5im/b2yNq63Y2dp9Uj3d3+NXO1zS7mElf1wm7lK0p3vXtPqj3j3tbAAAAAAwdhpMU2NU5nKQQGE6SL394g9F36Cn9rvU1nXE72CYz44e629znbP/5E6+5j0lmshYe1LSMjwm3gg0BqW7UdzZ+U6Uj+FoBAAAAwxmZGAiX6gVau6lJLdubtLWh3G68ijmd6q+7AYxut4P+a6dj7QUwjA4d2bVGLdueU0umDrfNWvjwjyO3U15W6V2jQQ8BuXGySp0fuWdwAAAAACgEMjEKbORnYsSKeKbScWKblnaesmupTNLMiXXaPGWGIvY5Onr265cnXpam/Eg/LcuciVG3qklNc+yK+rR7ww7tKGJaf3n1Qt1SX69pcyrczqvRd+g5/e6JFiW/uyP66qafqeaU9y19eW2j5n/jm5rmJUmor7tNf3x6i44kHe8g2zmPG0yGgZelILVtWKPXs7qWEc1Y9UN9OeGa/LG1RUduNAVDK1M+l3de85zzsidmggqHDnrtMuw333YxNtNEbdq7wrmOdmt66c+vZz5FPQEAAIAriUwMDCEvANIyPRbAMCJltfrp7CZ9d5zdMCyYjqzTYd34oGoCnVnD1Jlo3L5FX00smFm9wA089GmyvmrarowFIozSihrdvbGA7WrvdwMY6n5Obw6iQ+1lKXSpN5uAgBlOYWpvpLgm5hjv/bKZ8STFc9WusecVODE5z+G3q43YbQnybRdU7WVP6NCbAwcwMp7fGs13i3qOpAKoAAAAQLgQxECOTunx9p/o9v3xt8YTA5eEvO9WP4OjR68e3RZr+1arXu0viwtspLOvtd0rQuno2rO3SFkYXoaD6ch6wzQeUUugCObePW3qczrSNd9vVNyAFjvUwHR4a+aY7IhAuw1P6UP3uJ129QkzYuTZboYbMHAe/0KqrJBsLdRNJrMlmw6+yWgw9SDMYvdz2rvBHqNza9nmXZNp5rmSCoQ61/Mb5li9a+m3Mdcy2m7lD5ODNHm3S5D1EJCBzq/GCy6NpAKoAAAAQMgQxMDQKFmk75aZBW+4yEOnY0NO3j13WA+1b9MzdoaTjI4f0GPrm9W4olmrd+Xfdc+kvOGH0QyHlhVr9Nv9HYEggakzsUW/3vCU9j4dHzyITluaqt3x1/Tbp59zOsKOSZPjgh/5tbPBh8FmBdgshWxqPMxYZYZkOExRy/XxQznO7HeuidPRd506mTqo0n1QbzrnFuOcp2lnAkOZhrLk287yr29fV+ZhXtmcn/s6pDs/AAAAAEVHEANDY1y53MT/nteG+cwjCzXfLZTZpr1ORzZtZ/X4a0n1GPzikW0JwY2o4ye9TnCCfNu5BpsVEM1SGKCOS3WjvuxmWQxQJNSRXCC0Q70mZlXxTX191UKVJ2VOdKSpbZFvu6CIbslmCEiW55dtwAcAAABAcRDEwJCYOdbLIeg4f9r9OWzlUj8hTkQTJpmfWdaWiMqznX+cg+QNSRk4m6N8/jyvA99+IG1gx8t4SD0DyJEnHtHeQ90qnfOgGjf+Rj/YvkX3NiyMH46TQr7tYqao1I0RZQ72ZH9+WQR8AAAAABQNQQwgKO8pNG1nOVPwww88xA1HyLddIdgAShbZHH62yIdvpuvA+xkP6YIxHTryxBr9fEOspsi0JQ+6BVLvbchUnDPfdlaW1y7786OoJwAAAHAlEcTAkIqMm2iXRpja+W49hUzBjxn1XtHIuOEW+bbzh5hUTJZbaiQvNoBSkOBIdhkPOm5ripiCmW7RUhOUyKI4Z77t8g5KJcry/AAAAAAUFUEMDIl3e96T+x132Uzd525JUDJR07KYncRMR7p2U5Natjdpa0P2gwqy9pEXHChdcr9meFuSVScPZxhwqEHtGt2dohBnvu2k1/SXQ+Znjb6cNiMhknnYRRYBlHgVKr3RLsYx09HaophJAZGFutfUs7BrcUzR0hdMMdBUz5tvu3jecJlMGRZB+ZwfAAAAgKFEEAND49w7esWdfWSGfjp3me4rcbe6Zk5cpt2z63WHXc+krn6uN3OIo3LJ3Vo+0DfxuTp+wE5pWqO7N63RjOpAgMBZnrFqi36w8UF9PSFw4A1HkKat/I2+E1ezwbZZaadD3bYlbthIvu2MI63erCWlS36m7yR0+Mtr1+g723+mxk0J08CmUDp3gXOedsWcY21yUKSny5vXdtpKc03cRVd5baPudaej9dYTAyLlDfWaZupZbNqie53njTuW6oW6151CNVm+7eJlX28k3/MDAAAAMLRG3blo8WW7XHC9PcnfWVZVRdTZmc23ouE00s8vnZlVTWqZUqaOE9u0tDM2fWqckkXaPbvW6Vqm0H9Er56foTvKvClY081gUreqSU22Q+l0KbV7ww7tyKmQZhaqG/Wdjd4QjlT6Dj2n3z0RnEkkoq86Hd0aU9TSfJtvgyyJ+vY8ol/vCr438m0XU96wRY3ubCqpdKst4xSkC3XvdpthEGRm6EiamSXNY43uNu1tr9TdS5Ryf5mP0XHoKXdGkMS/Frm3s9czQxNXgc8PAAAAwNAZHZk67cd2ueD6+8/bpZgbbhivjz8+a9dGnpF+fulMvGGe/vMN43T2k3a1fPxvdmuCfz+mlt4+Xfd3EzVn3Di7sUevnvi91r33iv447j86zyG9deqgDvy7vTvB8VOjNfXWClV+Tura87y2/Evye2zQPv5XHW5t08fVt2lCxecUHeXidGbbWn6u3+76X4rf6yx96f81T6Uf/F/6b//n/0xqZ4Ie/+vpjXrlXxLfF/m2izn/zu/15qG/qfzWG1X6OeeiuLqdtv+Xdq/fpqMf200pder9Q3/ntJ3htPW29Dnn+M4Le3X0ROI+zWP/ptHjb1Slc4yu7m592LJJv3vmRfV/8ev6j9O79Of/z+tJNSP8YzRtxwbPz2nfbdrv+lNSAMPIvZ29nnYtrQ9e1v/zRqdd8eV/fgAAAACGDpkYBXa1ZmJc1WzmhjJkTKSUbzsAAAAAuEpREwMYpPL53rf/aYtzppFvOwAAAAC4WhHEAAbJK87Zrb6PvPVs5dsOAAAAAK5WBDGAQcl+Box4+bYDAAAAgKsXQQxgUKZ4s4p0n8yx4GO+7QAAAADg6kVhzwKjsCcAAAAAAMVBJgYAAAAAAAgFghgAAAAAACAUCGIUGENJAAAAAAAoDoIYAAAAAAAgFAhiAAAAAACAUCCIAQAAAAAAQoEgBgAAAAAACAWCGAAAAAAAIBRG3blo8WW7XHC9PWfsUkxVVWTEz+BRt6pJTXPsivrU1X1WrU+/qH3H7SYAAAAAAJAzMjGKrlSVFVPVtPEe1dktAAAAAAAgd2RiFFv1dC3//mItrejT7g07tINsDAAAAAAA8kImRrEdP6rX2/vsCgAAAAAAyBdBjCHQ0XXWLgEAAAAAgHwRxBgCkcrxdgkAAAAAAOSLIMaQOauT1MMAAAAAACBvBDEAAAAAAEAoEMQYMlPVtGmB6qrtKgAAAAAAyMnoyNRpP7bLBdfff94uxdxww3h9/PHVVejy7Dun9LfqSk2+ZZoW3TVP/7l+nv7T3x3T795Jvj4AAAAAACA1MjGGUKX9CQAAAAAAckcQYyjUzlPTnFKp+5iaN+xU44pmrd51xt4JAAAAAACyQRBjCHhTrPZp99Mvat9xghcAAAAAAOSDIMaQYYpVAAAAAAAGgyDGkBmvycxMAgAAAABA3ghiAAAAAACAUCCIMQQ6uq6uKWUBAAAAACgGghhDwCvsCQAAAAAABoMgRrFVT1fDklK7AgAAAAAA8jXqzkWLL9vlguvtSZ5OtKoqos7ODrs2MtWtalLTHLvi627XuvUHNLLPHAAAAACA4iETo+j61HWoXc1PE8AAAAAAAGAwyMQAAAAAAAChQCYGAAAAAAAIBYIYAAAAAAAgFAhiAAAAAACAUCCIAQAAAAAAQoEgBgAAAAAACAWCGAAAAAAAIBQIYgAAAAAAgFAgiAEAAAAAAEKBIAYAAAAAAAgFghgAAAAAACAUCGIAAAAAAIBQIIgBAAAAAABCgSAGAAAAAAAIBYIYAAAAAAAgFAhiAAAAAACAUCCIAQAAAAAAQoEgBgAAAAAACAWCGAAAAAAAIBQIYgAAAAAAgFAgiAEAAAAAAEKBIAYAAAAAAAgFghgAAAAAACAUCGIAAAAAAIBQIIgBAAAAAABCgSAGAAAAAAAIBYIYAAAAAAAgFAhiAAAAAACAUCCIAQAAAAAAQoEgBgAAAAAACAWCGAAAAAAAIBQIYgAAAAAAgFAgiAEAAAAAAEKBIAYAAAAAAAgFghgAAAAAACAUCGIAAAAAAIBQIIgBAAAAAABCgSAGAAAAAAAIBYIYAAAAAAAgFAhiAAAAAACAUCCIAQAAAAAAQmHUnYsWX7bLBdfbc8YuxVRVRdTZ2WHXgHyUq65hnurnTlVlhd2kY2pe8aL22TUAAAAAwMhDEKMIyuvH6Oab7Uqcy+rvlU6+8JnO/K0Yl32UpvzjaE3WZ/rTP3+m83brwPJtd2XUrWpS0xy7EkUQAwAAAABGOoaTDKlRGjthlG7+h9G6feEouw25KdfkSd5S27adalzRbG8EMAAAAABgpCOIUUS9v72oA/8UuP3qkj54w8vAGPuVazTl8+4i8tHdrl37kzN9AAAAAAAjF0GMofS3yzrz2mc62WvXi2DsBLuQo3zbAQAAAAAwVKiJUQR+TQyTiXH0HbsxytafmHBZJ391SSf+Zjd//hrd/g/XaGxvuroUadrdNlq3LzDDVOx6Jh9c0oFW+3Ln2y5g3G3X6MYF12hC9Dkuq/+Dz/S+89i0xx+tuzHKuU7XaPLNzjHYR3htB67J4dbEmNSudesPiBKxAAAAAHD1iGZilJSU6EuzZqW9mfsxSJ+3HXen02867NFAxCANffaFCUiM0ZfuDQYwjFEae/Nofem/jE4/VGbCKI1zrsP0fxytmwMBDGPszdfoS/94jcbZ9YwqSlVlFwEAAAAAV4e4TAwTrJg164t2Lebw4T/rT4cP27XsMTtJCr2XdfLAZzrxTkJmQ76ZGHFGafp/Ga0JaZ8jndzajVs4Wl/6iilMelm9v/1MR/1z+bxzjN8wx2hWLuuDf7qk2DvAP3676tx/0mnrX4dxtznPea9X7DR1BkuMNzsJs5EAAAAAwNUmriaGCVSYgEVQvgEMpDFhlCbfe42m3xbS2Uk+f41usQEME0yJBjCMv13WiX++ZGt+OOeZbgaWXi/AEQzknH/nkj74wFseW5bu2pQr0nCP6s30qt196vQ2AgAAAACuEkmFPYOBDAIYg5M0O4nTcf/Tbz9Tv9PBn3BvSKdZLbdDQNIOh7msEwe84MTYW0alGBpyWSdfCGZoxJzvCQREgqoXaOv2JrVsX6bNS6aqsvuYdj9NPQwAAAAAuNqknJ3EBC5e+sPLBDAK7rLOv/OZ3v6VCWQ4nfyvXKNy747QGFfm/ezv8X6mdOaye35u/Qt3Q2F1ObeT3iIAAAAA4CqSdorVv/61QFUnkexvl9Vrp1kdm64AJmKOH9DqFc1qXLFTzXv6VFkxVU3fX6CIvRsAAAAAcHVIG8RAiOWbAZFDu7E2IyMlf8hJb6qpVgfjjPbt2qHmQ84is5MAAAAAwFWHIMaV8PlR0alJ+/2El79lHoIxbqE3NWu28s3wGKjd+SP2OG++Js00qqM0ZYFX66P//UIHMQAAAAAAVzOCGENqlDuVqDuVqrPW/8ZncQUu++2sHjfXBwIZZtrSen9K04FcVq87w8coTf7GNSoPBhmc5ylPOyNKDu3+9plO+o/9h9Hxs6yYY41Oo3pZJ19LU6gTAAAAAIA8jLpz0eKi9TR7e5LnoKiqiqizc2TPK1FeP0Y332xX0un9TH/658/iMxVuG60F96YONPS/cUkny0Y7z+tNbZp6ZhDH56+JBkmSeVObppoZJLd2wWBFKqmO0W+T/vjHLfSCNeZc304bACnX8k3LtFTtWreeGUoAAAAA4GpCJsYQ6+91OvG/vaQDiQEM4x0zBetlm5FhOY//4FcX3U592ilIg/5mZj+5pF6nXZC33/jMjzg5tbusE/980Z0u1i9Q6nGO/QPnHP4pQ5AFAAAAAIA8kYmBkCETAwAAAACuVmRiIJwq5qqhttyuAAAAAACuBmRiIHQiDcu1eUmpXfMdU/OKF7XPrgEAAAAARh4yMRA6Hbt2aN2eY+rqthsAAAAAAFcFMjEAAAAAAEAokIkBAAAAAABCgSAGAAAAAAAIBYIYBWaGywAAAAAAgMIjiAEAAAAAAEKBIAYAAAAAAAgFghgAAAAAACAUCGIAAAAAAIBQIIgBAAAAAABCgSAGAAAAAAAIBYIYKIBJenjuj/R27Y+0u2qW3ZYr/zma9HCJ3QQAAAAAQABBDAxeyW26a6y3GJkyU/d5i8jJQt27/Tf6QYrbdzat0VdrI/ZxhVfesMXZzxrNsOvZyrcdAAAAAOSLIAYG79w7eqXfW+w48a6e9xaRi+rJKrWLiUoralSz8mf6TkMxAhkR3TK3Quo+qR67JTv5trsCqiOa0bBG39lkgkJb9NVqux0AAABA6BDEQAGc0uPtP9Ht+3+ipZ2H7Tbk5EYbxDj0lH6+4tuB2yPae6jbfUjpkvuLkPUwRaUVzo9TJ3XG25ClfNsNodo1XjbLxp/p7iU13vGqS73H3XsBAAAAhBBBDFwdqhdo7aYmtWxv0taGcrtx+CivrHR/fvjH19yfMR068sR/VZsbx6jUhEJnEdTO1zTnR/J+B5Bvu6G0/1m1bHjE3p5Tn9l26E0dce8EAAAAEEaj7ly0+LJdLrjenuTvaKuqIurs7LBrI89IPz+vAOdKPWBrYCTqOLFNSztP2bVUJmnmxDptnjJDEfscHT379csTL0tTfqSflvXombea9fg5775CqVvVpKY5dsXpzu7esEM7CvqNfERf3fQz1Zx6Sj9vlb5aX6+aOWa4RZvant6i17UweVtg/zNW/UZ3z+lW24Y1cds99rkr2rR3xZZYJ7y6Ud/Z+E2VmuyNJ1IFE1K1W6h7N9VrWoWbljCAQrQLMMM66n+oLzvXIDp0xlyLF57V6/tT/c4Erql7fmZYyP36ssmq8B6gPufcf+fcN2A2iMnKWFmjvj2P6Ne7RvLvJwAAADCykYmBIeQFQFqmxwIYRqSsVj+d3aTvjrMbQskOr9B83bvxQS9YYVTUaFr9Gn0nYVtN/UJv2bVQN5kAS/dBvZ8igDGj4YeqcZr27Xk2PjBgh6D0dZ3w1pPYYwrWrTC1N7IKRDgK0c4qrzXX4Ge6OxjAMDLV+6heoGnmvM35mYDNdjssxN5tlM55UF/PolaIn+nS10UAAwAAAAgzMjEKbORnYqQ2s6pJLVPKMmZi3HerybQwSz169ej/0EOnvcfNLJmlB2fU6w43sFGcTAx3OMn357rBgK49O7V6V4ErOfhZEWb50FNqMdkB9tt/V+K2YPaE37a7Wx+e6vK2GZMqbeaDs33Pf9VvEzIIzOwgjUsq9OG2b+u3++3GoAEzNcyMKA9qWvdzalnfkkNtixzbBa5DfOZExDmH+51zMPelyELxsyec6yLnOpR2t2nv08/qyHFzHSKascoERZzFtOcXkznTBQAAAEBYkImBoVGySN+1AQwTpPADGMa75w7rofZtesbOcFIUxw/osfXNalzRXPgAhuEX5jQde7+T/tFJrw5DcJsVlz3ht3U66tPm1MRuJoBhOu5OxzsxgGGUVXoBjr6PvPUkA2Vq+DOi5FqcM6d2C3WvDWCYYMuv465Dh87s2qKWPabgh3Pu8+MzKvzsCTcDZM8j+vn6LTaAYXToSKutczGgTJkuAAAAAMKEIAaGxrhyuV3UntcKn2UxDEQLc74QyEywQYTgtlTDGqLb9jylvdtit7Y9bU4nvUZ3b/yNvrMqOPzEiGjCJOdHho75jC/b7Id0Qyj848u1OGcO7cob6t0CoKYWRcpsEceZNw+6wYjSyineBssL0pjgR+Y6FumH01j5BmsAAAAADDsEMTAkZo71ZgTpOH/a/TnSpMqK8III8du8x7XpL4EOvd/2wzdf05H9sdvru7bo1+sfcWcmMbUf7q31Hu+y9SLSd8xtkCNDpkaq48tGLu1i55Y+CJGaf/zmWqVuWz5/nhucGLDOxUAZKQAAAABCgyAGMGh2uIK61BvNivA74cFt/rCGYOHLVG2DOvT6C23uUmllYLjFgB1zv6hnukyNVMeXjVzaZfnYlOeSoihpglSBo1T8oEvugRQAAAAAww1BDAypyLiJdmkE8YcrHHozMHuI7YQHt6Ua1pCy7cAGmm2jvHa+O4wjfaZGiuPLSr7t0onoq99IMexlwOPPNpiSb7AGAAAAwHBEEAND4t2e9+R2Uctm6j53S4KSiZoWmHa14MzsJJua1LK9SVsbvKEtBZMqk8B2wuO2pXrcgBkVfic/PpMgUxaCO2uJPxtIuuf1gye5yqldh3rd+q01uik4FCag3E4fa4qfvhkYYhOtMZK27sbAmRqebB8HAAAAIAwIYmBonHtHr7izj8zQT+cu030l7lbXzInLtHt2ve6w68VQV+9Nr2pULrlby6u95ULIWKwzj22eiMprG3Xvpp/ZTn6qYSEVqqlfqGhIpnqh8/jfeNOuHjIzfqR63gRz6vXV2tgwlXLnOb66qtF5lQaQZbsjf/SGwkxbuUX3Bh5vjvWrq7wpYk0wpu3p+KlaBxwq4geJ2g+kydSwUmW/AAAAAAitUXcuWnzZLhdcb09yt6GqKqLOzgE6ViE20s8vnZlVTWqZUqaOE9u0tDM2fWqckkXaPbvW6Z6n0H9Er56foTvKvClYCz2DSd2qJjW5tSeMPu3esEM7CjS8YMaq3+juOU5HfMMavW6f09vWpr0rtthhFxF91Q1IBLf5j7Mr6ZhpVs30onbVVbtGP7DZFvG843h/vgkQKO6Y4vnHY1cTmOlQU88mknu7zOcYf908qa9VkJttYoI1cfvLfGxBZraUTDOeAAAAABieyMTA0Dn3spa+1apneoKJ/T169USrGtt36qnzxUv439fa7s7yYXTt2VuwAIbpOCfXXLDb4oYwpBrW4LdNpVt93W1q2/aIfp4YwDD2b9Fem23h6daHe55SywovIOBlMmSqA9Gh183MJ3HP4XTuTcBkQ7oAhpF7uyNPfFst29qcx9gNRnf88cYbeAhI6kwN2y4LA2aoAAAAABiWyMQosKs1EwMAAAAAgGIjEwMAAAAAAIQCQQwAAAAAABAKBDEAAAAAAEAoEMQAAAAAAAChQBADAAAAAACEAkEMAAAAAAAQCgQxAAAAAABAKBDEAAAAAAAAoUAQAwAAAAAAhAJBDAAAAAAAEAoEMQAAAAAAQCgQxAAAAAAAAKFAEAMAAAAAAIQCQQwAITRGy5dNVMv3Jmh5md0EAAAAYMQjiIFBmKSH5/5Ib89dpJl2y/AUluPMld+Rd27LShSxW3XL9d4257b2FrsthcgtJVq7bEL0sea2ddn1qrvqgwL2ugav6TCV8jX8WskweQ0H9/4EAAAAUiGIAYwEZy+qwy7GXNJHvXYxQWT+BG2+a5xqxo+2WzyV469V0/2mI3ztsO/AX93GaPnX0ryGkXHOazhheAUIcnx/AgAAAOkQxACuNrdcr82zTcf3ktpe6VPjL05Hb+teOa+2s6YjXKKvMkxjmDIZDqVaGom9huuir2Gfmt+6oC6NVs3Ua72HpxGZf73Wfi33bJN82wEAAACFQBADgzBR08baxWHtChxn9QKt3dSklu1N2tpQbjcW2kWdPGsXg3ovOZ3Y9Ops57brrU/02PsX3WVfx/vn9NhOp1P8bK929NiNV53RunG8XRyObhmnpe7xXVCz8zqZ1zCW5XBR+978RKuf7VPj7y/YbalVjb9WNZHRqrLr2cq+XX7vTwAAACCTUXcuWnzZLhdcb88ZuxRTVRVRZ2dyYvFIMdLPTxOXafeUGYpkExToadXt7x22KwEls/TwlIW6q6ws+m1uR/8R/fLITj1/zm6IMvUsVuoBZ3+vHv2JHjptN0f59/fombea9bjfvhDHOQh1q5rUNMeuqE+7N+zQjuN2tYDqvjZRTc5F7HqrT6vftAGJshJtvX+cKk0n9xefaJ+3NSplm1yUXavlNSWa53RkK+2mrrMX1PoHZ19JgQ+bNaDzWrfznNPZHuPs/3rVB9t2nNeTvzf3pTJGEafT/tCca1VpAwvm8a1tzgtdY87jknYXIuByy/XaGthHRh2fpAwQmPoUDXPM8A67QU5nveOcc24X0pxbPuz1dPbR9sppPfa+3ZwH732Q+j2SSS7t8nl/AgAAAJmQiYGcZRUYSGNmVZPenl2vBwIBDCMydoZ+OvtH2l01yW7xndLj7a161Vm6Y3qTHi7xtvpmVn3LDXB0nPgfsQCGNZjjDIvOs5fcn919gWBEz0V1m5/OfZ3uhnj7jnkd8MrZ43IuAGlqabTcf707lMEPQhjRWhrzx9gtCcaPVlXZtVrrdMCbEttGxmlzyiKaXod9813xwQW/5kN9NgGHHGQVwEjJHOdEW5/CbnI55xm5XpsLOYOKcw3nufu4oDcGEcAYKvm8PwEAAIBMyMQosBGfiRFnlp6srdcd/fvV2P6y3rVb05q4TG9Pn+Es9OjVE6/pqc7D0TYznfs2O/dFnPviMip8ftvgvkoWaffsWkUG3H+Ox1kIZjjJ9+eqpkLq2rNTq3cl/y4UhJnpwenkx38rn5j9kMz/htx19oJ2HzqvHQlDS5LYfbl1GN46p11vxjIMIs59D5lgg3NffGZELHPA49z/yifRfZl2JkhhJGYWxI7R1H2IDX2JOB35hr+/3gYMCpSJEedarf2e8/xn01+/ILdIarTGSGCIjslYcY4zOvSjEFkH/muQJhskF0ORiZHv+xMAAABIh0wMDJFJeniKCWCYYSHNeigQwDDePb1TS48ecZbKdFdZYjaGw7n/UdNRHVurzW62hvN8M2q9oMeRIQpM5OL4AT22vlmNK5qLF8CISjPLw9lUM0J49v3+tNa5BSAd46/V0rtK1fK9CVo7P92sJE7Hc44fbOjVY4EAhtHx/ida/YrpVI/WvJvSZGOcNR3f3rhgiWnXbJ+oojTQrqxE9TaAYYIU0cCAo6Pnglu3Y3eqegtDzTnOh2wAI/E45RznjuhxXqv6dFkqOYgEr1FOTGAmNg2ruXkBomvVlLA9flaTfNsF5f7+BAAAANIhiIGhUXKb7jLDO/r366mkuhbW6XfdYSOR8ts009sS5/n3vGElkSnf0pO3esNITEAkKWvjavL+J2o0gYG4TISLTuf59IDf1HeYApCBGUlMAKJmtjf8Ye0tCZ1lfxjD2fPalW4Yw/sX1Ob8qIykCoQ4nXxTM8OuBflDDuJMsENOOs4N7wKjAx6n81ocssN3Ul6XEW4Q708AAAAgFYIYGBrjyr0O3NhatdT+SG+nvNXrDvfB6RzWQ2/tV4fKdEdZmVuQM7nQJ3LlzUjidCqf/US7O0xAYbRq7iqN/2bd76yPH6fNCd/Ax27Xq8Z98OD5GQddqQIcw0hWx+nPxmHqgrgb8tfh15YYPybHgMgFPRadhtW7eRkwJjsmfnt8sdB82wEAAADFQRADoTKz7NZY523cxJQZG8iTGf7w+16te8vrkNfMSVVsE1dUAQMiAAAAQBgRxMDgjS3XzXYxrfNnvPHvZjrT/T/JfEtXfHPiMrVM8TIwHj3RE6iPkaVsjhPq+IutlRHkd55NQcmEb+CTbgUs1ljpdNavmBwCBRmP089iKcRsHD0XdLCANTYAAACAsCGIgQIo100JU58mOfeOXul3fpYtTJomNTuz9KQ7s8kRPfreYT3f+T/0jPN8kSkr9eRE7xEDy+I4C8XMTrKpSS3bm7S1odxuHB7qvpai5kWQ3+kO8jvPkZLCTReaQTSQErlWde6WBGWjdWN0xpNiGaPJA5xr7DjTXZdYQdSujvhiqPm5qNfdIT9S5ezr078WZmaUTK8xAAAAEFIEMTAIh7XXLdhXpgdmLNJ9wQBBySTdNzGYJXFKj5/wZh95YHaTnqyapZlxAQXn8VXLtLt2me6zW4Luu9Wrl/Hq0Z163t3iPN8RUx9DumN66jYxuRxnYdTVe9OrGpVL7tbyam/5inNn/fBqXmxddr3qyuI7umbK063+lKeHghkVfoHK0Vp6v53FJK4DPUZ1852233Oe024ZlEDGQZN7nO5Wl3uM9xeu/kayC3rDPXHnXP++JG7fcq5XXTA40HNOrf5jzXUJ3mcCCdHpZS+o9c3AzCWDYAqyejOeBF4L9x5jTPT6LL0rQ5DD0Xn2gto6cs8OybcdAAAAUAij7ly0+LJdLrjenuSpJauqIursHPz3kcPVSD+/JCWLtHu2meo0lSN6dL8fdPDMrGryhoSk039EzxzZGT/jyMRlettkYZihKO8dths90edLcV+cHI9zsOpWNalpjl1Rn3Zv2KEdx+3qlVZWorV/P041GTIZujo+0eoUs0dE5k/QZndK0TScDq6ZhSQ2G8UY25H3piBNNYOH/5xdb/VpdbCj7xzn1vvHJWeFGKYjffZa1UTSP++gZNq3W9QyONOKf452NUkxjnHgfbpT4VJsEwAAACPM6MjUaT+2ywXX33/eLsXccMN4ffyx+zXiiDTSzy/Jvx9TS2+fbrthoiJ/N85ulDr6j+h/HtunX53/N7vFc+bjg3raefx1fzdRpePGKdoH6+/Rq6d+r3XvvaIX/t1uM0zw4YtznMcd0aOHXtFRu9lnnu9kyR1aVHar7hl1VC0fx+8vKsfjHKzjp0Zr6q0Vqvyc1LXneW35l+TfhSum/9/1L3/+/+mPn1yj20rH6HPX2e2OrrMX9N/3/G/94l+DL0LM2ZP9+r87Lunvxo3R9eOvkXN6nrNOp/m9f9OTvz+v/2WGDUVdo1lfHKtbr7usI+/261/j7vOMnzxWiyddo/996lP97uRndqvDOc7f2X3d6uzL4+znLW8/75Rd57RT2ucdFLvvqZVjVHldLGHNXJ+XXz+vPb2B49Rn+tc/n3eu5yiVlv6d83i72TnWro5/0/+5898SrkkhBPd5TeAYzT4/1X83gaSP7CYAAABgBCETo8CuukwMAAAAAACGCDUxAAAAAABAKBDEAAAAAAAAoUAQAwAAAAAAhAJBDAAAAAAAEAoEMQAAAAAAQCgQxAAAAAAAAKFAEAMAAAAAAIQCQQwAAAAAABAKBDEAAAAAAEAoEMQAAAAAAAChQBADAAAAAACEAkEMAAAAAAAQCgQxAAAAAABAKIy6c9Hiy3a54Hp7ztilmKqqiDo7O+zayDPSzy80ShZp9+xaRexqVP9+Nba/rHftanYm6eG5K/XAWKnjRKuWdh622wtjZlWTWqaUOc+9zXnuU3brleKfa4+eeatZj5+zm4eFctU1zFP93KmqrLCbdEzNK17UPrsGAAAAYGQjEwOhMnPiIj05t0lv1/4oett96yLdV2IfUAwlt+musd5iZMpM3ectYojVrVqmpiXBAAYAAACAqw1BDITEJD18a5NaptfqjrFldpsnUlarn85u0pMT7Qbj3Mtauv8nuj16a9Wr9q6cnXtHr/R7ix0n3tXz3iKGVLkmT/KW2rbtVOOKZnsjCwMAAAC4mhDEQAjYIQ5lJnjRo1ePblNjNDixTY+eOKIOlemOslnewwvulB5v9/ZX6KEkyFF3u3btTx6mBgAAAODqQBADw9/EOrcehXREj77VrIdOnwrUtDil5zt3aulb23T7ewQYhkz1Aq3d1KSW7U3a2lBuNwIAAABAcRHEQN68+hSx2hRv1zZp962zNNPeH89kUziPmbvI3j9J993qPD6htkVyW6fdlBnu0qtHd+r5dIUmzxWqIKY9zsBxBW+7q+yYhowmOddmmXbH1e7IdG0yM9fJfY507UtmuUNt4q7l3GUD1AnxjzHQxq0tckp/OW8fkkFd/VzV2NoUlUvu1vJqb7l4zujkla55CgAAAOCKiwYxSkpK9KVZs9LezP2Ax+voe/Up7CZXmSJl9WpxOuwPp3u7jC3XzU6n+8m5K/XTMufxdrNhalu0RIMcVrSo5hHtPe1uGd7subVMn6FIXO2OLK5NCmbmEnOd1NOqxvcOJ82qYu5/e3a9O9Qm7lqOnaGfzk4XdPGG53jHaDc5/Noi3x1nNwxHFaWqsosAAAAArj7RIMa5c95X3LNmfTHpZvj3AzOrvmWHd3j1KaLFM99q1TNuAcwyPTB7WZpZPEznul53mCk8A20bjx7x7h5bqweDBTrHlXud856hKqgZq38RvDWe6LH3ZzJLT7rn5iz2H4k7v2DtjmlZBgn8qVfdaWFTBDA0cZl3v3kdTrQG6oR419NM9BuZ8q2koMl9t3rTxSa+fo3O6/dqf1lcYCOdfa3tauv2lrv27NWO494yAAAAABRT3HCSPx0+rMOH/2zXPGbdbAdcJYu02Xacn7H1KaLOHdbj7dtsIGOGvptu6IXTwX90f7MeD7R99/ROPWrjBNVjY+1mjg1PvYWZVQt1h1kwQYf2nXHnF6zd8VAWGSVxAYz2l5MDGCabIjrMxnkdOuODHOZ6LnUDQ2W6qyzwOjiv33fNy5fi9XvXef0eir5+Azh+QI+t92YIWb2r2IU2yxVpuEf1c5zF7j51ehsBAAAAXIWSamIEAxkEMJAkmhnxmh5PmZxzSo+f8LIqIuW3pajh4HSej+xMmVXxwflssh2Gq0n6erkN7hxJFXSwsqjdEQtgHNGjKQMYDn+YTf9+PZUuKHL6XXda2bjXYcDXbxipXqCt203x0GXavGSqKruPaffTB9wMEwAAAABXp5SFPU3g4qU/vEwAA0n8zIiO8xnSCc6f8Tqapv6FuyF/7/bbb/nHTcyrKObQmahp7jCMM/rLIIIDptimN0TEOKMP7FISPxgxtlYtgYKe8bd6LzMkIKvXb5jqcm4nvUUAAAAAV6mUQQzjr3/9m10CrqACBkSGvfJvucU2TXbFo6YGhwlQ3DrL3nkVOn5Aq1eYISs71bynT5UVU9X0/QVxBUwBAAAAXF3SBjGATCLjgtU3E/hZAv0ZMgmyde4dvTJQjY1hpVw35TmRjzubia2B8Xxns1cjpKxeT6a61H5wp6c1Wpgz7S3FkJSMr9+wc0b7du1Q8yFnkdlJAAAAgKsaQQzk5N2e97zOc9nCNFOFxgpOdpx5J31tiKyd0u/OeLUyUs20EVUySw9PzCLIUbSMjsPa6x5mmR6YkTBNbFDJpPT3JRTxfP69VremxR3TU0zL6gd30r4OqcVev5mpZ48p8YfFDKB6gdZuMvUqmrS1ITzFVwEAAACEG0EM5Obcy/ql31mf3aQng4EDE0iY60/feUS/7By4iGU23u38H4GpW519Vs0KBAImuXUkds+u1wPTMwQ5dFofRjM6Au2dY74vhyBAJs+f2G+HvtSqZe6yhKCKf5wr0w4RSQ76HNZDdoaR5MCIX0A1cE3izmOS7qty9lebMNVtILPlp84xBs/dv46JdTRSqaufq5oKb7lyyd1aXu0tAwAAAEAxjbpz0eLLdrngenuSp16sqoqos9Pt6o1II/38PJMCwYpUvOk742e/8Nukus/jz8rRcWKbliYFQAbepzvVaIZ6ldFZPxKZIRnvZS5im/nYAkoWaffs2gx1G5LPf6Dnjh53iuNMe06+/iPubDBx1zvTMTqPf/X8DN1Rlv51MupWNanJTHnq6tPuDTu047hdLYpyLd+0TEvVrnXrmaEEAAAAuFqRiYE8nNLj7T9R49H9etX9Vt/Xow6no924P33nN3/BfXrDSzxmn/v1qNPhzhTAMN7tbFbjiSPxHWDTye8p4Ewd517W0v3b9KjZT4GuTTQTxa2PET9kxpzT7W+1OufgPL/d5nKu0asnnP21JwQwDHOMtk1M7PFPZTHV7b7WdrV1e8tde/YWOYABAAAAAB4yMQrs6sjEAIYamRgAAAAAyMQAECYVc9VQSyFRAAAA4GpFEANACJzR6+197lLNymXurCje7R7VuVsBAAAAXA0IYgAIhY5dO7RuzzF12VocAAAAAK4+1MQoMGpiAAAAAABQHGRiAAAAAACAUCCIAQAAAAAAQoEgBnJihssAAAAAAHAlEMQAAAAAAAChQBADAAAAAACEAkEMAAAAAAAQCgQxAAAAAABAKBDEAAAAAAAAoUAQAwAAAAAAhMKoOxctvmyXC66354xdijFTdHZ2dti1kYfzA65edaua1DTHrsQ5puYVL2qfXRvxykq09f5xqrSrUWfPa93Oc+IvCIDiGaPly0q1dPwl7X62Vzt67GYAVxU+k41sBDEKjPMDrl55/4cZ6PR3vdWn1W9e9LYPJN92xXalgxjD9bokyuE46742UU0RuxLnkrrOXlTrH85rX88wPc/hbqjfL/nuLyzv6yuuyEGMYfx+icyfoM2zR9u1eF1nL6n70Cfa9f7FkRFIDsHvbeSWEjXMuVY14/3X5JLa3jqnXW9eIJifrxxeB4IYIxvDSQCgoMx/js1qjLsV5z/LyE3Xuv+RG5WRa5Wyj3sl9JzT6l+cVmP09ona7F0otNGqHH+tmu4v1db5Y+w2jETD9vcdoVDpdKRr7irV5mUlvHeGQN3XJmjzXeMCAQzDeQ1mX++8Bterzm5B8ex7IvGzWLPW7emz9yLsCGIAwJXWc1HddjF7Y/TViPPh6Ox57X7rkuR0ZL9aZu+62uV1Pa+API6z7ZVgcMi5PdunZvP6OyqdD8fLeQ/kbqjfL/y+h1sI3i/mG+q4vxO/6NO6V86ry9w5fpweGgkBz2H8OpiMmCbz++pmXjjXPvr3+hO1nXU2m8AzwaT8DPXrjmGLIAYADCPdfVmmxJZdq3njnQ+rHRe04y8XnA+nozXvJr6JT5T19bzC8j5O5wPdvjc/0W7zwRiDNtTvF37fw23Yvl+SXFTH++e0+lkvkDHSMnmG1+twrRrskJ62V3r12JuB4Ts9F/TYTpuZOH6cGm5xtyJPQ/K6Vy/Q2k1NatnepK0N5XYjhgNqYhQY5xd2Ef2HH/9MJV9o08cPbtGndmuSKY0qe+SbGvOnp/TXp16zG30RXffgD1XypQr5HzEv/uk5nXuhRZ9WrtEXVlTq3M/W6N9O2DutMfVbVPZ1xe6bslA3/B/1uu4LFd4D/uoc039zjimhXf4imrHqh/rynAqV2i19h57TH1tbdOTGNfrBykq1bVij14/bO63yhi1qXOL85+zfV71Q936/XtMq7HF2t2nv01t0pEDtcjNda7cvVo1dy6RtW7Me229XCsQbf5nPWEt/DLf3Tftj79vNmdxyvVruutY+/lqt/d71qklbc8I+v7z7TYeo4e9LYmmuZy+p7dAnzvMkfiDIt12igY4vBWdfy2tKNC8yOppC33X2glr/8In2DTjGPY/reUVkf5x+TYzUj/OfJ0MNgDTX8+Ch89oxwOve4azXfe161QfbdpzXk7/P8FoO6/0lGur3Sx77y+H33a+LkPm5/WO4oOZfOL9TdqvPG8tvUuHtBlN7peOc8xoMNJZ/jNN2nB6aM8YdvuDJom1er5+/r2udfXlbzPuktc35W1Vjfl/S/z7kf37G8H2/+K99+loB9r2j1K973n9383j9vGNV7DVK9Rwdn2R4TYbp62B/VzPWgMrwmEFdl5xeB3s+g/i7G3HOI/j7l0rK92K+7zPX4F73SMNybV5yNuvPafF1Nfq0e8MO7RjU51QUCpkYQJwOffqWSVSr1Jgp3pZkEf2H/+Obzp/Rbp17ISGAYYIbT/1MNwQCGMaYL31TNzyyRTfMNd3rLl1MEYgY43bmvftMQOMLjzwYC2AYX3BuhQpgVDfqO9t/prsDAQyjdM43dffGLbr3y95x9qb4Q11W6R2nuc8EJn6w8cFYIMIwiwVsd3W5pI967eIA6qY6H4CcD6JvuP+BOz/Np4yBUsydTkWDGad7v/MhNjhO11k2Y6VbvmaeM4V82+XJfIhrcfa1NPABx/BqP0zMofZD9tfzyhrEcZZ5HzzNBzrTCUvusDkf+JzXLt31XOq8fmvTfRvovL5VzofNtc4HRpMaHdc2Mi7N2PoQ7S/JUL9fivP73uFmajj9+DkZ0tWdzr/7nnnrfMIHedNBmGjH8ttNLufaRq7X5u9NSD9kyb52m53OWSyAYWRqm+/rZ47T35fd5DDvk6b7J6g+7tiDBnF+SYbv+yUf+f3dLczvX9p9O7d0HeiY4fU6eL+r5u9xhoBY7yX3d9T9m+duSC376zKI1yGvv7smsO58Jkj4/cvG1ff/O4qFIAaQ4GK3+a+lQtfWpPn495X7VfIF53G/+68J2RQLdYPJzjCLf31OH//s2/rrg96tZ3ubLjrPed2XzH0nneVEEY0xQQpz31fWqOzrFbr4p6fUE32OR/Tx9mfTZ4bkZKHu3fhNL3jR/Zz2bvi2fr7Cu7Vsa1Ofc5zTTNS5+6SSA+IRTZjk/DD31a5R45IK9R16Si3R53hEe7c9qyPegwPybZero3osoYhTuluhszAG56JOusMBnJ8DfgthXKuvmLen8yHJ74DsO3bB+XegFPNrVeN8cDDfrjQ/Gxsr7ddUkPMhPvUHnXzb5eEWpyPhpuKascSfxMYSO7d1r3ids4FrP+R6Pa+U3I+z5q6Javle4Ha/88HT+RC5+5U+rf69eQ8kMJ1V89qdveC8dsFx8rHXr+audEXmzIdKE7i65D5/8HVwpUqHDtX+fEP9fsl1fzn+vvdc0EHz/E6nIF1Q0+toXdLBv8T/bxSZ73Qu3E6J8/sXeA3MWH5vyNJoLXVeo+Tr6XSC3NfOWXRei+Dr570W3hCYGyd4j47K8/Wr+5r3TWzica5zaw44naM0Hav8zy9ouL9fMrjF+Vtufp69pE53g5Xv391B//4574kau+8Uz7GuLcXftKjh+DqM0WT73ss41MH/HTWPT/k7muN1GfK/u9e7AQ/zfolvY+uuuJk+3ra4LIwQ/v++r7VdbbYIR9eevWRhDCMEMYBEXV6QYUxFqlSMiP7DPc5HABOkaI2Pg1/34IO6ziyYISY/bokb9nHxjS1uIMOVMogxRaNNEEPzdMOKSn26/RH1PPVaIGOjQ5+6X70N3oxVD2qaWTj0lH6+viVu+MaZ/Vv06232OE+dVPKAsCkqdZMn5unrKyv14bZH9OsnXtOZ6HN06Mj+VMeZb7urR6fzoTJr9oNom9uRsd6/4I6zHWiss5va+ftzgZRNU1OhV+v8Dzr2W6RE+bbLzRgtn+M9jzeWOP6brI73P9Fq94PVwPUAcrqeV1BBjnO80/FyPqCuvSXFNXGu2bpnnQ+SO02abvAvj/f6NbsXON0HaYf5UPyL3rhUZPM6eO2kitKEfYZtf9ZQv1+K+/t+UTsOeb8nS2tS/F6WlajeNHKu9evBToCz/SHbwTCp7HHDxJxO146dfbajf63qE74tjcwvcY/RS4//JCF13bwWzu+u07lKSv3O5/Xzjz/FcXa4NQf840wwiPNLNKzfLymZoTfXa6sZwuCIzxIYxN/dAvz+1TjvYbcQaYrn6Bigkzp8X4fBZwnkdF0G+zrk+Hc3YtfN+yW+zTn7XrlWX0n6YiOk/78fP6DH1ntffq3elfypGFcOQQwg0YkDuvBX5+cXJjt/cuONqf+hm4Xx6Ystzn8NAVMaVeJmWTznBh8y+bQ9xf1T7L6+UKGL29fo4wIFLJJUN+rLbpbFc2p5IvNxfvjHFPdXT/YyOCoq1LdtjX6bbeAh33ZXkQ7ng4aZijSrMZpxqeW+bIaUJH/z6vNT0DXe+bDrbgnKt12OyrzihaYjtCvdONcsgzW5XM8rKdfjNGOA/W+uvJs/64A3tCdVKm70A68ZenJLidZ+bYK2LpvgZnKYOhvmQ2PSN+Qup7NnxijbtaBMHyLDs7+YoX6/FP333f6eyPk9Sfz21Z+qte1Qwlj3CTa9O+WwJMMPjiT+/tmZU9zXL/34ecV1rmJyfv0GPM408j6/ZMP5/WJUzi71MrWiNzv0xrnP1FOI+3Z8kH93B/37l3g8ORjur8Og5Hhdhvrv7kCSAs5X4f/vKC6CGECSDl1MGcRYqJKvV7iZFh+/YTdZY2rmuY+9+NaB+OBGwJgK8/GhW5e8XLt4ld6+Lv7ukaTnLqTy+fPcYEJf+4EUWRae8krvOPs+8tbj3OgFI/r2PKLf5jIcI992SMGmlpsU0LgPqbEPKgN9i5HRAGN008q3XZDfyRg/TpsTzi12u977xhdWwqwDs8cld1rNB9plzrUzQ09MLQCnwxlfs6CwRvr+hla+v+8XtMvNkkr8RtQPOCQGRZzraDsdXZk6LinH8judIzeFPr/07lxfv6yOM4X8z29kMEMNTOp/0rCzQf7dHezvX66vYzgMHDgdSM7v7yH8O9hhh8q4Q1TisqSu1Vqb7ZM0nIb/31FgBDGAFC52mwFwNbr2K9664Q0XSVHM0+EV5ezWhbZ030FFdN1s85jURT2vcwt+ZmpfGF5xzW59+Gb647xlrnecqYp6znALfmZqn1q+7XJnZifxpsIa6La21jYJG39McwYDfYuBESjdGGszBtl8oHW/AbvgjkM2Y6bX2XHTfrpwwYz0/Q21Qfy+pyzwacbOO9cquaDnFTLSX78rxB2G4GZqxW5mqEH8MJ8C4PVL4NdrSJGJEORnJeQZ+Esy1K9DdKiJqacRCEKY2hpmc8cn6bMtgAIhiAGk4BX3NMEJ+9HPDhdJLuaZLVvzIlNRzzQBjqFla1dkKuqZJsCRXr7tkIpfkG/3s/EfUL2bHdOdcUhJGv63JGcTCr4NJN92qfjfgjofgJLPLeGWbuo6BPjfijnvF1N8zenEmHHIZsx0R5rU/sEZ6fsbeoP6fe85J7d0U+D+dAU9gzJ+e5vx933g2iPxBvf65fstc/7nN0Ll/Xd35P/+5cMrupv5ywR/SFdh3mdX6nXwMkW8T8s+W7Az1fSv/P+OAiOIAaTyxpvuTCBecU9/StU2nUso5hmvQqPd/5USRWJFPzMV9Ux5XzFUqPRGuxgnEiv6mamoZ8oARyb5tstHWGcnyZZNLT+bUJAv6qJe7zAfLNIPKUmd4horuJVuWrh828VxOg8ZU7T9bIJISQ7THBbSdK3d5GXqbF013W4LiUzf7Jn3S8pvYJ1Op10qqJG+v6hiv18G//seP4tJ5ueL1rdJ+/uX7vfd1udw9rP07zNM61qWpm5Ojq9f7DiT6324yvzhLfHyP79CGaZ/Xwb7d/eK/f7lq8ivg1+PJtWsHq5r1eAWmE1Rl2YwhvJ1uMXMTiI3uLo6LgCRXLAz6or//56vEH8uGOEIYgApndAlvy6GnVL10+1b0k5x6g0/ka5bsUbXBSY1GfOVRt3w45/pBlP003GxO0WqhV/UcwiCGD1d3nFOW7lGM6rdRVd5baPu3fQz3W2Kfjr6ulIcp1+cM2WAI4N82yGZTS3P9AHb/6Ce+lsgU/xxgtbOD9zndH6XL/OnK7yg1pSFxPJt57ukj8yHF+fDW33Cc8SNp3V+A6KzKtxv9xd3/xjVzb9eW7830BSI+Yk01KjGBNwclXNqtDzwOzJ82VkH7h/nfrOXcpiA82H6oeB199uY1y/5TTJ4I31/VtHfL4P+fXe8f97N1jD31/mznKTrOPmZG/7vX3C2mwF+3/e12akVzXj3ZddredxMOf57tFSbv+YFCeLk+vpFh05dqyZnX8G/Id5+0oyrH8T5FcLw/fsyyL+7V+j3L1/Ffx0u6DF3lg1TM8JcT+d6uGsO53221nnPuu/PTAUu8zGEr4NXX2a0bsyp/taV/f89X+H8XHB1IIgBpOQX95ynG+yUqucyFNy82NpqAxw1uuGR3+gLT3m3shXf1HVq08e/M8GDNDUv/KKeqQIcBXZmV6s+dJdqdPfG3+gH271b48pvappznHv3eMeZsnaFX5wzVYAjk3zbIYmXCu68Qhnnn7/ovIKONCnmXWdHq2b29bHCWs4Hfu+Du0lZT1/tO992Hv8bY+ftnvAcTYlTQJqp4tyChHZ/wfG23ytV0+xrVel0YHJLW89HqebNL7fLw0fNXcHr4V0Tf9YB86H4ybjOl1/cMeG6R9tcUPNb3oftwhjp+8uk8O+XQvy+R3/3nA5Ok5tynlzQM2jf7/1pRk3gMjDDxUC/7z2x4rLmWJYG20ZfD6dtW/D1yPf1czpDf4jtKzgm32139oLSlZfK+/wKbpj9fcnr7+5w+v3LV5FeB7dmhH89nevhXxvnfebXrWgu2JCJoX8d/OCpObfY+yT+tjUpmOkYNv+/52t4fi64WhHEANL4tN0kBFZozBe6de6/JUypmuQ1ffyzp3TuT16mg+uv3fp0+yPq+fEW2zZ1zQtv1hITxCjMf2eZvabfbnhKbYcCx9ndrQ+3PaKW9VvscI/UtSu8WUtMMCK348y3HRL5sxRk7oS497uXOlWK+SUd/MNprXvF+QDifpD3dHWcV/OzvRmmK8y3XYyZEm2d80HK7Xj4nA9yu495H76C3OnTnI7EbudDYPzj7XjbnZ/kNrViljp2takt8KsRFv6sA6nGEbvXPeF1c6+7HTu9r89uK5CRvr+g4r5fCvH77ul485yX3u4YuKDnRe3YaX7Xz6steE2dvwFmas51v8jw+24CGb/ocztMca9HhrZ5v35u0MT7GxET+/uwy/lbkdogzm+Qhvvfl3z+7l7J3798DdXrsO/35tqY91nq92ghA2VD/jr0XFBr3O9eskobzFybMKQmn/fZlRTWzwVXg1F3Llp82S4XXG9PcvJ4VVVEnZ0jtzPD+QFXr7pVTWqac0zNK14cgm/ycjHGpkqbbxlz+ZCeb7uQq71HLSunqmvPTq3exSAoDID3C3LB+2V44HXIk/1coPNalzabZIzqvlbq1s0wM+WsLsLwrHxFGpZr85KzuX9O4/0y7JCJAQBAQKTS5Pv26eCbfFDBwHi/IBe8X4YHXoc8lXlFpDMXv72ozrTZUOHE+2X4IYgBAAU1VU3bvUrWsds9w6pQFTKoXqCHlpRKh9q0gymBMRDeL8gF75fhgddh0Ez9DVMcN7FmaMQUyf3aBG12Z2ApTpHcbJns2PjPYk3abF73XPF+GZYIYgAAoHJFGu7R1o1zVdl9TM1PHLXbgVR4vyAXvF+GB16HQQvM8mOK48YKiXq3zaZIbmS0V5NjSIrkFhPvl+GMmhgFxvkBGH6oiTGw6Vq7fbEqDr2kJ50PKvyVQ2a8X5AL3i/DA69DoURuKVHDnGtVMX60vPLtHlNo+uCh83r9/Ysj4PryfhnOCGIUGOcHAAAAAEBxMJwEAAAAAACEAkEMAAAAAAAQCgQxAAAAAABAKBDEAAAAAAAAoUAQAwAAAAAAhAJBDAAAAAAAEAoEMQAAAAAAQCgQxAAAAMVXvUBbN92jOrsaVpGG5dq6arpdAwAAQ23UnYsWX7bLBdfbc8YuxVRVRdTZ2WHXRh7OD6FQu0Y/WFljV2I+3PZt/Xa/XUFK5Q1b1LikIlzXynQeN85VpV2N6m7XuvUHxG80iq72Hm1dOVWV3cfU/PSL2nfcbg8hE8TYvKRUOvSSGp84arcCAIChQhCjwDg/XDkRzWi4X1+eW6PSCm9L36Hn9MfWFh1J6DD4HfF4bdq7YouO2LVwW6h7tz+oaXYtrUNP6edPvGZXshHRVzf9TDUV3WrbsEavh6UjVqggRuB5uvbs1OpdyX/jR77pWrt9sZJDgOm1bWvWYwUMeEVqF6jhG1Od96HTkba6DrWrtfXA8AwORN83x9S84kXts5vDzA9kXL2/BwAAXDkMJwFGgPLaNfrO9p/p7iWxAIZROuebunvjGs2w674zu9bo5yu+bW+PqK3b2dh9Uj3e3eFXO3/gAIajr+uEXcrWFO/6dh/U+2H6Jvn4Aa1e0azG6O0ltdm7chGZPzUaCKmce7MidhlDpVzLVzmd55Vz4wIYRuWcuWrauFxra+2GYcM55u+bAEafdm8YGQEMo2PXDjUfcq77kru1vNpuBAAAQ4JMjALj/DDUglkVfYee0u9aX9MZt4NtMjN+qLvNfRkzDmzWQs5ZCeFRsCEg1Y36zsZvqjT018pmE+SUieF0Rjct01K1a3f7VC1dIqdTukM7whTMKRp7bSpMR71Y18Tfh1nuU9u2vdq1/4x97cpV1zBP9UumqnKYDXEY2RkL+fweAQCAwSITAwgzp1P9dTeA0e120H/tdKy9AIbRoSO71qhl23NqydThtlkLH/5xZAYwjLJK7xr1feSt5+3GyTLff+eewTECVN+sec5l7Gr/QDvePKYu50rMm19u70TR1c6zAYxjat6wQ49FAxjGGe3b9aJWb9g5zGo0TFeDqR3hdPKfHJFDLo5q154+qWKuGoZdBgwAACMXmRgFxvmNLOXVC3VLfb2mzalwO6+GqTPxuydanG5DIlsv4ZT3LX15baPmf+ObmuZ2PJx23W3649NbkupTDLqd87jBZBh4WQrKocZDRDNW/VBfTrgmbu2NG03B0MqUz+Wd1zznvOyJmaDCoYMpa3YE5dsuxq+PkW3Nj/Tn1zO/0EU9yxVxOqcPfWOq3DiLw69t0DnffIMdn+1Qt6pJTXNMXYGDmrzqbi2d44ZU1LbNdGrNUIPEbW6zFPL4Brn2HrWsnGrrO2TX3vsWPnAO1dO1vL5G85xj9IeldB16SU86He/gc+TbzpXqsd3HdPCFg9rhdPyDvOs5UM0KPwMiUz2H3DMxvLoWZliI3eC8Zl2H2lKfUyALI7f6GradvNfJXJuG79fEhqJ0O++TF/Y6z5f41yzfdgnseya3LIw8/74k/h1z/nbf+33nb7f/d8P5O7o3xd/RfNtF+fU+KPIJAMCQIRMDSMl8kHY+3G58UDWBD9OGqTPRuH2Lvpo4Dtr5MGsCD32arK+atitjgQijtKJGd28sYLva+70OUPdzenMQHWovS6FLvek+pAeZ4RSm9kaKa2KO8d4vm3KHKZ6rdo09r8CJyXkOv11tmuoK+bYLqvayJ3TozYEDGBnPb43mzzXH0aa/FCiAYTqKm82MDYHT82sbPDTXbkgyXvWmg+kGK4xS1XxjgZavSti2srBTWdZ9earz7zG94Z77Ub1xyPlRMTX5fZmGCUy0bFzsHqMfXDDMcqYgSvbtnOu5Ks1jneNcunJZUr2Ifa3tzrtV7vVL+06yGSg69JcC1XMwr3uTrWthN7mcY56zWJu3L0+useAfQ/T656iiVA2mloZzbeJqaTjLNc51aUk3XWi+7SzvPdOng29mGcDI9++LI/h3zAQmfuD87Y77u2EWC9gu6vgHOmhqCs25KfRTxwIAEBYEMYAkXoaD+SAtd5jGI2oJFMHcu6fN+VheoZrvNzrdkQA71MB84K6ZY7IjAu02PKUPzQdd065+oVmIybPdDPcDvfP4F1JlhWRroW5y9plVB99kNJh6EGax+znt3WCP0bm1bPOuyTTzXEkFQp3r+Q1zrN619NuYaxltt/KHKTrD+bZLkPUQkIHOr8YLLhWoAGqdCTq4fSWTNbEzWnRz3YZ2tXU7HdpgpzGOuc98428ev1O7zfujYq7TcU/Ypqn6SsFS3KfrK+77JNaR3/fHY86/2QwpKdWN9fe4dRFkptc0Qx6iBUZ3al1rum+vc2xnhlvMKXWzLhIf22xS/h1JgZ3jB9TqBmPSDweoq7dFKdMeZ24iDXenfN0bN7xkX7dSLd2YcJw32qBM3oGUqc7fFufaHGp3rk3yddGcxWkKgubbzijX5Enm51mdzBQEiMr374sR0QSzL3OfCXwuqZCpD9QSfQ7n7/a2Z1P8jcu3XdAZvd5ursd4Tc4yoAcAAAaHIAaQoLzhh9EMh5YVa/Tb/R2BIIGpM7FFv97wlPY+HR88KK+03/2manf8Nf326eecD+KOSZPjgh/5tbPBh8FmBdgshWxqPMxYZacsNUUt18cP5Tiz37kmTkfDdepk3HWJ6j6oN51zi3HO07QzHYVMQ1nybWf517evK9P3/dmdn/s6pDu/XFQvUL37+nnDD4Jp+R1Ox/qx9S95M8ak0bVnrx2y4Heg4redPOVuKpzam9wpRdv+GOjI7/+LO8NJNrOU1MzxhhQ0rn9R+44Hr94Z53ztYgo5tdv/otY5He3VKR67z84kkaqjGc3G+HKqrAIbvOk+NuD7LCvO6/6QCcqkeN11/Kh2rI8FoOobYr/tkcrxdil/7pCOJ4JTsHrXZZ0f4El5/vm3kyboRvfvaJ86vQ0ZDe7vi501SPP09ZWVbtAzqT5Q3N8QX77tUinVjTfaRQAAUFQEMYA4CzV/iflU26a9zgfp5A/L1vHXksZI+8Uj2xKCG1HHT3qd4AT5tnMNNisgmqUwwAf16kZ92e3MDVAk1JFcILRDvaZTXfFNfX3VQpUnfVvpdBQSrqUn33ZBEd2SzRCQLM8v24DPgKLfrLelqZ/Qq0w1SLu7kt8pwW2dXWnfMXmJH0riy2FIyaGX8puZIsd20cBGdbnqahdo7arl2rppuVq2e7UvUnY0o8MBapKHcdjgjSlmmm1XNqMBX/cz2vGCyXDJLjiUvfRDOjrcIq2OSRNS7C/fdjka1N8Xhz9krKJCfdu8QHBW8m2XoKPrrF0CAABDgSAGEJRL/YQ4Ni3Zjq3OXp7t/OMcJG9IysDZHOXz57n762s/kDaw42U8pJ4B5MgTj2jvoW6VznlQjRt/ox9s36J7GxbGD8dJId92Mfab1gGCPdmfnwliDL4763+z3tXV6/4c3mw2gqaqaXuTGxDwb35gYKAhJfmeZ67tTLHMtZucY9u4TE2m5oSpjZF2WI7PDxwknke5ln/DC960Fmhmjaxe94/6vOCAc9xV7oZAJ7kQAYN0AvvLSb7tAgb79yUajN3ziHIquJtvOwAAcEURxACCsq6fkMh2ljMFP/zAQ1w6dL7tCiEwHtzbkJafLfLhm+k68H7GQ7pgTIeOPLFGP9/wSLSmyLQlD7oFUu9tyNQty7edleW1y/78ClXUM0RsNkImhc0ayFPtPbFimd3H1LbnJbc2xjpbH8MbTpLG/oPuMI7KJfNitSgKXtBzEFIENkaSwf598YKxmdqnlm+7RIUY7gMAALJHEAMohNr57njuTMGPGfVe0bq4dOh82/lDTComq8zdkA8bQClIcCS7jAcd7/BqipiieW7RUhOUyKI4Z77t8g5KJcry/HJUWTnBLg1f/gwTXtHQxJtfWDT7WUqKY7rWrrTHaYplrn9Rj+066tbG6Iirj5GOX1skVgw1Mn9qQQt6BmV83f0hJ8FaEv6Ql4RaGQWRan/ZGLBdrz5y3xuFCLxk+v0b4iy4tPr0UaYxYAAAoGAIYgBBH3nBgdIl92uGtyVZdfJwhgGHGtSu0d1u6n38N/n5tpNe01/cb5Zr9OW0GQmRzMMusgigxKtQacrCdWY6WluULykgslD3mnoWdi2OKVr6ginWl+p5820XL7dvWvM5vwTVdjjD9iZtzdDZjNYTSDctY7UtilhsA3YwByps6Xf+s5mlZAiY4wwWy4wq12S7lE7Hrjbnt8z5jXKnWy3XV+eWZjjv/MRe9xT1N1z+EBanax1XhyNWwLVyyd1p2jqqp2t5berXIXXRyXT7i8m3nTlmr8BstrN25Pv7l2+AsVCBSfteyXoWFgAAMFgEMYCg4wfslKY1unvTGs2oDgQInOUZq7boBxsf1NcTAgdeOrQ0beVv9J24mg22zUovIf/DbVviho3k28440urNWlK65Gf6TkKHv7x2jb6z/Wdq3JQwDWwKpXMXOOdpV8w51iYHRXq63IviHKe5Ju6iq7y2Ufe609F664kBkfKGek0z9Sw2bdG9zvPGHUv1Qt3rTqGaLN928bL/pjXf80tkpuN0hzM4MnY2A9+sN226R3WBx0Vq79HWjYsHHMIxOPZbcveb/enOlbKcTnDwWLIpbOl3zIfFkJKKuXooeD7OO8e9npuWaal9DdM7ql1mxg2TVdLgDSUpWEFPnz+lq8w0qsu1NhhwMAEIc5zu+ye5DkfHrr2BKVidtqnO03nfLF2Z6n1XqpqVCW0G2J8n33aebKfhHdTvX77D7Qo1TG84DTsCAOAqMerORYsv2+WC6+1J/mhQVRVRZ2dBPxYOK5zfCFDdqO9s9IZwpNJ36Dn97ongTCIRfdX5oF2jbpmaDe63eymY4nG/3hW8dvm2iylv2KJGdzaVVLrVlnEK0oW6d7v9hjPIzBCQNDNLmsca3W3a216pu5co5f4yH6Pj0FPujASJfy1yb2evZ4YmrgKfX1DdKr/YpeFNo5l6FgpH9QKn0znXS8lPZGo6nJqqmjnxz+E/f9u2Zj1mM3MiDcu1eUnpgNsS+Y9JcuglNT7hDaFItb9k07V2uwm6JJ+vvw93ms4cimPm0y7t+RjO9Wxul5qWTM3yXAynzYoXs+yYltuO/QCvuct/rF1Nkuk5Bm7bts1M3WpXA483cQIbM02Qan/5tktkr2d3u9atP5AhIDSI37/aNW6wN9PfyZTybZcgm981AABQWGRiAImOt+jXK7xZMbwEbsv5MN22zfnAGxfAMGxa8qlW/Xp9cjsT9Ni74dspPijn2y7mzC5T9NLUiPC+yfQ4z2M6+Csyd7jNkJTfbnjOZp54+sw5vpBqhgDz2KfU5hxjlLPPD53r0bJ+i03HTp3x4B+jaRt3fn77FAEMI/d29noOJOU3r/mfX9C+1na12afo2rM3cwfv+AGt3vCSdh+KOzu3IOW69Qf1kZtFUjwdu3Zo3R47vMHndPZ3/9GfOcOflSRxatVEdqrVLL5xLyb3fLY55xP3q+Ccj62RsS/uRNPxz8VRtG/Wz2jH+mbnWGPvFU+fug45r/2KTIGBYNv4903XoXY1bwgGMIL6dPBp0y7++vht0u8v33Y+P7vFZMhkem/k//uX76xBhZltaLoaTOCsu127CGAAADBkyMQoMM7vKmQzN5TrN3r5tsNVIJdv9lFIXvbJSLnu+b6PCvn+G7nv5ZH1XgEAIDzIxAAGqXz+PHfoSc7fBObZDkCRVC9Qvck+KXBBz6vbGe14ul1dzl+7pRvvSV3INoTMMBIz1GrAjCsAAFBwBDGAQfKKc3arL8fp9fJtB6DwIrWxGiVmSBWhxQIyQ6fMkBS/kK3dHFbR+iuHXsqp1gsAACgMghjAoGQ/A0a8fNsBKBhTXHW7NyXu5pVeAMPUpaBAYxHsf1GrN5iMDEe6WXtCxLxP/AK4AABgaBHEAAbFFpPsPmmLz2Ur33YACubG0tjsMN1mZo+dWk3HtHhMRoYpshrywK0pIsv7BACAK4fCngXG+QEAAAAAUBxkYgAAAAAAgFAgiAEAAAAAAEKBIAZywlASAAAAAMCVQhADAAAAAACEAkEMAAAAAAAQCgQxAAAAAABAKBDEAAAAAAAAoUAQAwAAAAAAhMKoOxctvmyXC66354xdiqmqiozoGS5G+vkZdaua1DTHrqhPXd1n1fr0i9p33G4CAAAAAKAIyMTAIJWqsmKqmjbeozq7BQAAAACAYiCIgZzte6JZjSvsbcNL2t1tto7X5Gr3bgAAAAAAioIgBgbn+FG93t5nVwAAAAAAKB6CGBi0jq6zdgkAAAAAgOIhiIFBi1SOt0sAAAAAABQPQQwUyFmdZHYSAAAAAEAREcQAAAAAAAChQBADBTJVTZsWqI4ZSgAAAAAARUIQA4PWsWuvmg/1qatirpo2Nqlle5O2NpTbewEAAAAAKAyCGCiYSvsTAAAAAIBiIIiBwaudp6Y5pVL3MTVv2KnGFc1aveuMvRMAAAAAgMIgiIFB86ZY7dPup1/UvuMELwAAAAAAxUEQAwXCFKsAAAAAgOIiiIECGa/JzEwCAAAAACgighgAAAAAACAUCGJg0Dq6ztolAAAAAACKhyAGBs0r7AkAAAAAQHERxMDgVE9Xw5JSuwIAAAAAQPEQxEDO6lY1qWW7vW1crBqzsfuYXmd2EgAAAABAERHEwCD1qetQu5qfPqAOuwUAAAAAgGIYdeeixZftcsH19pyxSzFVVRF1do7c7u5IPz8AAAAAAK4UMjEAAAAAAEAoEMQAAAAAAAChQBADAAAAAACEAkGMAqMeBgAAAAAAxUEQAwAAAAAAhAJBDAAAAAAAEAoEMQAAAAAAQCgQxAAAAAAAAKFAEAMAAAAAAITCqDsXLb5slwuut+eMXYqpqoqM+Bk86lY1qWmOXVGfurrPqvXpF7XvuN0EAAAAAAByRiZG0ZWqsmKqmjbeozq7BQAAAAAA5I5MjGKrnq7l31+spRV92r1hh3aQjQEAAAAAQF7IxCi240f1enufXQEAAAAAAPkiiDEEOrrO2iUAAAAAAJAvghhDIFI53i4BAAAAAIB8EcQYMmd1knoYAAAAAADkjSAGAAAAAAAIBYIYQ2aqmjYtUF21XQUAAAAAADkZHZk67cd2ueD6+8/bpZgbbhivjz++ugpdnn3nlP5WXanJt0zTorvm6T/Xz9N/+rtj+t07ydcHAAAAAACkRibGEKq0PwEAAAAAQO4IYgyF2nlqmlMqdR9T84adalzRrNW7ztg7AQAAAABANghiDAFvitU+7X76Re07TvACAAAAAIB8EMQYMkyxCgAAAADAYBDEGDLjNZmZSQAAAAAAyBtBDAAAAAAAEAoEMYZAR9fVNaUsAAAAAADFQBBjCHiFPQEAAAAAwGAQxCi26ulqWFJqVwAAAAAAQL5G3blo8WW7XHC9PcnTiVZVRdTZ2WHXRqa6VU1qmmNXfN3tWrf+gEb2mQMAAAAAUDxkYhRdn7oOtav5aQIYAAAAAAAMBpkYAAAAAAAgFMjEAAAAAAAAoUAQAwAAAAAAhAJBDAAAAAAAEAoEMQAAAAAAQCgQxAAAAAAAAKFAEAMAAAAAAIQCQQwAAAAAABAKBDEAAAAAAEAoEMQAAAAAAAChQBADAAAAAACEAkEMAAAAAAAQCgQxAAAAAABAKBDEAAAAAAAAoUAQAwAAAAAAhAJBDAAAAAAAEAoEMQAAAAAAQCgQxAAAAAAAAKFAEAMAAAAAAIQCQQwAAAAAABAKBDEAAAAAAEAoEMQAAAAAAAChQBADAAAAAACEAkEMAAAAAAAQCgQxAAAAAABAKBDEAAAAAAAAoUAQAwAAAAAAhAJBDAAAAAAAEAoEMQAAAAAAQCgQxAAAAAAAAKFAEAMAAAAAAIQCQQwAAAAAABAKBDEAAAAAAEAoEMQAAAAAAAChQBADAAAAAACEAkEMAAAAAAAQCgQxAAAAAABAKBDEAAAAAAAAoUAQAwAAAAAAhAJBDAAAAAAAEAoEMQAAAAAAQCiMunPR4st2ueB6e87YpZiqqog6OzvsGpCPctU1zFP93KmqrLCbdEzNK17UPrsGAAAAABh5CGIUQXn9GN18s12Jc1n9vdLJFz7Tmb8V47KP0pR/HK3J+kx/+ufPdN5uHVi+7a6MulVNappjV6IIYgAAAADASMdwkiE1SmMnjNLN/zBaty8cZbchN+WaPMlbatu2U40rmu2NAAYAAAAAjHQEMYqo97cXdeCfArdfXdIHb3gZGGO/co2mfN5dRD6627Vrf3KmDwAAAABg5CKIMZT+dllnXvtMJ3vtehGMnWAXcpRvOwAAAAAAhgo1MYrAr4lhMjGOvmM3Rtn6ExMu6+SvLunE3+zmz1+j2//hGo3tTVeXIk2720br9gVmmIpdz+SDSzrQal/ufNsFjLvtGt244BpNiD7HZfV/8Jnedx6b9vijdTdGOdfpGk2+2TkG+wiv7cA1OdyaGJPatW79AVEiFgAAAPj/t3c/sFGdZ+Lvn2x8BcFVwNhsYgP2QBJoWqXFdiDkZ+Ek/KARkARrc43sRLqi97esgpXiCi4SoFQUtQKkXKOSRgYtu7+iKyW2sLKy0zioC9soRCgUYjtt1KbQBAYTZpKNzZBo+SeRzX3fc94zPjNzzvzz+M/Y3480+MyZeef8mRnj9znP+7zA5BHNxCgsLJQfPPSQ700/jmH6e9NxV51+3WGPBiKGafSzL3RAokB+sNodwNDukLvuv1N+8P/c6T9UZuYdMk2dhwX/951yvyuAod11/9/JD/7vv5Np5n5SpUVSbhYBAAAAAJNDTCaGDlY89ND3zb0hH330Z/nTRx+Ze+ljdhIPV76Vy6f+Wy79JS6zIdtMjBh3yIL/506Z6fsafjJrN23ZnfKDR3Rh0m/lytv/LeecY/l7tY9P6X3Ud76VT/7fb2ToE+Dsv7mrHr+s2jrnYdr31GuutoudemewDLFnJ2E2EgAAAACYbGJqYuhAhQ5YuGUbwICPmXfI7NV/Jwu+l6ezk/z938kDJoChgynRAIb2n9/Kpf/9jan5oY7TbwaWK3aAwx3Iuf6Xb+STT+zlu4r9zk2JBOpXSZ2eXjUckX57JQAAAABgkkgo7OkOZBDAGJ6E2UlUx/1Pb/+33FAd/Jmr83Sa1RIzBMR3OMy3cumUHZy464E7PIaGfCuX33JnaAy5PugKiLhVLJV9h5uk/fA62btmnpSFL0jXQephAAAAAMBk4zk7iQ5cHP+P3xPAyLlv5fpf/lv++P/pQIbq5D/yd1JiP5A3phXbP28M2j89DXxrHZ9V/8JakVshdbtsLwIAAAAAJhHfKVa/+CJHVSeR6D+/lStmmtW7/ApgYsjFU7J5fas0rD8ird0RKSudJ00vLJWAeRgAAAAAMDn4BjGQx7LNgMig3V0mI8OTM+TkitdUq8MxICc62qS1Ty0yOwkAAAAATDoEMcbC398RnZr0hpPw8p/Jh2BMW2ZPzZqubDM8UrW7ftbs5/1/5zON6h0yd6ld6+PG33IdxAAAAAAATGYEMUbVHdZUotZUqurejT/8d0yByxtmVo/761yBDD1taZ0zpWkq38oVa4aPO2T2U38nJe4gg3qdEt8ZUTJo95//LZed5/5fd8bOsqL3NTqN6rdy+T2fQp0AAAAAAGThjseXrxixnuaVwcQ5KMrLA9LfP7HnlSipK5D77zd3/Fz5b/nT//7v2EyF790pS1d7Bxpu/OEbuVx8p3pde2pT75lBlL//u2iQJJE9tanXzCCZtXMHK7x47aPTxn//py2zgzX6WP/oGwApkcY962St9Mq27cxQAgAAAACTCZkYo+zGFdWJf/sbORUfwND+oqdg/dZkZBjq+Z/8f7etTr3vFKRu/6lnP/lGrqh2bvZ2YzM/YmTU7lu59L9vW9PFOgVKbWrfP1HH8P8mCbIAAAAAAJAlMjGQZ8jEAAAAAIDJikwM5KfSKqmvKTF3AAAAAACTAZkYyDuB+kbZu6bI3HNckNb1R+WEuQcAAAAAmHjIxEDeCXa0ybbuCxIKmxUAAAAAgEmBTAwAAAAAAJAXyMQAAAAAAAB5gSAGAAAAAADICwQxckwPlwEAAAAAALlHEAMAAAAAAOQFghgAAAAAACAvEMQAAAAAAAB5gSAGAAAAAADICwQxAAAAAABAXiCIAQAAAAAA8gJBDOTAvfLTqp/JH2t+Jl3lD5l1mXJeo0l+WmhWAQAAAADgQhADw1f4PXniLnsxMPdBedpeREaWyerDr8uLHrfn92yRR2sC5nm5V1LforazRRaa++nKth0AAAAAZIsgBobv2l/knRv2YvDSx/JbexGZqJgtRWYxXlFptVRv2C3P149EICMgD1SVioQvy6BZk55s242ukpoGWb3HFRTa0yKrRzAgBAAAAGBkEcRADnwuv+r9hfzw5C9kbf9HZh0yMscEMfoOyKvrn3PddsixvrD1lKI1z45A1sNcKSpVPz6/LAP2ijRl2260BGRhc4s0bHhG5uv9dJSWyvwNu2V1jbkPAAAAIK8QxMDkULFUtu5pkvbDTbKvvsSsHD9Kysqsn+c/eM/6OSQoZ/f/WnqsOEaZzKywVuZOzRKZr34kbjeFbNuNioA8ume3rKwslUjfAWnf6QoIddsBoflPNcj4+xQAAAAASOWOx5ev+NYs59yVwcRrtOXlAenvD5p7E89EPz67AOcG+bGpgREveOmQrO3/3Nzzcq88OKtW9s5dKAHzGsHBk/Ivl34vMvdn8sviQfnNh63yq2v2Y7lS29wkTZXmjkSka2ebtF00d3PC7jhXf35AXu0UebSuTqpVJ1rCPdJzsEXel2WJ61zbX9j8uup0h6Vn55aY9Tbz2qU9cmx9i5w1a6WiQZ7f9YwU6eyN/V7BBK92y2T1njqZX+pOT/CTi3YuFQFZWPcTeVidg+jQGX0u3npD3j/p9Z1xnVPr+FT7+mfl4TXV0fY6SPE79Vj8bxqdhXHfB7+WtxNe1+dcAgAAAMgLZGJgFNkBkPYFQwEMLVBcI79c1CT/OM2syEtmeIUskdW7NtrBCq20WubXbZHn49ZV1y2zly3L5D4dYAmfkb95BDAW1v9EdbpVh737jdhOtxmCEgldsu8nMPvkrluha2+kFYhQctHOKKnR58DOjoip/ZGs3kfFUmsoiHV8OmBzWLV3BTC0osqN8qRH27P7t3gEMFzGeS0PAAAAAN7IxMixiZ+J4e3B8iZpn1ucNBPj6e/qTAu9NCjvnvs32fSl/bwHCx+SjQvr5DErsDEymRjWcJIXqqxgQKj7iGzuyHElBycrQi/rIQw6O0B13F/cUG09nLDOnT3htA2H5fznIXuddm+ZyXxQ67t/LW93xH6u9OwgDWtK5fyh51SH3ax0S5mpoWdE2Sjzw29K+/b2DGpbZNjOdR5iMycC6hieVcegH/PIQjHtIuq86FoWReEeOXbwDTl7UZ8HXfNCB0XUou/xebH3vah7h7wWdz4BAAAAjH9kYmB0FC6XfzQBDB2kcAIY2sfXPpJNvYfkN2aGkxFx8ZS8vL1VGta35j6AoTmFOXXH3umkf3ZZIvHrjJjsCaet6qjPr6weuukAhu64q859fABDKy6zAxyRz+z7CVJlajgzomRanDOjdstktQlg6GDLazHnISgDHS3SbtWpUMe+JDajwqkTYmWAdO+QV7e3mACGFpSznW/a5zcDC5s3ynzpkQ8IYAAAAAB5iSAGRse0ErG6qIPv5T7LYhyIFuZ8y5WZYIII7nXO8yKhoU50dF33ATl2aOjW092jOunVsnLX6/J8s3v4iRaQmfeqH55DUGwLHzbZD65txXD2L9PinBm0K6mvswqARrp3eGeLKAOnz1jBiKKyufYKww7S6OBH8qwJ/+E0sXTmil13hFoYAAAAQL4iiIFR8eBd9lwQwetfWj8nGq+sCDuIELvOfl6PfOrq0Dttz59+T86eHLq939Eir23fYc1Moms/xEwLaupF+GdDmCBHkkwNr/1LRybtho4t08wHZ//1ufJuW7JksRVM8Q3SuNhDb3RAxKtwKgAAAIB8QRADGDZTmFNCciXaQXY64e51TgFPd1FJr7ZuQXn/rR5rqajMNdwi1VCRaFFPv0wNr/1LRybt0nyu57F4FCWN4xU4SqRrZ9gBDF1zwy8bBAAAAEB+IIiBURWYNsssTSBOjYi+065hCqYT7l7nVUvCs21qXsNS3EpqlljDOPwzNTz2Ly3ZtvMTkEef8hj2knL/0wiQVOhpYXXxz5BVV4QMDAAAACD/EcTAqPh48K9idVGLH5SnrTVxCmfJfNe0qzmnZyfZ0yTth5tkX709tCVnvDIJTCc8Zp3X81JmVDid/NghGcmyEKyhE85sIH6v6wRPMpVRu6Bcseq3Vst97qEwLiVm+lhd/PS0K0siWmPEt+5G8kwNe0pXXcTzTWlfrwuCmgcAAAAA5DWCGBgd1/4i71izjyyUX1atk6cLrbWWB2etk65FdfKYuT8Sauvs6VW1sjUrpbHCXs6FpMU6s1hnC6iOeIOVSWB38r2GhZRKdd0yiYZkrMyD1+1pV/v0jB9erxunsk4erRkaplKiXuPR5gb1LqWQZruzH9hDYeZvaJHVrufrfX3UGuZhB2N6DsZO1ZpyqIgTJOo9FZepYYaPmGlsM5s6FgAAAMB4d8fjy1d8a5Zz7spgYvehvDwg/f0pOlZ5bKIfn58Hy5ukfW6xBC8dkrX9Q9OnxihcLl2LalQ308ONs/Lu9YXyWLE9BWuuZzCpbW6SJqv2hBaRrp1t0pajq/MLm183s14MDVmw1/XIMZ0FYK0JyKNWQMK9znmeueNHT7Oqpxc1dy01W+RFk20Ry96Pvy0ZqgPhPYzC2R9zN46eDtW7fkTm7ZIfY+x5s3mfKze7UGdp3PaS71sMPe0tAQ4AAAAg75CJgdFz7fey9sNO+c2gewDAoLx7qVMaeo/Iget+JRyH70RnrzXLhxbqPpazAIbuOCfWZjDrYoY6eA1/cNp6CUsk3CM9h3bIq/EBDO1kixwz2Ra2sJzvPiDt6+2AgJ3JkKygZlDe1zOfxLyGWNs8ttMvgKFl3u7s/uek/VCPeo5ZoYVj9zdW8qEimnemhmmXDt9aGwAAAADGMzIxcmyyZmIAAAAAADDSyMQAAAAAAAB5gSAGAAAAAADICwQxAAAAAABAXiCIAQAAAAAA8gJBDAAAAAAAkBcIYgAAAAAAgLxAEAMAAAAAAOQFghgAAAAAACAvEMQAAAAAAAB5gSAGAAAAAADICwQxAAAAAABAXiCIAQAAAAAA8gJBDAAAAAAAkBcIYmCCuld+WvUz+WNNk/y00KwCgBgl0rinSdoPN0pjhVkFAACAcY0gBjBpmUBP1XJ50KxBtpbJ6sOvy4set+f3bJFHawLmeblXUt+itrNFFpr76cq2HXLFBFD2LJXMPh3ZtgMAAJgYCGIAwHBVzJYisxivqLRaqjfslufrR6LLGZAHqkpFwpdl0KxJT7btxkBFQBbWb5Hn9+igUIs8SsYEAADApEYQAwCGa44JYvQdkFfXP+e67ZBjfWHrKUVrnh2BrIe5UlSqfnx+WQbsFWnKtt0oqtliZ7Ps2i0r11Tb+yshuXLRehQAAACTFEEMYNKaJfPvMovjXcVS2WrVLmiSffUlZuX4UVJWZv08/8F71s8hQTm7/9fSY8UxymRmrrMIapbIfPUjcbspZNtuNJ18Q9p37jC3NyWi1/WdlrPWgxPBTJljBWYylW07AACAieGOx5ev+NYs59yVwcRrfOXlAenvD5p7E89EP74YhQ/JT+cukyeKi6Njs4M3zso7l07Ir7783Kxx6PoLG+THclIaen8vH6v7T3/3H+Qf3W0HT8q2v+rH/NwrD86qlb1zSyRwV7FZN6javafafRTXzmzvrkH5zYet8qtrmW/vwVnLZePcGnks2tH329aQB8tVR3uumG2qFV7naLDTc3+fLq+VfyxZqI7NrHK2d0k9V79WLsxaJ11z3dtIQu3nD9V+xsvsvMS+7/p8bFy4TLU179+NQXn30r/JpoTPS6za5iZpqjR3VHe2a2ebtOX0inxAHt2zW6o/PyCvdoo8Wlcn1ZWqpxjukZ6DLfK+LEtc59r+wubXZWVlWHp2bolZbzOvXdojx9a3DHXCKxrk+V3PSJHO3tjvFUzwardMVu+pk/ml6fRic9HORQ/rqPuJPKzOQXTojD4Xb70h75/0+p3nOqfW8elhIc/Kwzqrwn6CRNSx/049ljIbRGdlbKiWSPcOea0jl79fdX2JdbK21P5MvS8LpP6FanXOzR6GI+r4jsnLJ/33MFCzVOqfqlJtzAr1+Qz19cgr+89Jwp7WrJJ9T82TsnTehr7j0qBew5JtO5dM9tP+vl2Q1vVnZHbzSllbqc+HOheH2tS5UOcsYZ3VDAAAYFSQiYEsqI7pd5vkj4vq5MeuzrkWuGuh/HjBBnllllkR764SuV91ZF9RHdtfxrctrpF2vyKTpk37At0BdwIYmnqN4jppTzYLybRMt2cXvGxf4O6oa2lsy0UHNDzPkbrFdvbN/iUEF8z2FjXJK+X3mnXDl1YAw9Mwzot63zeqz0y7Oh/RAIamlh9Tn5c/fvchs2KsmOEVskRW79poByu00mqZX7dFno9bV123zF62LJP7dIAlfEb+5hHAWFj/E6vjGOl+IzYwYIagREKX7PsJzD6561bo2htpBSKUXLQzSmr0OdgtK90BDC1ZvY+KpTJfH7c+Ph2wOWyGhZiHtaLKjfJkGrVCnEyXSGjkAsRz6hpl764VQwEMTS1Xb1gn7c0LzAo3u8Dm3g3uwIBWJGWVK2Svz4wnaQUiPGTbLtv9FJkhdTrAYwUrNHUunloqjc1x6zasklpzDwAAYDSQiZFjkyITY9Y6+eOChVbWxb+cPSG/veZcRdfZBP+gOuO6k3pWXjp5RH5rP6A4mRHmruom/ebcv0UzNh5Ur6kDFNq7534hm760Fg3Vya9RnV+9qLb5m5hMD5PBMHehXIxpl/327GwKfQyD6jFXloDOqlhYZ14z/vhsTtt3B8/KY8Xq9dX+vhR3jh4s/DwmsyK6Peu56jWjjzmZJ+p1Bg7J2n7nNXLFnNcbTnZMctmdl9j3QWe//Mul35tjdH9evN53Fz2c5AW7ExbqPiKbO3JcycHJitDLfQekXWcHmKv/lvh17uwJp204LOc/D9nrtHvLTOaDWt/9a3k7LoNAzw7SsKZUzh96Tt72upKdMlNDz4iyUeaH35T27e0Z1LbIsJ3rPMRmTgTUMTyrjkE/5pGF4mRPqPMi6jwUhXvk2ME35OxFfR4CsrBZB0XUou/xDUme6TIcTiaGfS/U1yudnafkhLWNEqmtXylNa+wOe8+h1piMg0B9o+y1HtPZCK5sjYoF0vjCCvOaOpvhqJywHoi3QLYeXiHV4V7Ztv1UYtaGr8zaZbOfQ5lPTtaT+zwlros/NwAAACOJTAxk7ssj0vDhL2Rtr+5wuzvWn8tv+1vlJesybonc53dVXnfWT7bGDDn5WL2m3U79bX1XbNbBg+XLTABDd7aPxA1V0ds8Ims/POTfAc5ke4XLZa/pqOshITHDHK59JL/qPSS/uaHvLJR/TJIdoQMYwUuH5Ice58hvaEhwQAc7zB2Leq7az7W96lznPICRoRycF30+1v7VCWBo9uel4ZL9RjxWnCQb4+IpeXm7eu761twHMDSnMKfu2Dud9M8uq+5a3DojJnvCaas66vMrq4duOoChO+6q4x0fwNCKrUvrYYl8Zt9PkCpTw5kRJdPinBm1WyarTQBDB1teizkPQRnoaJH2bl3wQx37ktiMCid7wsoA6d4hr25vMQEMLShnO02di5SSZbrkjhUc2+8EMLQBOdHRJtu67b2sftiVjVGxVDaZwIDu0McMN7l4Ttq2H5Euqw7KPKkbyxouw9zPUPcxM2xrQN7vtc+De93lMf61BAAAJieCGMhKtCNeeK88PWu5vPLdJumqapI/1vxMfmldWC+W+dOsZ8RRnWCdbWDuuX1yPT6JXbtXniwxneezSbIFYgIFbhlub1qJPfRj8D27pkWCz+VXl+xBAYGS73kPfdEGO9MOPHw8+Fframpg7j/IK+UPyYNpDFUZdcM+L4PyzqD3+XCOX6bN8j+fIyxamPMtV2aCCSK413kNa4iu6z4gxw4N3Xq6e1TXsVpW7npdnm92Dz/RAjJTx3qSdMwXPmyyH/yGUDj7l2lxzgzaldTXWQVAdS0Kz2wRZeD0GSsYUVQ2115h2EEaHfxIXsfCfziNkW2wJiMROXPa+9WDpy+IlV9z70z7O6DNKRLrXe/r8anNMiBtb12wlsqq7h9qN9qGuZ/hUOI5ca/rD6UXhgIAAMglghjIii7u+ErVz+SPizbIL3WNBF33IaZWRa44M2gMyKeenefcevAu+2pk8LpfWodyfcDudOv6HtaKREnbx7v2e1n74Ul590axPDZX18BQ57VG3ap0LYzxEdTI1XlJKtt2OeCVFWEHEWLX2c/rkU9dHXqn7fnT78nZk0O39zta5LXtO6yZSXTth9U19vMtpl6Ef8fcBDmSZGp47V86Mmk3dGz+QQhvzv7rc+XdtmTJYis4kbLORaqMlNFSWiTlZjFQNsP6GQpdsX56+ixiBz9c7UZbvuwnAABAJghiIHNWPQlT3PHGWXn3Uqe89OEhaVC3H578RXSYBjJw7feyqfcX8kN1Dl+6pM7pjUEJ6qKXJqjR9d2HxixLYeIzwxVUV+5K9Gq10wl3r3OGNbgLX3q1dQvK+2/1WEtFZa7r3Ck75k5RT79MDa/9S0cm7dJ8ruexeBQljeMVOPLiBF0yD6QAAABgIiKIgQw9JK9YBTEH5Tfn7JoPm/o/suo+fOw7pCMXktTYGAGBaX7TqyjO0IobA/KJtSKH1DnUNT429bbK2pM6qNEp795Q+1NcJ3tzOENJjAwyIEbkvIzk+UyHM1yh77Rr9hDTCXev8xrW4Nk2tVSzbZTULLGGcfhnanjsX1qybecnII8+5THsJeX+pxtMyTZYk0POkIxwRPqtFUPKymaaJQ9J2sXINgMig3Y52U8AAIBxgiAGsnPjr/K7mAKbjnvlPrOUGx/JMetSbrH8eKHP9Kta4b05yVSI1mcoXuYzXei98lM9W4gSHPhLyhk90vHgrCRZFtc+kk1OrYlkAYRCM7yn5mfSlXGwI3WAKBfnxbtGSprnU89OsqdJ2g83yb5cF0r0yiQwnfCYdV7PS5lR4XTyYzMJkmUhWLOWOLOB+L2uEzzJVEbtgnLF+opXy33uoTAuJWb6WF389LRriE20xohv3Y3UmRq2dJ8XJ+PPS5HMmWMWY5RI41PzrKVQ7yf2d0CJ1smorPaZntS7nbcZMtvzNVJJ3S63+wkAADA+EMRAdu6qkb26XoO5qzujetrSLj2dZo5LY/z20kn7j2u1zfaqdfLTWe5Outnuog3S/t0ks1uk69rv5V+coMmiJnnFvS09lWh0utCz8i+5mDFEz/qxoE7aa5rsISOFsQGIB9U27cwX1SFJUo/i6blmeI+iC4R6BxrixQaInna3sQq2uvZl2OelWB5bYGp8mDWZnM/aOnt6Va1szUqfDll2khbrzGKdLSAlNQ2yes9u08n3GhZSKtV1y1Q30qhYpp7/uj3tap81ZYTH68aprJNHa4aGqZSo13i0uUHsT0wSabY7+4E9FGb+hhZZ7Xq+3tdHm+0pYnUwpudg7FStKYeKOEGi3lM+mRqGV/ZLGrL5vFRv0AGPBeqdM/QUpNFpRS9Ip3tWnIunpLNPLxTJ2l2NsrXGFShJ1i7GOfmD8xovLJVa9z5WlEit+zVjZNAuJ/sJAAAwvtzx+PIV35rlnLsymPhHUXl5QPr7U/xhnscm+vFpD5Y3Sbs13aYHPZ2pett/OXehvHvuF65pT+81HVZ7ik6vGS6c17Wm4ozv0KrOfteimqEORoL41x3O9py25m6CLI/Bhy6SutEVhPBkTS/rPzvL0991ZoXR/PcvQdLzqqemdc/sks15GWoT1MNiPNum3t/a5iZpsmpPaPZ0kd6zLWRuYfPrsrJSdcR3bpH3zWva63rk2PoWM+wiII9aAQn3Oud55o4fPc2qnl7U3LXUbJEXTbZFLHs//rZEBwgkZp9iOftj7sbR06F6zyaSebvkxxh73mze58rNyjbRwZqY7SXfNzc9W0qyGU/S/7yUmI58RELhIrFiLwn82jttzd0EaXxOK5bKvl1V9nCOBBekdf1ROWHuxcioXeb76Zy/nkOt8rJ5fwL1jbJ3TVHKdQAAACONTAxk7OP+Vmk4d9bqlEbdOButkfFb9/pc0TN4nLSLXsZsV3WAg4Od0nAyzU57Wj6XX/X+Qh2jnjHErLKMxLbU+fzSLuppby82aT5ozmuyAIams1WcfQ1e+rf098+aGUXX3fDa7om4qWmHc14G5Z2zum3s+xccPCkvpRFwOdHZa83yoYW6j+UsgKE7zok1F8y6mCEMXsManLZewhIJ96jO3Q55NT6AoZ1skWMm28IWlvPdB6R9vR0QsDMZktWBCMr7euaTmNdQ3VEdMNnpF8DQMm93dv9z0n6oRz3HrNDCsfsbK/UQEO9MDdMuDakyVDL+vIQvyCvbW2XboQsSch1nqK9XWn0DEQPSZrUZ2pYtotodl23rUwQwtIunZPPO46p97FSlIbU/XYfOeAcwtIza5WA/AQAAxhEyMXJsMmRiAOlLnREDAAAAAOkiEwMAAAAAAOQFghgAAAAAACAvEMQAAAAAAAB5gSAGAAAAAADICxT2zDEKewIAAAAAMDLIxAAAAAAAAHmBIAYAAAAAAMgLBDEAAAAAAEBeIIgBAAAAAADyAkEMAAAAAACQFwhiAAAAAACAvEAQAwAAAAAA5AWCGAAAAAAAIC/c8fjyFd+a5Zy7MjhgloaUlwekvz9o7k08E/34gPGhQBrXFcnaGd9I1xtXpG3QrM6xwAOFUl85Rapn3GnWiISu3pIzfdel7W+3zRoAAAAAo4UgRo5NriDGvfLTqg3yYzkpDb2/l4/N2vEnX/YzU05HXi1evS7bjlwT65P3wN3S/sQUvSQ973wpL//NWoyq/dEsaQqYO3FCV7+RcN/X0qE66OP7UzwKQQzXeUwQ/Foa/v2WuTN5eAZ1gtels+eanBihQFL6svs+AAAAIL8wnASYCK56BR2+kc+umMU0lanOafUTRbJ3XaH4xDkmiSmy1XR8Qx9+Ldv++UtpcG5vRKS15xvrscmjQBp/NFP2PjEtJoChlQWmSdOzM2XrA2bFeJCj7wMAAADGH4IYwCSlr0pHO+bWLSLb3rkuIf3gjGmyaUmB9bxJqbhASvXPq9flldO3YjvEg7flhLpNHibDIaCDF9+oz436nLg+M60f3lKfmTulep5P1ooRWHK3bP1R5sGxbNsBAABgYiKIgWGYJfPvMovj2hjsZ8VS2bqnSdoPN8m++hKzMtduy+WrZtHtyjd2ICJjtyX4t2uy+R17mITOygDkgWn2EA25Ja1vXJGXY4Ya3ZYTp7+WzW9EUg6vKZ8xRaoDd0q5uZ+u9Nvl+vsAAACA8YiaGDk24WtizFonXXMXSiCdoMBgp/zwrx+ZOy6FD8lP5y6TJ4qLo1dXgzfOyr+cPSK/vWZWRJl6Fmp77577hWz60qyOch4flN982Cq/ctrnYj+Hoba5SZoqzR2JSNfONmm7aO7mkFPfIvRhRDafNtkBxYWy79lpUqY7nf/8tZyw10Y5bXzrAzjt3XUF3IqnSGN1oSxWHcsys0oXu+z8D7WtZHURfNolL5JZIAHVid5UOUXKrI70UA0GqdbHkbuaGPqK/6ZFajvmvi+PehiBJTNl7yIZ2hevY1XtXlHt4s+nXWdCD9MwK0R1uoPXPJ9rv3f6fb0us390tys7QgcX9JCP+HVWs2EYqjMx3HoSQ/ue+JlMJpN22XwfAAAAkF/IxEDG0goM+HiwvEn+uKhOfuwKYGiBuxbKLxf9TLrK7zVrHJ/Lr3o75V219NiCJvlpob3W8WD5P1gBjuClfxsKYBjD2c980X/Vrs0QjriCAIO3Jax/qsf6rRWZCdxnOvJXE+sK6M56+7N2R9nd2S+bMUWanp0l+zyHoNj1FPzarX2iyKeegt2B3vvEUABDc2ow1LnW5UZBzL5ly/ccqVvs+dTHN8vUmTCrLKpd4G7Z+08zpbHYrIpRIHXR4R3anVJdWajOcdy6J+6WWnMva8VTZLG1b7fkD3lQEHMkvg8AAAAYX8jEyLHJNTvJQ/JKTZ08diPNWT9mrZM/LlioFgbl3UvvyYH+j6JtHlSP7VWPBdRjMRkVDqete1uFy6VrUY0EUm4/w/3MBT2c5IUqqS4VCXUfkc0did+FnDAzL8ReJTdXz8U7k8I/E6NAapdMkzqTjZDweHSWh2+k58Nr0uGqFRFQj23SwQb1WEJmhGlnZ2tcd9WT0Nu7W5oW6Y534lVyZz/trIKv1b7Y7QKqY13/P+82Hf8Rmp0kVTZKHDsT407pCd6S6oA6R+pYW+OONVB8W4Ku/XTaxB+flcWhji86hMN1XtznxD7uoUwJr3XDzZ6Ivuc5mI0lk4wKt4zaZfF9AAAAQH4hEwOj5F756VwdwNDDQlplkyuAoX385RFZe+6sWiqWJ4rjszEU9fhLugN4V43stbI11OstrLGDHmfH4bSpF0/Jy9tbpWF968gFMKJ8Zl246jVDw5DqJ2ZJ+z+5b0XSZAIYeuhDfICjsdIu3GgNU4grdhn829emlsadsvi+uGwM9di2N76UzUdUJzSmIKaup3BFWq0XKpDZ7qyD4kKpc3XWox18JTh4S14+EpEur/oHY0wHMPRQhgaPY3UHMPTxbTIBjPjjE3V8bdHjmyJ1HtktesYUO3BzW94P2tkH7nWetSGyECjKtrjrFNka89lygi9TpClufWwWTrbt3LL7PgAAACA/EMTA6Cj8njyhh3fcOCkHEupaGF9+bA0bCZR8Tx6018T47V/tYSWBuf8gr3zXHkaiAyIJWRuTyd++loZ/js9EuK06wV9mdeU8dPW6tL4Rkc3xbZ1hBerxDr8r+3+7JT3qR5nqyFv9TpdoB764QGofKJStP5op+9bNdHVS75Q5M61n2GaaoRjBa3HHNs4Fvx6qxZBMyuNT72Gf/R54nc+Y4RKGe50zrGLSyfH3AQAAAOMPQQyMjmkldkfsrhppr/mZ/NHzViePWU/285Fs+vCkBKVYHisutgpyJhb6RLp0yr0zveq2D+1Ob9lVn+lDnU73jGmyN+6K+NDtbqm2npxIF6/cuk4959kiadI1IHS9iCSznzgZAKE864ynu79pHZ8zq4Y6T5nO6JErQScwMqMgIZCS3C15OToNq32zM270sJDY9bEZP9m2AwAAwGRBEAN55cHi7w51pqbN8szYQOaCp69ZWRQSKPQpJjkMD9w9VLzy6i3p+fBrK9tjm56WM9pJxbg0DgIpAAAAgBtBDAzfXSVyv1n0dX3AHo+upzM9+YvkN7/im7PWSftcOwPjpUuDrvoYaUpnPyetW9JhZWPcKWv/Z2HiVXenM6sLPMZdEU+4xRRPnCJbTTHQrnfsWhG6nobO9gh6ZXzESZatMREkPT4n+2UsZ9UYvCVnktTmAAAAAEYbQQzkQIncFzf1aYJrf5F3bqifxcsSpklNz0PyijWzyVl56a8fyW/7/01+o14vMHeDvDLLfkZqaexnrujZSfY0SfvhJtlXX2JWjm/B01/bxSRnTJP6+KKJTmc220yNq7fkfXfxyqgCmW2W3IKf3rKDJoEp3tOEFt8pc6wZOfLT0PH5nc+hQqqhYGwR1dE1VDi0bNHd/u+9nlHlAYIcAAAAGHkEMTAMH8kxq4Besfx44XJ52h0gKLxXnp7lzpL4XH51yZ595MeLmuSV8ofkwZiAgnp++TrpqlknT5s1bk9/166X8e65I/Jba416vbO6PobIYwu82wzJZD9zo7bOnl5VK1uzUhor7OXxbaiYZHVlfDaG89idsvbZmbJ1yRQJxHRo7elS9/3T3d5BhxnTZJNuY+7q5+tpWffpqS+9ii24MgCa1qnXdG3Lavesf/2NvDB4TTqtyIQ5n+4AgA4IRKdNvSWd6RQKHUHR4Jb7vbce0cz7qN6PtU8kCXIo/XooUTDzrJJs2wEAAGBiuuPx5Su+Ncs5d2UwcWrJ8vKA9PeP3XXFkTbRjy9B4XLpWqSnOvVyVl466QQdbA+WN9lDQvzcOCu/OXskdsaRWevkjzoLQw9F+etHZqUt+noej8XIcD+Hq7a5SZoqzR2JSNfONmm7aO6Osdof2TOC6MKeicURC6IdaD1VaPxMG4ElM2WvNTWoD9Xh7PoPZ6pPW9I26vm6Joae2jVhf4oLVed4mj2kIp7u2F6dItUBe4rSnM9g4mz76nXZFjM8xptzjF7nzN/QufaWeGxe752z7VTrhif1vlpT7+ZkWwAAAIA/MjEwPNd+L2s/7JR3b8T2IoM6GHHuREJg4OP+Vvmhev5vBgdjO4aq/buXOqWhNy6AoYMPrmEk8fTrvaQ3XVwnXcnqY2S4n8N1orNXesL2cqj72LgJYKTmmtpz0bSErIrg6SvS8MbX0hU0NTIcV1Un9sOvVYc/NoCh6Tbb3rklIetqvqGDHaZGxomIWRdv8JpsNtsaMrSdjjybuSSRPfXntneuS4/73KhjDAXVMSZMFTqW3Psa+36EgnpaXgIYAAAAGB1kYuTYpMvEAAAAAABglJCJAQAAAAAA8gJBDAAAAAAAkBcIYgAAAAAAgLxAEAMAAAAAAOQFghgAAAAAACAvEMQAAAAAAAB5gSAGAAAAAADICwQxAAAAAABAXiCIAQAAAAAA8gJBDAAAAAAAkBcIYgAAAAAAgLxAEAMAAAAAAOQFghgAAAAAACAv3PH48hXfmuWcuzI4YJaGlJcHpL8/aO5NPBP9+PJG4XLpWlQjAXM36sZJaej9vXxs7qbnXvlp1Qb58V0iwUudsrb/I7M+Nx4sb5L2ucXqtQ+p1/7crB0rzrEOym8+bJVfXTOrx4USqa1fLHVV86Ss1KySC9K6/qicMPcAAAAATGxkYiCvPDhrubxS1SR/rPlZ9Nb13eXydKF5wkgo/J48cZe9GJj7oDxtL2KU1Tavk6Y17gAGAAAAgMmGIAbyxL3y0+82SfuCGnnsrmKzzhYorpFfLmqSV2aZFdq138vak7+QH0ZvnfKueShj1/4i79ywF4OXPpbf2osYVSUy+157qefQEWlY32puZGEAAAAAkwlBDOQBM8ShWAcvBuXdc4ekIRqcOCQvXTorQSmWx4ofsp+ec5/Lr3rt7eV6KAkyFO6VjpOJw9QAAAAATA4EMTD+zaq16lGInJWXPmyVTV9+7qpp8bn8tv+IrP3wkPzwrwQYRk3FUtm6p0naDzfJvvoSsxIAAAAARhZBDGTNrk8xVJvijzVN0vXdh+RB83gsnU2hnlO13Dx+rzz9XfX8uNoWiW1Vu7kLraV3zx2R3/oVmryWq4KYZj9d++W+dZWbMQ1J3avOzTrpiqndkezcJKfPk/Uafu0LH7KG2sScy6p1KeqEOPvoamPVFvlcPr1unpJEbV2VVJvaFGVrVkpjhb08cgbk8ljXPAUAAAAw5qJBjMLCQvnBQw/53vTjgM3u6Nv1KcwqS7EEiuukXXXYf+r3cbmrRO5Xne5XqjbIL4vV881qTde2aI8GOYxoUc2zcuxLa834Zo6tfcFCCcTU7kjj3HjQM5fo8ySDndLw148SZlXRj/9xUZ011CbmXN61UH65yC/oYg/PsffRrFKc2iL/OM2sGI9Ki6TcLAIAAACYfKJBjGvX7EvcDz30/YSb5jwOPFj+D2Z4h12fIlo888NO+Y1VALNYfrxonc8sHrpzXSeP6Sk8XW0bzp21H76rRja6C3ROK7E754OjVVBzqP6F+9ZwadA8nsxD8op1bGrxxtmY43PX7pifZpDAmXrVmhbWI4Ahs9bZj+v34VKnq06IfT71RL+Buf+QEDR5+rv2dLHx71+Dev/evVEcE9jwc6KzV3rC9nKo+5i0XbSXAQAAAGAkxQwn+dNHH8lHH/3Z3LPp+3o9YClcLntNx/k3pj5F1LWP5Fe9h0wgY6H8o9/QC9XBf+lkq/zK1fbjL4/ISyZOUHHXULsH78qfegsPli+Tx/SCDjr0Hok5Pnftjk1pZJTEBDB6f58YwNDZFNFhNup96I8NcujzudYKDBXLE8Wu90G9f/+o3z6P9+9j9f5tir5/KVw8JS9vt2cI2dwx0oU2SyRQv0rqKtViOCL99koAAAAAk1BCTQx3IIMABhJEMyPek195Jud8Lr+6ZGdVBEq+51HDQXWezx7xzKr45Ho62Q7j1b3yZIkJ7pz1CjoYadTuGApgnJWXPAMYijPM5sZJOeAXFPnyY2ta2Zj3IeX7N45ULJV9h3Xx0HWyd808KQtfkK6Dp6wMEwAAAACTk2dhTx24OP4fvyeAgQROZkTwepJ0gusDdkdT17+wVmTv4xvmKv+0WVkVxRw9s2S+NQxjQD4dRnBAF9u0h4hoA/KJWUrgBCPuqpF2V0HP2FudnRniktb7N06F1O2yvQgAAABgkvIMYmhffPGfZgkYQzkMiIx7Jf9gFdvU2RUv6RocOkDx3YfMg5PQxVOyeb0esnJEWrsjUlY6T5peWBpTwBQAAADA5OIbxACSCUxzV9+M42QJ3EiSSZCua3+Rd1LV2BhXSuS+LCfysWYzMTUwftvfatcIKa6TV7xOtRPcGeyMFub0vXkMSUn6/o07A3Kio01a+9Qis5MAAAAAkxpBDGTk48G/2p3n4mU+U4UOFZwMDvzFvzZE2j6X3w3YtTK8ZtqIKnxIfjorjSDHiGV0fCTHrN0slh8vjJsm1q3wXv/H4op4/vavnVZNi8cWeEzL6gR3fN8Hb0Pv34Pes8cUOsNiUqhYKlv36HoVTbKvPn+KrwIAAADIbwQxkJlrv5d/cTrri5rkFXfgQAcSqpzpO8/Kv/SnLmKZjo/7/801davaZvlDrkDAvVYdia5FdfLjBUmCHPKlnI9mdLjaq31+OoMgQDK/vXTSDH2pkfaqdXFBFWc/N/gOEUkM+nwkm8wMI4mBEaeAquucxBzHvfJ0udpeTdxUt67Mll+qfXQfu3Me4+toeKmtq5LqUnu5bM1KaaywlwEAAABgJN3x+PIV35rlnLsymDj1Ynl5QPr7ra7ehDTRj892rytY4cWevjN29gunjddjNmdWjuClQ7I2IQCSepvWVKNJ6lVGZ/2Ip4dk/DV5Edvk++ZSuFy6FtUkqduQePypXju63x776XtMjhtnrdlgYs53sn1Uz3/3+kJ5rNj/fdJqm5ukSU95aolI1842abto7o6IEmncs07WSq9s284MJQAAAMBkRSYGsvC5/Kr3F9Jw7qS8a13VdwxKUHW0G076d36z596mPbzEprd5Ul5SHe5kAQzt4/5Wabh0NrYDrDv5gzmcqePa72XtyUPykt5Ojs5NNBPFqo8RO2RGH9MPP+xUx6Be36yzqHP07iW1vd64AIam99G0GTL0/ANpTHV7orNXesL2cqj72AgHMAAAAADARiZGjk2OTAxgtJGJAQAAAIBMDAD5pLRK6msoJAoAAABMVgQxAOSBAXm/N2ItVW9YZ82KYt9WSa21FgAAAMBkQBADQF4IdrTJtu4LEjK1OAAAAABMPtTEyDFqYgAAAAAAMDLIxAAAAAAAAHmBIAYAAAAAAMgLBDGQET1cBgAAAACAsUAQAwAAAAAA5AWCGAAAAAAAIC8QxAAAAAAAAHmBIAYAAAAAAMgLBDEAAAAAAEBeIIgBAACAya1iqezbs0pqzd14gfpG2de8wNwDAIwlghgAgORqtsiLh19PuK2uMY/DV0l9C+cqKyXSuKdJ2g83yb56Oo5jZ5K8DzWrZN+uKinTyxXWGk9llSuknUAGAIy5Ox5fvuJbs5xzVwYHzNKQ8vKA9PcHzb2Jh+MDkB8CsrD+WXm4qlqKSu01kb435YPOdjl70b7v0B3xhjXmSVE9cmx9i5w19/LbMll9eKPMN/d89R2QV/e/Z+6kIyCP7tkt1aVh6dm5Rd6PO6/5QXdi18la6ZVt20/JqP3211fFnU6lXJDW9UflhLWc3wI1S6X+qXnqM1Fk1oiEwhek86A6vqSfD96HERM9xtTHp7Mx9q4pklD3Ednckfg3LgBgdJCJAQCTTEnNFnn+8G5ZuWYogKEVVT4jK3dtkYXmvmOgY4u8uv45c9shPWG1MnxZBu2H81/NktQBDCUSumSW0jXXPr/hM/K3vAxgjKGLn8gZ/TlTQt2fTowAhu4Ab6iKCWBoZaXzpGlXkzVUIWDWjRsT8H2IVSKNL+gARkS6dqYO0AQ72qS1T71na1ZKY5KMDQDAyCITI8c4PgDjmTurItJ3QH7X+Z4MWB1snZnxE1mpH0uacWCyFjLOSsgfzjk6f+g5efukWZmNigZ5ftczUpTX52qMMgAmmppV0r5hnlqISM+hY/LyyaG/j+zsDB3c0B3pNmnzDHjxPoyE7DIrFsjWwyukOsx7AQBjhUwMAJgsVKf6SSuAEbY66K+pjrUdwNCCcrZji7QfelPak3W4TdbC+Q8mZgBDKy6zz1HkM/t+1ubMFn3NPfMMjvFkpsyxY14YhtqHdQBDZzPEBjC04MlT8vL2I7LNN4Ch8T7k3gKpX6O+oeFeeSWjoSHnpKM7IlJaJfWZ1LqpWCpbo/VFSsxKAEA2yMTIMY4v3wXkOz/fLYX39MhXG1vkplmbYG6DFO94Rgr+dEC+OBDfmQvI1I0/kcIflEqBWXP7T2/Ktbfa5WbZFrlnfZlc271F/iuuX1NQ1yLFT8rQY3OXyfT/VSdT7zF/uX6h9ulf1T7lrD8UkIXNP5GHK0utjpYWrYkwZ4u8uKHMcxy/fZVahh6rWCarX6iT+aVmP8M9cuxgi09dhczbZcZcITP3kuk51Ko6E+ZOjpSoY3qgTh1T3Dn93f52SfxtaOolfG5fpS+paZAlTz2jzof9aESdjw88z8cw26nnDSfDIOF9TCnLz5l1XIuHPh86qNB3xrNmh1u27YY49THSrfnhf3yDS3KU0WHYV41l6Gp9xQJprKuWxZVFpmaB6iT3HZdX9p9LvDrs9Vy/Wgy6yOFT88SK5aSittegtueW+X6aLAOf7aV1lTyD43Ouvif/HeDsk0+dhEzOp1Lb3CRNlWkeiyNv3of4LJESdbwrpS5mO71qO/5ZCwF1rJtSHGvi9tV26hdLXZW7XURtq0de6VTH5PE+xDDZMZllYRhOHQ2P8+7H+QzYkmXdAABSIRMDiBGUmx/qAcBlUjDXXpMoIN/5X89IgeocXXsrLoChgxsHdst0VwBDK/jBMzJ9R4tMr9Ld65Dc9ghEFFidLvsxHdC4Z8fGoQCGdo+65SqAodPcdU0EV8dLs2sitMjqh+39vOLxB5Z9ldp+THdoX9ylOnzRDqOiF3PYLj/ojqzqsKpjqvY4pw2HW+TR+PHT6o9gHXiIyGx5VLfdMBSI0IpKq633Imftap61AhgSflNOD6ND7X4fU8r2c1azxRyX68DUByTarsanckC27dwq7OwJ6TudOoCR9Pi2yJIqvR898mmOg2Wa7qC271oha10dRU0vx3cUfZ/r1GLwuCqcrDOZiUz2M1uZHl/w9AX1qROpfmqp+ub6qFlsdeZD3WcSAhjZnM8TH1ywfpatWSy1GdRSyKf3QUqLpLxigWzds0511uO2U1kle/d4n+/a5kbZuyHNYE2U2c6a+HZqu5UrZO+uRtmaItvBzo6JyJnTGQYwNKdWSOV9vlOyAgBGDpkYOcbxTQCP6GyJarn9ux0y2OlxrL6PL5PpBzbKVL34xZvy1b+2R7MmClSb6aqNFdhQjw3+vF1uW484TAaIqMeOzpZi/fp/OiBfvfWeCXgEZOojIjf/kItz75qJQXVojx0cukKtCz4+uaHa7pCpx9q3x2cQmKv5aj/b35qtOozVklBXoUbk7Mn4/cy2XT4YynDQV/3PH/q1nFbHYZ83dVx6BhBdQDP+fOppS9V5sMW1s7JUdJBHLcfXU8iy3cLm11Vne3hZGJnVw8j2c+acT/vY3o5+JgKq3bOmnddsH9m2i2POb6R7h7zWkezzOJzvUXZ0R9TKIOi7INWVqgMWviCtB1Un+6Lz6iUSqBiIvQLtrsXQ3SMdHUNZGtbVb915THpVOPPx/1ntpwfndZJeKc/q+JyMA//jtq+aezw+jPMZcyVenZOut85IW9zQEn/j+X2Iz+BQx3/oWPTY9HnRQQotIfvFdT5j2yxV59J/xhBnn+xjcme/qGOqWWxldUhvsgyLFJk2abD3wZXpkooeTvKCrn2ig2NZZH8AAKLIxADihS5bAYaCUq9UjIB8Z5XqQOogRVyAY+pGE8DQQ0x+PhTA0G7/oUUGD/fYd76wXz/WXLlTZ1rIYpm+vkxuHt4hgwecAIYWzFEAQ3dmTcdLd0RV58qdYj9wskVeO2T28/PLHh0vM9uC2s8nN5SpzqLq6KnObExdhWjn0S3bduNfSf1PohkO7eu3WJ3nofOm60yoc7rzgNXJdZ/PkjJzndKr3cX35O2Db6o/65V7Z6s/t4dk126Z3Gd1noaZFWCyFNKp8TC8z5kSPmMFZ4ao49Tt1u+QY8kCEdm2M5zzGwkl/zymc3zW++B3fMOgO6S6E9SwXXfe3K8e3yFVHTXdmVN6DrXJy64OtxY8eVQ2H9IZAkWyeEnyq9bZSH8/s5Xt8Q1I21v2+rV1C+xVbqqzWae/L6qDHPt5Gd75PLG/VbZ121kgUjpP1m5YJ+2HdcbAyM5KMvLvg4sOKqxXnXpXcEafFz2jh1ZaFnteAmUzrJ/6fMa2OWXO5Tx5JEndiVCvDsqYOxZ1TPp92N6aIkhgaoyEI9Jvr8hSkcyZYxZTuahrn7RKw/pU+wYASIUgBhDv0im59YX6ec/smCEhWkHdT6TwHpGbR+MyKeY2SOEP1E+dZZFQIyPWzV6Px+eabd1TKrcPb5GvchSwSFDRIA9bf5yrDnCKK+mehRudVPvSUokcsjvQacm23bi3TJZYhTJ75Fiyq+0X34vp5GpO8cieuOBG1MXLdic4TrbtLMOdFjVaqDLF+zesz1lQrnyufpQ+I082L5OShNT7YMK5tGXbzi0gD6QzBCTN40s34JOxvuPpdYIq7pfF1selVzr8jufkp+poRcqq7s99Rzrd/czWcI7PrPcaDhBYorMp1KfgrbiMhxycz2CH6mCrTuy2Q732VMXqU1K9ZoXs1cGMmtwHkiwj/T5ERaRLZ0WYe279Id/fSinFBz40Z0iQnurUCgJlMEQnV4Khq2YJADDaCGIACYJy2zOIsUwKn1R/wephHn8wq4yC6sXWc29/eMojy8JWUKr/LA7LN9ZluDhl9rb0EJX4186lkiWL7Y5V7ynfDrd9JdpnZganE9u9QzIakpBtu/Euk/oJMQIy8179M83aElFZtnP2c5gWWjUsUmdzDPdzdnb/DjnWF5aiyo3SsOt1efFwi6yuXxaTkeIl23ZDTMZQimBP+sennpMq4JOFUOiKWUphjqlLUFqlOsn2rAiJt/QK4WYj7f3M1rCOz8wwkXClv0QerdLv7gX5Q/znPIfn056RpFUadh6Xrj69H0VSvWGdbM1ktos0jfj7MAxOIKB6w6rYWiG6toYZghIOeXzLLp6SzTt1IMgEgXaZ87/HZLaMQVADADB6CGIAHm6H9SWyapnyiH1fs4eLeBTzVOyinGG51ePXYQnI1EX6Od5FPadaBT+Ttc8N5yr++dP++2lfifbuJNud2GTtvWXbLnN63Li7Q+F/y0lnIespNE1nOVnwwwk8xAxHyLZdLpgAShrZHMP9nOlA4tn9W+TVnTvkWLcellEq89dstAqkrq5Pli+QbTsjzXOX/vGNTFFP5IZngc8kBT1HxMVz0ra/TbZZAZW4fZkMokNN7KKo0d/Ru0wwqO+4f9aLMzxj5xFp7b4gPeGIhEqHghr7mkd2mI4zFAYAMPoIYgAeboftdImCUvMnkBkucvt3v06YGjU9puaFZz2MgBRY9TC8AxyjK9mV6FHOHpjIapZY9RSSBT8W1j1jdahjhltk284ZYlI6W4qtFdkwn42cBEfSy3iQi6amyPrn5NWdB+R8WAclfpI480q8bNtlHZSKl+bxjbTPVKdO/9TTQK63x+L73lIVi9QzT5jFcWO4x6c6wZ26A106L/rZSDpjRS7PZxwnoJLSeHwfhs0O4MQevy6cely2Rad/TeLigJzoOCovb2+zhuro7BY9VEfPUrLJd4aSK/KZvlYx7PMZkc+8shYBACOKIAbg5Q+n5ab6YRf3dKZU7ZFrXrOVRJXKnXYGeZzAUNHPZEU9PR8bCaVS5FmITE8TaooVenZUs+2YjWaH7py8HN+Z8LnFVMjP1md2cKBozbOy0F6TqCJxOEPKoQY1W6yZROKv5GfbTuQ9+dS62lktD/tmJASSD7tII4ASK5vP2TJZretZmHsxdNHSt3S1Aa/XzbZdrMwyhrL9Hrno2Qr22FeevablHLboNJDV0jjs9PoZMnu8pejn4PjsqU+dQpwL5BGr1kl8QU9jGNvT04gmrXnhDFVJaRy+D8NRs8qasaVrZ6sdgIjeEgunugVqkmRZXFT/D1iFW0XKymZaPxMNyGVdQyfr8+kMO7oql9MOzutpYc33vdmjoCwAIG0EMQBPl+Qbpy7GI8/axTwPt1iBDS/28BORqeu3yFTXpCYFjzTI9J/vlum66KdyO+zRAXSKeo5CEGMwZO/n/A1bZKHrD7eSmgZZvWe36QD7dFSzHaYwYsMbxoGLp+S8dUqrZeUefU5df1ar5YXNLfLiro3yZFzgwB6OoN+H1+X5mJoNps0GK5Fazh9qiRk2km077WynPWtJ0Zrd8nxch19PCfr84d3SsKfBOxDgUlS1dOizo4+xJrErke3nrKS+TubrehZ7WmS1et2YfdHTxz5lH1+8bNvFSj9jaFjfI5faOnu6RU0XKBx+oCGeaxaOXV61Akqktn6V7Du8KqG45ZBz8gcrAKZe44WlcXULVPuRKkaZlhwc38kz0qXeTl2Is7bmPmsIQ0JBz6gst2fNdmLXvNi3R9d+iD1negrSfc4UpL7bHs/vQ/bsIRlFMieT2XHU+dy0wS6Gag0ZiT+frnoayeqBxAawMuQUee37NO1hR4H66qHve04CiwAwed3x+PIV35rlnLsymNhlKS8PSH9/Ole58hPHN3FM3fi6TP9BWG5/USoF8qYM/jxuRpIYy2T6AZNtEe+LHvnqwzKZ/qTItd1bEoejPLJF7llfbRX1HEya6ZELqkN32FwljhfukWO9ZbJyjfpD2msqStXR1Z1kXZzztY4M9jPbdvmiokGe32UP4fAS6XtTfrffPZNIQB5VHd1qCYuu2WBlqXhIPF/ZthtSUt8iDdZsKl7C3u97lM9nR8/QkTAzS/afs+T7qPQdsGYEif/fJfN25nwmaWLJ8fG51TY3WVehbRHp2tkmbUmeH6hvlL1riqzpMjOZbcJp5yt8wZpVwnfbqtO4b1eVT6aAnlIzdkaKbPczXrqvM9zji22feDzxstqezrp5YSho5SWkZxHZf87c8zBu34cSadyzTtaW+n+GfV8j6THZQup8nnnrTMwUrIGapVL/VPLzqWeR2ZZ0WI+uobRCqlM+L5FzPD2H0s/qi//cDPd9AYDJjEwMwMfNXjsFveCesFz712QBDO09+Wr3Abn2J/sKreWLsNw8vEMGf95i2nrXvLBnLdFZGqPRwX9P3t55QHr6XPsZDsv5QztUR63FDPfwvhKd7WwLIzlLw7hwsV1eW2/PimGP7DZUZ7ZHndfXYgIYmlNbolNe257YTgc9ju18ziMQkW27IQMduuilrhHhev91UER38Ncn73Dbn503TeaJLaKP8S2vGTqy/5w5+6jbxhyf094jgKFl3s6cz1Q8M4iyPz63E53ONJu6Q3MsaQBjOIIdbdFZMGLqDoRN3YHtSQIYmjUThK4zEPMJtzqXXYdGqQBmEsM9vmCH+hyb5XQKema1PasI5RHZduiCOm9mnaHPY+tO1aFNFsDQxvn7kJWLn0inNTuLv7LSebI2buYWZ3YXe6par/OhznXKwISZoaa0KkntDC8LpF4HI5JNtevB+pzFvfcAgOyQiZFjHB+ApEzmhmSamZJtOwAYl0wGhyTLhCiR2uZ1VsbSyGQupM4iiWdnUKX//AQ1q6R9wzwyMQBgGMjEAIBRVLJksTX0JOOMlizbAcC4ZOpKhHo/SZIxMSD9oeSZGsMzIG0HeyWkfruu3ZWsNoxNDwmxAyrZZ07ZdUB8ZsABAKSFIAYAjCK7OGdYIhlOy5dtOwAYz3RRWz1zS3yJYF2gs7HZqSNxQTpHKmtBD9PRw3xknjTpwqtmdbxoTQtduyTbfdFFSa3X6Mk6CAIAIIgBAKMo/RkwYmXbDgDGqYunpNPMuKJnbtl72J5+1Lnt3bVC1laqDr+ucbEzebHVYTt5VDbv1BkZSpJZQ3Tx1YZUtUs8lUhAz1yji5jqGihZvQYAwEEQAwBGjSkmGb5sij+mK9t2ADB+ndg/VJwzpkiqMlSgM0Xh2VzRGRlqWyd8tqULuqYsvuprptSvmWdlcejjycsirAAwjlDYM8c4PgAAAAAARgaZGAAAAAAAIC+QiZFjHF/+0mNws9GwvtUsAQAAAABGEpkYAAAAAAAgLxDEAAAAAAAAeYEgBgAAAAAAyAsEMQAAAAAAQF4giAEAAAAAAPICQQwAw1exVPbtWSW15i4AAONRoL5R9jUvMPcAAPmIIAYw7pRI454ma8rXffV58IdWzSrZt6tKyvRyhbVmDBVI47pZ0v5PM6Wx2Kwaj4oLZd8/6f2Mu60rlIB5yuQ0Ht4/Zx9myb4lU8w6YAzo4LD6f0D/XxBz27N0kv+ecP6PbJTGLP/PKatcIe0EMgAgbxHEAMabivtlcam9WLbmvhHMbjB/CA7nD2L9R/aGeVImF6R1+1E5cdGsjzHUKYzppD9wd7TzvvUBs84yRbaa9eneYttjfDHvf74EaIqnyOIZ9mLZoimTOLso0+8tMBw5+P8oTcGONtnWHRGpXCH76kvMWgBAPiGIAYw3Fz+RM2F7MdT9qZywF8ch9UfnCzoDIyJdO4+mt59Xb0vQLA75Rj67YhYni8Frsvmfv5SG6O1r6TEPYYwN3pIzV+3F0Ie3xvH3bxTxvR0bF0/J5vWt0hC9Hef3RI7oQEZrn75QsDLrbA4AwNghiAGMOwPStt3+o3VzxzmzbvwJ1K+UtaU60HJM2jwzMLJ1S16O6eDrW0S6rI7lN9L1RvxjX8rLf7MaAjlwW9qO2J+rzadvmXXIVqB+lWxtnuzDHzAendivg0JFsvYFPp8AkG8IYgCT1kyZY4atZG6B1K8pEgn3yisdA2adn9ty2VzZjnHlGwmZRUxkd8ocMzwDOVJcKFujdTsKzMpcy833trxsnlRXFkm5uQ94G87/R9k6Jx16WElpldTXmFUAgLxwx+PLV3xrlnPuymBi56a8PCD9/YmJqRMFx5e/dME0kYi8ubNNXpelVrFKCV+QzoNn5MRF81muKJHaupXSpP4od+iMCYeuer53jUiXeg0rO6FigTTWVcti9Xyr8KUS6jsur+w/Z9Kz9TjgdVZGg5dQ9xHZ7BkkMO2kV7ZtP6VeS+1X80qpi9lOr9qOfsxFF+F8ap6UpfPHotrPBrWfntTrtG+Yl2T/YtX+aJY0BXR6fkQ2n75tr9TFLZ+dpvb3lrT+89cp0vb1+PwiWTtDZ2JckbZBszpB/PMK1LbvlrrAnUPnJXhdXvn3ax7p8UbxFGmsLpTF7jZXb0nnf6h99N3ucOk6IHdL9dXrsu1Ikn1zy2g/zXkR5/UzPy+BB+6WTZVTpCxJQCL6/qrn7kvx3Kjg19Lw707GQw7ev4w42zN348R8Xj2p/VsyTe2f+1hVJz94TV7puSXBEfq8ON8nW6rvRPaG/71Vr9HcpH5fXpDW9WkOOctaQBY2/0QeriwV57dzpO9N+aCzXc7O2SIvbiiTnp1b5P24rLGS+hZpUL+zo49VLJPVL9TJ/FLzSzLcI8cOtsjZHLUbngWy9fAKqQ47v/fT4PV/kPX/mlcNoyz/X3EJqP8bNqX4Pyb6/0bW/x85/2/qoYz6/9rM9zNK13XShamT/X8HABh3yMQAvFy8Ip2H1B9aVrFKVyddLZ/Y3yYNhy6YFf50QKN91wpZ6/rDStPLuemAKaVFUq7+SN2q/qDTgZWY7VRWyV6PImlp/cGYQu3D89S/ETlzOnUAQ+u/+o31MxxxdQgHb4tV+kM91m+tyLGZU2Sr6qA2uTrAWllgmuz1KTIZWDJT2p+9W9bGt5kxRZqeHcmr3pnJej9n3CnlxZmfl9ofzZS9T6QZlDAyea6nLN6/0WX2b1H8eVH7G7hb9j47U7aOk89Ltsbke5uNigZ5/vBuWekKYGhFlc/Iyl0tsvrhanUvJFc8AgrF1i9E+zEdmHhx18ahQISmF3PYbjT5/h9UOk+adunZr3yKWmbx/4pW29woe3WhZ9dpSGXY/x/NyXw/Yzg1qCpHsog2ACDXyMTIMY4vf8VkYpg/PgM1S6X+qSqptv7QikjP28fk5SP259q+wuiViVEkPX0XpLpSdfTDF6TVnckhJRKoGJBgij9unddJmYkR/QMwIl2HjknbSfu5+mqY/mNS6znUKi+ftBbjZHFVz+JsO4Orq3pGA9UJ7nnHXb8iPjsgmfgr9GZ1gvgr6+r573wtbX+zO2E6m0B3xrXYfVHMPuo2PR9ek47Tt6L7ZGUh6E78iF31ziATI6v9zM15iW1TqLaVzhX5DI5tOPuZQzpItHfRnUkzMZznyFV1/DHZLwVqP6dZWSsSTJXJkSU9nOR/TpNqdZ5SZ4sMg3nvs//ejkYmxjJZfXijzNeL4Tfl2MH2aPZDSc0WeXJDtR3YUI+1b2+X2N+mAXl0z26pFvXYW7OlQT030ndAftf5ngxYrxGQhTUiZ0/GH2W27YYrg9/ZJlvO+n+ru0c6OpzsP7V3OlvCmlXKyWQwDwzn/xXX9mLbLFXb0gWgU30GMvn/KBf//w1JyKAEAIx7ZGIAPgLr9FUlJ4ChFUn16nWyb5199erEB/7ZGDqAoQMQDfGZHOpP6FQBjIzpQMl69ceX+QNOC548alVe10rLcj2FnBm7HI5keCXWZzYDz5kPckB3Lv9ZdeRNB1gL/u1raTUbKy1yXyVXHTPd6VR63rkiL7sCA5put/kdPeThTll831heXc/BfmZ0XtT3wNzX24ttc81sa4o8MhJTbWa4n2NFD2+JHb6jPs/6fTiiC4OOUHBh8Jq8HC0+OkLbiMrke6s7ok1WQNi56UCvyDxpilu/NUc1CBY2mwBG3wF5dftQAEMbONkirx0y83l8fjkugKHNlSLr9/tieXJDmZw/tENe2+8EIrSgTyAi23ajRXXyn3I68W3ysiuAoen/HzZb2YRFsniJz/8PGf6/EjDpSHp7sW1OmW3Nk0dGou5Ezv7/K5I5c8wiAGDcI4gBeCqR/1HpTkweUlZ5v52i+lnEv8Bd3/G0akUMX0S69Nhmc8+tPxQxS+OA6tQ16A5pXGfPmgUiWg8hl76RLn113Nxzc1LkYxRPkcX6b/Cr16XD7+r+325Z0xuWBabY7/9YGPZ+Znhe0pT7gMLI7GcuBT+9ZX3/yxbdLVuXqHNdbK+fUEb9e5uhigZ5WAdJdJbF/vfsdT7Of+DxeMVsO0ujtFQih7bI2+kGHrJtN1oq7pfFVqC5Vzr8shBOfmr/nqgy/5/FGJn/V3IfUM/NfgZDXhVsAQDjGUEMIFsXr9hjwz2EQl6XLjFuzTR1F2ZMk73/ZM/6kHi7W/TI+jE1BvsZNPUQqp+4W2rdHXVdW8MM7YipmTBZDF6TzW9cl56rd0r1Il0Dw5z/dboWxgQNaqR0Tl5eb08P7dzsK+L6anns+lQp/ukoWbLYCiZEek95ZFnYSsr0NyYskc/s+zHm2MGISPcOeTuT/cm23WiZY+pDlFbJ3rgMmKHbitz+njCBgOoNq6S2wlq06doaZmhHODQagX0AwGRAEAMA4C86hMMuGhoNljxrgiXBr/2zQiY6Z1jHGxFp/fCW9Fz9RkIzhoIa+340hlk7k4BdXDMs50/7ZUIE5IEq/Rzvop4LrYKfydp7y7bdhBYdwmEXDY0GS3aZYEnfcf+skDHmDIUBAOQPghhApj6/Yo8vrphpFaDPe7oSvVlMzxX5TKegZNxuHLuiOp/6p57u85/tWgO+tzSKGY6YMdtPewhH7PApXVj0a9n277F1OXzpmVHM4oQzeFtOnP5aXj5yRTbrc//G19JzVQ/puVs25fkMJfnN1K4IX5aYETGWgMy8V//0DnD4y7bdKHKGOuppQ+MyYBJuGRV1TsUewhH7e0IXFj0u26LTiqcwZv+vROQzr2wdAMC4RBAD8PHZ52YhRkTe7LTnkg88oqu7TwQzZLY7/TelAblsnZtM241jg7fkjM6GDhRK41gOA0jV0R+L/XzgbmkKiHS98aXdQY/eEguLJlcgsyfQEIvAA0myLNT79HKfXTOiTL2nOadnJ1lnZ8SMl2l/x06pFHkWZAwMFf1MVtTTM8CRTLbtXCqWytY9dqaC7zSnyaTq6EenDa2WxtH6HV2zyiri2rWzVTbHBEoSC4smN9r/r5TIo1V6cNBVuTxeg1IAgAQEMQBPA3Ji/xFpffvC0FWl8AXX9KsLpH61Vdotj52TP1jpv0Wy9oWlceOYS6S2xv+Pa3tmliSV7fPObWmzOp13ytpnvWoaFEjtkrtl3z/dLbVmTW59I59ZQ8qnSJ3etrVOKZ4SW4diDPbTnp3kTpmT9awst+QPVg9G7fP/LIyrq6H294E87IQX6+ll75a9/zTTHjKijsMt4KoXEhqBQqS11fb0qpouLDqmgbcU+kMXpKcv05mM0jMYsqsSzd+wRRa6fn+V1DTI6j27ZaU1M4pIJHTJXnBzinN6BjiSyLadS23d0KxXZWtWZhBoMFlwMk/q6hcM/Z6oWBD7+1vtWdtb9u/otbsaZat+bszj6vd7/SrZd3hV7n5PWEMyimRO1v8nZP//0bA4RVD7PvUsEAoAGJ8IYgA+AhUDcuLI0aGrStuPmgBGiTy3J7dF0cbKic5eO0hTWhU3jnmdNG1Y7P8HbtLK9nnqb1/Ltg91hzOuUKN1K5KmRVOk7KqMUDbBbXk/aHd2dac0WrTz2bulqdruDEeN8n46s3BULypybSf2tm+d6kgnCUac6Lluf85mTIurq6H294lpIxQYGkGD1+SVd+yinnrIyF51HO7zsdepF3L1urwy4lOgjm/BjqPy8v5cDlkYMtDRKeetpWpZuet1efGwfWvY8IzMV7+hjnXrHr9P7QqnOKdXgCOZbNvlxIC832sP2Shbs2KoaOeuFdJUt8BaH3XyqGzr1s8tkmr9XPfv98Pq9/uaeVKmTk+ush6Cp+2Af/Wada7txN727VkljcmC49n+fzQMgSV2RmXPB3aGJQAgPxDEADyVyP94Qf3R1Rx7BStQo9OA18kz5ipa3rt4SjbvPC494djp6ELhC9J16EySK1PnpEP/gaz+2NyUTTr0OBU8fcWqZ9AVNLUnHFdN/YcjX8dNN5k7etvbPrQDBlFXb0nXhcQr+aO6n4O3pNMEWPyUzZgia58okq0PmBXxrJk8dJ2I2NcJ6eN753peXgEN/s0u6rnNCmZ4HVdEvQ8jUz9FB4V0zQ0tpN7vkfpMjn/vyds7D0hPn52RYQmH5fyhHdK+vcUM9/CuXWHPWqKDEZm9Q9m2c9Od9R6zy6HuY9KWwTCGYEebbOt2ZQhq+vf1B4kzYunnNqjf7119cdOBq9/3Vp2K7Ucz2nZSFz+RTrWdZMpK58naDetka41ZES/r/4+ytUDq1xSp85FkKloAwLh0x+PLV3xrlnPuymBismV5eUD6+0fiz7rxgePLX/qKj/rT1AwZ0dkW6QUrdJbG5FQijeocrS2NSJc6Zzn7YxjjSIE0riuStXI9SYe8QGp/VGTVzQh9GJHNkzzzAJh8zP8F0ivbfAuFlkht8zqrbkao+4hs7hj76VZrm5vU/vD/FwDkIzIxAGRpQNoO6vRfPe46d2OrMY4UT5HFM1SnI5isgOdt6R+Bug8A8oSpKxHq/STJ74kB6Q8lz9QYTYH6RhNQySwTBgAwPhDEAJA9nf57SKc2z5OmPQQyJipdp2PrAwUJ9U90AcvGH82UvYv0DBy3pJMsDGDS0kVKt9aUJP6eqFggjc2NslcP3ZAL0jnGWRg6gGHtS9/xcZERAgDIHMNJcozjy18MJxmGiqWy74Ui6Tx4VE5wVWtCqf3RLGuoSFK6BsR/TObaDMDkZg/NMHf86NoW6v+Isc580EGMTWU9snk/xTwBIF+RiQFg+HRGxnYCGBPRiX8fKl4ZUxxQGSpgSQADmMxO7G+VbYd0wdK4IqKKXZjzSG4LiQ6DLnhKAAMA8huZGDnG8eUvOxMjc2RiAAAAAMDoIBMDAAAAAADkBTIxcozjAwAAAABgZJCJAQAAAAAA8gJBDAAAAAAAkBcIYgAAAAAAgLxAEAMAAAAAAOQFghgAAAAAACAvEMQAAAAAAAB5gSAGAAAAAADICwQxAAAAAABAXiCIAQAAAAAA8gJBDAAAAAAAkBcIYgAAAAAAgLxAEAMAAAAAAOQFghgAAAAAACAvEMQAAAAAAAB5gSAGAAAAAADICwQxAAAAAABAXiCIAQAAAAAA8gJBDAAAAAAAkBcIYgAAAAAAgLxAEAMAAAAAAOQFghgAAAAAACAvEMQAAAAAAAB5gSAGAAAAAADICwQxAAAAAABAXiCIAQAAAAAA8gJBDAAAAAAAkBcIYgAAAAAAgLxAEAMAAAAAAOQFghgAAAAAACAvEMQAAAAAAAB5gSAGAAAAAADICwQxAAAAAABAXiCIAQAAAAAA8gJBDAAAAAAAkBcIYgAAAAAAgLxAEAMAAAAAAOQFghgAMN5ULJV9e1ZJrbmLSYL3PS8E6htlX/MCcw8AAIy2Ox5fvuJbs5xzVwYHzNKQ8vKA9PcHzb2Jh+NDPgrULJX6p+ZJdWmRWSMSCl+QM2+dkbaTid9jOEqkcc86WVsaka6dbdJ20awejppVsm/DPClT57/14FE5ke5rzl0m33mqTqb8oFQKzKrbf3pTvjrQLrfN/clm6sYWma7Ox+0/HZDBA++ZteNUtu97MjoosqtKyszdqHCvbNt+SvhNnh0dxNi7Rv2u7DsuDfvPmbWZKpHa+sVSV6Xe81KzStR7v1699+YeAADwRiYGMNmpztPeDVUxAQytrHSerH14prk3BtR+tR9uSnnbV19iGkwAutOpO7K6M7M9kwBGgxTv2CiFrgCGVvCDZ6T451tkqrmfjwrqWuSeA1kcgzon+nxoBffMjjkv40627ztyQAci1e+SPUslYNakEuxok23dEZHKFVn//qltXidNa9wBDAAAkC6CGMCktkC2qs6TFuo+LtvWt0qDc9t5RFo7r1iPYTSoztQL+qq5zurI5GpsQL7zv56xOulWxsHG5+QLcxs83CM3P3xDbtpPzEMBmbpI9fK+uJx5NsmlU3LrC70QVufg1DjORsn2fU/DxVOy2f2dXn9cesxDGB4dyGjtEylbs1IaK8zKtJXI7HvtpZ5DR1zvD1kYAACkgyAGMJlVzBTrQmC4V17pOBebXn5xQE6o25jTqe8xHbHY2+aOiTHcJVC/UtaqNyPUfSyzYSlzl8qUe9RPM2TC3Vm//YcW+aoznwcNzJU79bFlE8RQn+b/+rkO5mwZ1+cg6/cdY+7Efh0UKpK1L6SfxRFD/W7rYLgeAAAZI4gBAGNugdTrMfZWMCmzTk1B9WIrC+Nm7ziv+ZCNR5ZYw0gm5LFZsn/fkSszZU7WQzrOSYceVlJaJfU1ZhUAABhxFPbMMY5vIgnIwuafyMOVpeJUi4j0vSkfdLbL2Tlb5MUNZdKzc4u8H3f1tKS+RRrWyNBjFctk9Qt1Mr/U/KUc7pFjB1vkbI7aZSpQv0o26bHY5r4vn6J1dhFQXUPDrJCIhPp65BX1XL9Phl0IT4aKX1YskMa6allcWRTdj5DaXsxr6JoYeqiLzsTIpgih1zbSKlZaoo5xsWx6aoaUReuE+B1jfGHPEqltXil1McelOqj7U+y/OdZQ95E0MkuWyfSf18nUe1L1vHrkq40tQ0NJrLoZz0jBnw7IF55FLgPynZ/vlsJ74to5679w2gVkat2zUvhktauA6AH5Ki4LxK1g7jKZmlbR0XSPTYvbz0e2yD3rq80dly/elMGfp1HcdK46rqd+EltX5IseuXb0DfmvP3i9e8M/L5m974bP57ozrWKgC2Tr4RVSncl3KoPt1TY3SVOlLk55Rmar78Fa1UZ/d3oOtcnLJ9V3JWGd1SxWRsdnvn/iHE+a3z913vc9lWY9ilTFO53iqRkW+bTO1b0UWAUAIBvRTIzCwkL5wUMP+d7048CkUdEgzx/eLStdAQytqPIZWbmrRVY/rDtLIbni0Wkotv4yth/TgYkXd20cCkRoejGH7TKnOudmKTO6w9BkioCaVRbVYahcIXsPN6Y1NlwHNNp3rbA6M+790Mu5+WNed5Z8tqGLlW5YJ1v9rpqqDtRW1Snaq4ssxhQ6TeMY59htm+K3WVkle1MUDax9WNcliciZ02l0ZOfOloK0OvlxyuzilrfDl+z7CXyGbpjhKlY7HQg5sFumuzrqWsEPNsr0Oq8jVB37jS3+RUcPtMh35poVWibHFrefBaXen+rbadTDKHhki9pHdVxx+yj3VEvh+t1S7HVswzovtozed8X3u6M+1027cl/kNrvtzZA6HVhQbWxFUv3UUvWdjFu3IXEq2ayPT31Xy813N93vX84Kal78RM6E1c/K+zKfGlfvt1kEAADpi8nE0MGKhx76vrk35KOP/ix/+ugjcy99ZGJMPJMjE2OZrD68UebrxfCbcuxgezT7oaRmizy5odoObKjH2re3S+ynPCCP7tkt1aIee2u2NKjnRvoOyO8635MB6zUCslB1oM+ejD+H2bYbJucqYhpXZu1sCn3k+irqMXnZyWbQV05fUB0Pq1PgPUWg07an74JUV+rsCvW8g2dcNTdKJFAxIEF3kMbJxEii51Br4tVc5+q2dfU2dhu19SulyToGr/00V6n1omrbFZOxYaZDXDNPwjHbdDIxzF11brrUuXHaBdS+6ICI5rmvFuc1vM9dcstk+oGNMjWNbAM9y0fxk6Vy8/Bz8tUfzEo3v0wNk+Fw+wvVU7tHdfK/6JGv/vUNuXlJf1p0kEJ3/tViQoaHk9mhl8Nqu7+Wa38Imn10ZS347nv6x+bJ7Lfv8TpcGRyxmRMBdc6eVedMPxaWa7u3yH+54z9ZnxdHhu979Pugvn/dPdLhqmGjP2ebdOBNf/6STvWbQSZGFtuzMzH00lBm0tD3I3FdzHciq+PLxfcvg3Piw/795so0S8NQ1kqm33kAABBTE0MHKnTAwi3bAAaQrxY2mwBG3wF5dftQAEMbONkirx0y9f0/vxwXwNDmSpH1B/VieXJDmZw/tENe2+8EIrSgTyAi23ajpGKpbDIBDP2HejSAoV08J23bj0iXvhop86QuydVgHcDQqfMN1jSS7rMXF8AYjpNHZdvOVtnssY0TZkYBfbV4dlxGRaC+2gQwdGfmaNyQE932qGzeecSnI6TowMx61YlxtQuqfbG3J1Ja5ndezJj8cET67RXp05kL+mcahS8LrKyesHwTsu8n8MnUcDIcrAyJ3+2QL37eYjrqWlBuvvWm57YL6n5iBzB0EEIX14wGMDTVrrNFBncfUB1/nwBFBsfmxd7vJMdrWSbTTQBDBztiC6Oq/dX7+Dv9wS6VKdWx1/KzPS9DMnnfVWf9Kaczrr5/cUV49eds86ELaqlIFi/JRTbG8LY3VKR0QN7vjSSsu/y5tcolB8eX9fcvV4pkzhyzmFSJ+l2zSup0sCeb7zwAAEgs7OkOZBDAwKRT0SAPW39cvint+72ung45/4HH4xWz7SwN1WGMHNoib6cbeMi23WiZY1K0+3p8rjQOSNtbupOh+sJV94tvAn3f8cxnE9FBBY9ZSfTNL6AQDYhUlEhtzVLZ2two+/Y0Svth50pxfIejRB6tMkGag0muxvrO1qLbeV9R7Q/ZnbgRkXKIiCOgOtvqxxdnVEfbXhNvapXJRgjHHr0d/NCd/B0ymGSWj9h9WCaFT+p2PfJVsiyKS+/57o9zbNkV9QyYqVn9j1crqKuzCofe/t0O32yN2z1nrP0vKHWPe8n2vGSp4n5ZbAU89GwW9qoEJz+1pk9N+v1L1zC3Fw4lfk/c6xK+E8M+vjH6/hnB0FWzlITOelO/f9oPr5O9uiaRzvZK9rsGAAD48pydRAcujv/H7wlgYNIpWbLYCiZEek+pbrm3kjL7Cm/kM/t+jDl2MCLSvUPe9vtj3Eu27UZJoGyG9TMUumL99PRZRKyL3knGeSdtn0O6+OjWParDsGudNOkaHnqcfEyNi3jODAVX5XKuMkJGgR14CMutnhRdIWcaVt+sBhPkSMhccNb3yC3P4paqM29mR4kJfjhZFH867SoQmhnn2JJnUvhJb2pWJzsl5flLkOV5yZYTRCytkr1WR9jrZoZC5cJE3944oD/Wl+1FAACQId8pVr/44j/NEjB52MU1w3L+tF/HIyAPVOnneBf1XGgV/EzW3lu27eDBGgdvio+GL0hP93Fp3XlEtqmbzt5w0svzn9ORDsntVBf70y7qGZ+5kDoY4DlMJe0MET8ZHJuXtKZmTXMbnseS5XnBhOQEeZO6eEo2WxlkR6S1O2IXK30hecFfAADgzTeIAcCLqV0RviyD9gqXgMy8V//0DnD4y7bd6Csrm2mWPDhXU8d0nPcC2WqKA3Ydsmtv6PH1ujZG0HcoiFtirYyRd0U+s8ouZDpTQXrZBppTv8EvK6DAdPoTXstvfdQwgw2+zLFlmcmRXj2MdATkO6vs6/8x5y4n5yWD993JctLTeLqGU3necjFl50TfnpdhzxQSkc+8svMSuGrzDHubAABMTgQxgASlUuRZoC0wVPQzWVFPzwBHMtm2c6kwwycO536aRS14+oLdyais9plidKgwX6j3k7Ef5x2+IO/HFOZ0lMhssxTrnPzBytAokrXJro5WlPg/ljWn0GGGAZQcFfW0Zi1xZueIy5xwgh/+GQ0+gZSQfb/gyWftzr6Xucvs/ffiHFuW7ONNFVgJyu0v9M9qmfKItSKBuzjpNVfNjKzPS4wM3vfoNJ5+378Mpeo853p7qYz29jxlG8B06unk11A0AADyGUEMwGUwpP+SFpm/YYssdP1BW1LTIKv37JaVVlFIkUjIo3fkFOf0DHAkkW07l9o6M3xCKVuzMtcYtagAAB5ZSURBVPcdgYunpNPp5O9qlK01rkCJnmI1Os3hBenMtHDnSCitkk31C1wBhxJrusV9ej/NexjvRGevHajR4/L3rJJG9zE67Xetk73NC8y63DnxQeYzSzg1F9IvfFkqhU+5Agdzl8n0n79uT7v6J/tz713UM0lGg8lIuP3hqdjO+qVTcssECKb/fItMnesK/ajlqRtb5J4dG2V6XYqQ0A/q5DuPDD2nQO3zdzY2+AdGLE4WRLUUul6/4JFlaj/MHeNmrz3T0NT1LTLdtR19br6j9lGfG3381+JmUMn6vMRJ/313Cuea75/+bMd8x/UUwOrzeXiV1Jo13kz2hzWLkOv7ob7DtTGvl6vtpWu0t+cWG8CMOQ9WYeAU741TlLTvU6ZKBQBglBDEAFwGOjrlvLVULSt3vS4vHrZvDRuekfnSI8e6dQ/Ap3aFU5zTK8CRTLbtRtmJ/c40qkVSvWHdUMG9XStMAENPv+o9Q8CwJC32p24xQYVz0tFtz0ZQtmaFq9062bthnpTJBWnt1p0lD3rM+k4nkDFP1rqPMdpeHWPnOevpOZXFzBKZ1FxwOuvyg41SfOB1uUffdmyUqfeoDvru5+Sa9b7Gv1bqIRH+w1SC8l//aqYYvadapu/YbW/T2u5umf6DUrn9pzflK79ZPaJBkFIpXD/Utljtc+EPnvHNnLAF5eaHdlCm4ElX2/UbZYq9u0P+0CJf/UkvlMpU13b0uSlU+2gFMHZvkf+KOf7hnJc4mbzvJ4/KNuuzrb5/+rO9y/ls2p/PJmvGC0mRTTA05WnM90N9h5vq4oJzOdleBkZ7ey7uAGaTe7tWYeDFSQMngSX694JIzweZ/F4okdl6CCFTrAIAkBWCGECM9+TtnQekp8/uBFnCYTl/aIe0b28xwz28a1fYs5boYESKjkucbNu56T/Ce8wuh7qP+UyDOlwD0ra9VbYdGtqWLSKhvuOybX3bCG03M8GONrWPF8Qk1dj0dIamRsaJZJ1+q/ieLrwX137Ej9EEX6wMknSyMTKsRWF11mNOiNz83QEZ3Gh30L2HXwyzeOWldvX6O6ztxrT/okeu6WlJDySZelUHQX6+Q67F7LPIbdX2q93P+U6H6rjd+WvP43UPCXHcPPCcDB7uMUNLjC9iz0+sYZ6XGJm97/qz3bDzuHT1mRoSDtUZ1gVst6nPd6rPp/X90J9vc9+ivx8fJM4clIvtZWK0txdlBTCPq99rdoDHEbJ+b5xJEphdIPVritT+JZkaFgAA5Nwdjy9f8a1Zzrkrg4lp5eXlAenvz76zNt5xfACyU2KG5eiMlvEREMJo4H3PV7XNTdJUmc37Zt5z6ZVtI1WoFACACYxMDAAYFwak7aBOa9d1AUZi7D/GJ973fBSob5SmymFmvpVWSX2qmhsAACABQQwAGC90WrseCiPzpGkPHdpJg/c9r+gAxl49jKTvuGzOqpDxUG2SmPpCI1K4FACAiYcgBgCMJyePDhUYHYEihhineN/ziq6R07A/+yK/0doksWVfAABAGqiJkWMcHwAAAAAAI4NMDAAAAAAAkBcIYgAAAAAAgLxAEANw0cNlAAAAAADjE0EMAAAAAACQFwhiAAAAAACAvEAQAwAAAAAA5AWCGAAAAAAAIC8QxAAAAAAAAHmBIAYAYHRVLJV9e1ZJrbmL8SlQ3yj7mheYewAAAOPDHY8vX/GtWc65K4MDZmmInsKyvz9o7k08HF9+m+jHhxSKt8g986vNnSE3zz8nXw2aO2NJd/53VUmZuRsV7pVt209JXnxya1bJvg3zpCx8QVoPHpUTF836XKjZIi9uSHz/zh96Tt4+ae4gbTqIsXdNkUjfcWnYf86sBQAAGFtkYgCAUTA1ITyg9Mit8RDAmAh0EEYHMOSCtG7PcQBDKSnzfv8+JYARVVLfIi8e3iILzf1kgh1tsq07IlK5QvbVl5i1AAAAY4sgBgAYty9vkS/OPGduO+TaTbXy5mW5bT889i6eks3rW6Uhejuuuuj5okQaX9BZJBHp2nlUTpi1uTTQsUVeXf+cue2QnrBaGb4sxKAcAXmgqjSjc6IDGa19ImVrVkpjhVkJAAAwhghiAICnuXLnVPXjxjgKYuSxQP1KWav6z6HuY9KW4wwMb3OlSG1PPr8siQMbJ6vszsmJ/TpYViRrX1gqAbMOAABgrBDEAAAvxUtExzBuRt6z72MYFki9rq0Q7pVXOkYppFCzROarH+c/4P2LyvqcnJMOPayktErqa8wqAACAMUJhzxzj+PLbZCvsWTBtmUwtq5MpRaVSYNbdjrwpX33S7p99MC2g2vxECl1t5GaPXAu9If816HXuAvKdh3ZL4Y0D8sUnuvOk2s9+VgrLql3bPKC2+Z7nNguKG9RzF8vUqfoSshZWzz+jttcuN6+bVV4y3s9YBbNbpLhM5Nqft8h/JduOS0HxFpmuj0tHPyxhuRnqlGuXvY9t+BbI1sMrpDqDwp6BmqVS/1SVVDunUyIS6uuRV/afS9o+ULNKNj01T8qi7RKFuo/IZq8ghWrbvmGe/+M+Smq2yJNPVdvZA5awnO/ulNMd76XMJNC1HxrWiPTs3CLvp5n5kf72AvLont1S/fkBebVT5NG6OqmuVI3CPdJzsEXel2WJ6zz2IbPjc21zv/09Wlj/rDy8RrW3nyCRvgPyO/XYUNtlsnpPncwvjW4giR45tr5Fzpp7CZyishT5BAAAY4xMDGBSUh38+1Un/fsbYzv5SkHRM1K8uEW+M82scNGd9OLv75bpcW1karUUzt8txbM9ks2nLZUpqlN/+8YltdygXlu1dwUwtIKijTLdq63e3vxnXAEMTW1b7eP077fI9GLv5Pas9jNOwV16myG5nVYAY5lMf+h1ta/uAIZWKlPLNkrxQw2x+zEmSqRxT5Ps3eAOYGhFUla5QvYebvSteVDb3KjaJQ9gJFP78Dz1b0TOnE43gKE7369LwwZ3B18rlflrNkrDngZ1NMkVWzsbkitpBTAy3Z4ZliFLZPWujXawQiutlvl1W+T5uHXVdcvs5agsjq9iqcxXz42E1PeookGeP7xbVroCGFpR5UZ5st712a6YrV4/ZgP+UtXJuPiJnNE1RirvY2pcAAAwpsjEyDGOL79NjkwMkxlhdbbDcvP8r+XaYNBkCriyJG6+KYMfuTIyXNOPxmZOBKRAtSlWbfTrJWQumHa3b6oe0NRS9bo98tWnb8jN6/o862CKDjaoRfWadqaGw9lPex+/imZPqO0VPyvTdcAgyfa0jPYzxjKZvnijTE3YJy/mufpc6qyLiNqe87rTlsl37ttoneuRmaY1/UyM6HSZEpGeQ8fk5ZPm93PFAml8YYVVr0L0rCHr44pumiwK3a5LtWsz7XRGx6YNulCnR5sYOniyTr1+quc5VAf/8EaZr86nlZVw+j0ZcAIRFcvk0Rc2WkGY5NOmmtfoc7IWksliezqIsOsZO4CgttGusx/c07vGr4vZjyyPz7xWJKy+R6WlUhTukWMH35CzF+3v0cLm3bKyUi36HrPZbvhNad/enlFNDIf9GRLp2tk2SnVNAAAAEpGJAUwyBbN/YgcwdJDizBYrODA01CEoNy+3yOCfVef/U/eQEtVRN4EB3RkfjBn6odrrNiF9mbZUphTFZjk405YW6GyK0A754qMWE8DQ1PZCb7pey8PNM1aQZYja3qDa3pkd8lVCICL7/YwxbbaVOWFlj6Qw9X4dwOix9uUrPWzEvT/X35P/+tQ+voKpqbM/RkzFUtlkAhi6AxoNYGgXz0nb9iPSpU+LzJO6uKk0A2UzrJ89h1TH1dUuePKUbD50QS3Nk0eS1kmYKXN0gCQckX57RVILm3UHX3XQd26Rt/WwCndn+eJ78v7BN9VRiBSVJTmfOgNB/bCyFlLIantz7NcXHRDQwQq9/Nll63kx6wz3fmR7fM70sVZmRfcOeXV7iwlgaEE522m382XOyfALnRbJnDlmEQAAYAwQxAAmlWVSaKXZq063O8sinup8u+tNFMyus4pc3g7t8M0m0HUqrM76XXPtFYY9LEMHFXbI4GX/XIHEgEFQrVM/pj4j0+9fJgUJw1uCCTUxhrOfMe4yQYyb/vtrWyZTrJ5htUz//utyz2KP2/efGfuhJHOKxOoC9/X4XEEfkLa3dEBCpKzqfsk03FJalmpwR7qWyX06m0Cdz5W7XpcXD3vcnAyIZEyQIRJK/f5lsz0noHD+LVdGg9mme53zvKH9yP747OExOkNjh7zW4X9cvoEbZ/+GUeg0GLpqlgAAAMYOQQxgMjEZBhI5LTetFemxAxFhuRVJ1SmMF1Bt9c8eueVTTLOgaLFvwODmJzvkq0jYqplRbAUJWmT67GW+QYHs9zPW1CKdzaH32b7vq9iewWS8c7IpQqEr1k9Pn0UkpH+WFkm5tcLmdFyrN6ySWnfNjIoFstUaZqLOeGh41/ajzOwZw7XwYfv9+9R3uImR5fbsgEJYIp/Z9zV7m7Hr7Oe59iPr4wvIzHv1T/1a3p/tkiWLkwZuvPYPAAAgHxHEACYTJ8MgjWESQ5xARIoil56vPVfutIauXPbN+nACD9/orIsEQbn5yRb54s875KtQj3oNUyjTCmbE5wsMZz/dzOsk2WeHM1RGD1354kzyW7IslHHt5FFp7dML86RpV5O0Hza3XSvEGrjTd1w6UgUL0hTNcDj0nLy6PvnNPxvBdPhTFapUstuek03hLhrqBBnc68zzXPuR/fGZQqJJjskrsDLEa/8y5wTDAAAAxhJBDAA5EJDvWAUz4zIqnEyFG34BgTQDD9dNrQ4dEPjzAbl5UwczfuI5g0pyPvsZwwRefPc50ZjWu8hAWdlMs+TBGXLiWbvCrrZgZWpERaSn+7hsSzE1q8gV+cwqQxKb4ZFM0noXKZkOfwa1HzLanlNbou+0azpSs033uiQ1KDI+PieDw/eYUgUpPPYvaxH5jGwOAAAwhghiAJOJ6ZgXlD3rPwxiWvxwDVObQqplSrG1IoG7WOg116XiaKZCxG8cvl+mxjK7Doa5F+P6e1ZWhi7OeacVAHFkv58xTOAlnWyV2zftbn3BzKXe+6oUFAd8H4uqWCpb99gZDvviCmumJUWAIHj6gh2AqKz2mUa1RBqfsoeGhHo/iQ1K1KySpko9I0WrbF7fKg3RW5u83JEqgKENyOXP9c8ZMttnClfHQMg+n0VVS32nUC2pCfg+ZjEd/nSKema1vWi9Ddfre23T43nZHl80g8O3nkWKTA0noDIsJfJolX6Vq3J5GNkcAAAAw0UQA5hMrp+SW1YxjGqZ/tAWmTrNdUVYLU+9v0Xu+f7GhKEaNyM6aCAydX6LTFed8ig9hahq46SyX4uZ0UR14JMOFVGcgMGVU7HtdIFOXQfjIXt7MUEAtc3pJpsiXrb76UUHJqY6mR763LhfzzFoaotMfUbta8PQ85UCZ5vzd0uhT1DFUVtXZU2rqZWtWekTaPBishysWUUWSHQPKxbE1q+4eEo6rSEhRbJ2V6NsrXF1k/UUq9YUqPrOBensiL3Wbw8hKJI5S/y63amd+EAXDS2Sxale4+RpOa9/lj4jDXsaZKHrGEr09KPNLdKwYbcsSTobik0HCqLtKwKysMbj/ctie4nFOtNfl+3xJR8qojhBlN5TybNPKuvkUdd5sLep9sPcT6riflmsd6Pv0zSmyQUAABg5dzy+fMW3Zjnnrgwm/jlVXh6Q/v7U1+7yFceX3yb68VmmNUhxkhkzbkfelK8+SezkT73/dZnuezk3LNcSpjsNyHceUh34qT3y1ZkWz0KiBbPtwIKuKRE/m4jzmK/IgbgpVG2Z72e8ZTJ9sZ42NY6ektZrRpfiLXKPmdbVy221n1957KdbbXOTle1gs6dB9Z5FJFGgvlH2WtOnxuk7Lg37z5k7WokrWOHFZ7sVS2Xfrip7qImPUPiCnHnrTMwUrLEWyNbDK6Q63Cvbtp9Knr1Rs0Ve3OB/PiN9B+R3cVOYxlomqw/raUzj6KlPt7tmE3FkuL2Fza/Lysqw9OzcIu+bc2Wv65Fj61vMcI2APLpnt1SXutcZGR9fktcySupbpGFNqVVr423P+iTOa5i7cfzbDXE+Zz2HWuXlHNVAAQAAyAaZGMBkc71dBs/Ys37EdKxv9sg1PQ2qRwBDu/nJczJ4vkduu6MRN8NyM3RAvZ5XYGB4RT1vX9YFPQ/Itbj9vK23ae2nd2Ag8/2M95589ec35aar/W19bkKx2SJRgy2mToeVEhFlBYP+rPYlRQBDO9HZKz2meaj7WNoBDC3Y0Sbbus1wEUf4gnR9ED8TyYC0bW+VbYeGtmWLSKjvuGxb7xM4ufiJdPbZNTH8lJXOk7Ub1slW3wyJc9LRrV6jtEo2pRouc7JFXt15QM6HY89npO9NObbzOXktaQBDe0/e3vmmam/uKpFwj/S85ZOlkNH2vGpPeBUSTTK8I+PjSzFUREmZqSFBeX/7Dunpi9umOi96m6kCGDoIVa8DZeHenBVxBQAAyBaZGDnG8eW3SZGJAaTNZG9IsgyKEqltXmdlkoS6j8jmuOEoQ5xMkMwyTTD27Ewh3jcAADA+kIkBAPBm6iAkFPuMMSD9oeSZGrYBaTvYKyGrLscqqTVrMb7pYSR2gCqzDCEAAICRQhADAJCULjaqi4HGl8YM6KKgzU5NjsSioAkunpLNh/TQl3nStIdAxngXrbfSdzxJhg0AAMDoYjhJjnF8+Y3hJECs2KKjPnQNjoNH079Sr4uFvlAknarNCa7uj1s6iLGprEc2xxSIBQAAGFsEMXKM48tvBDGARIGapVL/1DwpLS2KmaXEmZXk/ZMDyWccAQAAAHKEIEaOcXz5jSAGAAAAAIxf1MQAAAAAAAB5gSAGAAAAAADICwQxABeGkgAAAADA+EUQAwAAAAAA5AWCGAAAAAAAIC8QxAAAAAAAAHmBIAYAAAAAAMgLBDGAHArUN8q+5gXmHgAAAAAglwhiAHFqm5uk/bBza5R9e1ZJbYV5MA1llSuknUAGAAAAAOQcQQwgqSIpK50nTbtWSa1Zk0ywo022dUdEKlfIvvoSsxYAAAAAkAsEMYA4J/a3SsN6c9t5XLrCeu0MmZ1mNoYOZLT2iZStWSmNGWRwAAAAAACSI4gBJHPxnLzfGzF30ndi/3HpkSJZ+8JSCZh1AAAAAIDhIYgBpBAMXTVLmTgnHXpYSWmV1NeYVQAAAACAYSGIAaQQKJthljITPH1BQupn9cMU+QQAAACAXCCIAaTlqly+aBbTdfETOaPraVTel1ZRUAAAAABAcgQxgBEzYOpppF8UFAAAAADgjyAGkJZ50rRnqdRmFYwokjlzzCIAAAAAIGsEMYAUgh3HpLUvIqHSKmna1STth5tkX32JeTS57IqCAgAAAAC8EMQA0lRmfgIAAAAAxgZBDCCVmsXSVFkkEr4grTuPSMP6VtncMWAeTC7bmU0AAAAAAIkIYgAp2IGIiHQdPConLqYXvIgVkc8+M4sAAAAAgKwRxADSksUUq1Iij1YVqZ/ZtAUAAAAAxCOIAaQli2lSK+6XxaXqZ9+ncsJeAwAAAAAYBoIYwAgJLJlnFQPt+eCcvQIAAAAAMCwEMYAUspsmdYHUr9HFQHul46RZBQAAAAAYFoIYQArZzDBS27xCqq1ioKckaNYBAAAAAIaHIAaQTIXJqMhAoL5RmipFQt3HpI2CngAAAACQMwQxgDi1zU3SftjcdumMCiV8Qd5PIyChAxh7ddCj77hs7shmOlYAAAAAgB+CGEBSEQn19UprBsNCQn3HpWE/xTwBAAAAINfueHz5im/Ncs5dGUy8El1eHpD+/olbJYDjAwAAAABgZJCJAQAAAAAA8gJBDAAAAAAAkBcIYgAAAAAAgLxAEAMZoR4GAAAAAGCsEMQAAAAAAAB5gSAGAAAAAADICwQxAAAAAABAXiCIAQAAAAAA8gJBDAAAAAAAkBfueHz5im/Ncs5dGRwwS0PKywMTeoaLiX58Wm1zkzRVmjsSkVD4qnQePConLppVAAAAAACMADIxMExFUlY6T5p2rZJaswYAAAAAgJFAEAMZO7G/VRrWm9vO49IV1mtnyOwK62EAAAAAAEYEQQwMz8Vz8n5vxNwBAAAAAGDkEMTAsAVDV80SAAAAAAAjhyAGhi1QNsMsAQAAAAAwcghiIEeuymVmJwEAAAAAjCCCGAAAAAAAIC8QxECOzJOmPUullhlKAAAAAAAjhCAGhi3YcUxa+yISKq2Spl1N0n64SfbVl5hHAQAAAADIDYIYyJky8xMAAAAAgJFAEAPDV7NYmiqLRMIXpHXnEWlY3yqbOwbMgwAAAAAA5AZBDAybPcVqRLoOHpUTFwleAAAAAABGBkEM5AhTrAIAAAAARhZBDOTIDJnNzCQAAAAAgBFEEAMAAAAAAOQFghgYtmDoqlkCAAAAAGDkEMTAsNmFPQEAAAAAGFkEMTA8FQukfk2RuQMAAAAAwMghiIGM1TY3Sfthc9u1Qqr1yvAFeZ/ZSQAAAAAAI4ggBoYpIqG+Xmk9eEqCZg0AAAAAACPhjseXr/jWLOfclcEBszSkvDwg/f0Tt7s70Y8PAAAAAICxQiYGAAAAAADICwQxAAAAAABAXiCIAQAAAAAA8gJBjByjHgYAAAAAACODIAYAAAAAAMgLBDEAAAAAAEBeIIgBAAAAAADyAkEMAAAAAACQFwhiAAAAAACAvHDH48tXfGuWc+7K4IBZGlJeHpjwM3jUNjdJU6W5IxEJha9K58GjcuKiWQUAAAAAADJGJsaIK5Ky0nnStGuV1Jo1AAAAAAAgc2RijLSKBdL4wgpZWxqRrp1t0kY2BgAAAAAAWSETY6RdPCfv90bMHQAAAAAAkC2CGKMgGLpqlgAAAAAAQLYIYoyCQNkMswQAAAAAALJFEGPUXJXL1MMAAAAAACBrBDEAAAAAAEBeIIgxauZJ056lUlth7gIAAAAAgIzcGZg3/+dmOedu3LhuloZMnz5DvvpqchW6vPqXz+U/K8pk9gPzZfkTi+X/rFss/+P/uCC/+0vi+QEAAAAAAN7IxBhFZeYnAAAAAADIHEGM0VCzWJoqi0TCF6R15xFpWN8qmzsGzIMAAAAAACAdBDFGgT3FakS6Dh6VExcJXgAAAAAAkA2CGKOGKVYBAAAAABgOghijZobMZmYSAAAAAACyRhADAAAAAADkBYIYoyAYmlxTygIAAAAAMBIIYowCu7AnAAAAAAAYDoIYI61igdSvKTJ3AAAAAABAtu54fPmKb81yzl0ZTJxOtLw8IP39QXNvYqptbpKmSnPHEe6VbdtPycQ+cgAAAAAARg6ZGCMuIqG+Xmk9SAADAAAAAIDhIBMDAAAAAADkBTIxAAAAAABAXiCIAQAAAAAA8gJBDAAAAAAAkBdGPYhBPQwAAAAAAJANMjEAAAAAAEBeIIgBAAAAAADyAkEMAAAAAACQFwhiAAAAAACAvEAQAwAAAAAA5IU7Hl++4luznHNXBgfMUqza5iZpqjR3JCKh8FXpPHhUTlw0qwAAAAAAAOKMg0yMIikrnSdNu1ZJrVkDAAAAAAAQb0wyMWJULJDGF1bI2tKIdO1skzayMQAAAAAAgIexz8S4eE7e742YOwAAAAAAAN7GRWHPYOiqWQIAAAAAAPA2LoIYgbIZZgkAAAAAAMDbOJpi9apcph4GAAAAAADwMY6CGAAAAAAAAP7GURBjnjTtWSq1FeYuAAAAAACAy9hPsWopkdrmlVJXWSRlZk2o+4hs7ki3PQAAAAAAmOjG1XASJ4ABAAAAAAAQb3xkYtSskvYN80TCF6T14Bk5cZEMDAAAAAAAEGscTbEaka6DRwlgAAAAAAAAT0yxCgAAAAAA8sI4CmLMkNnMTAIAAAAAAHyMq8KeAAAAAAAAfsZFECMYumqWAAAAAAAAvI2jwp4AAAAAAAD+xj6IUbFA6tcUmTsAAAAAAADe7nh8+YpvzXLOXRn0ni61trlJmirNHUe4V7ZtPyVBcxcAAAAAAMBtHAwniUior1daDxLAAAAAAAAA/sYkEwMAAAAAACBTTLEKAAAAAADyAkEMAAAAAACQFwhiAAAAAACAvEAQAwAAAAAA5AWCGAAAAAAAIC8QxAAAAAAAAHmBIAYAAAAAAMgLBDEAAAAAAEBeIIgBAAAAAADyAkEMAAAAAACQFwhiAAAAAACAvEAQAwAAAAAA5AWCGAAAAAAAIC8QxAAAAAAAAHmBIAYAAAAAAMgLBDEAAAAAAEBeIIgBAAAAAADyAkEMAAAAAACQFwhiAAAAAACAvEAQAwAAAAAA5AWCGAAAAAAAIC8QxAAAAAAAAHmBIAYAAAAAAMgLBDEAAAAAAEBeIIgBAAAAAADyAkEMAAAAAACQFwhiAAAAAACAPCDy/wMcoVi9+YQOVQAAAABJRU5ErkJggg==;" vertex="1" parent="1">
          <mxGeometry x="610" y="710" width="1073" height="1067" as="geometry" />
        </mxCell>
      </root>
    </mxGraphModel>
  </diagram>
</mxfile>
